<mxfile host="65bd71144e">
    <diagram id="cz-pwBzE-QxSdTE7WG7y" name="Page-1">
        <mxGraphModel dx="1037" dy="663" grid="0" gridSize="10" guides="1" tooltips="1" connect="1" arrows="1" fold="1" page="1" pageScale="1" pageWidth="827" pageHeight="1169" background="#FFFFFF" math="0" shadow="0">
            <root>
                <mxCell id="0"/>
                <mxCell id="1" parent="0"/>
                <mxCell id="4" value="" style="shape=image;verticalLabelPosition=bottom;labelBackgroundColor=#ffffff;verticalAlign=top;aspect=fixed;imageAspect=0;image=data:image/png,iVBORw0KGgoAAAANSUhEUgAAAhUAAAIJCAYAAAAS8M+eAAAABHNCSVQICAgIfAhkiAAAIABJREFUeJzt3Xt0VPW5//HPTDKQKyEkECIFJBjuEbm0R9CjKLXFI+VylloUkCpCRUVtoZX2oBbpEhE8KksRTmtU9FStWovSqlhNKoIIDVLKRTFqoeGqIUJCSDKX7++PLvIrB9CZ8AyTHd+vtbJWZtibefYKzn67LxOfc87pNJkzZ45KS0tVUlJyul4SAACcJv5EDwAAAFqG46LCOaff/OY3GjBggO66667jVvj000913XXXqX///ho8eLB+/OMfq6qq6rQMCwAAmq/kf30QDAZ1/fXX64svvlB9fb327dt3zMJ1dXWaMGGCOnTooPnz5ysYDGrBggW69dZbtWzZstM6OAAAaF6OiYqGhgYVFhbqmmuu0aRJk45b+M0339TmzZtVVlamLl26yDmnzMxMXXbZZbrzzjt11llnnbbBAQBA83JMVKSmpuqmm25Sdna2kpKSjlt4zZo16tGjhwoKCuT3//PMydChQxUIBLRu3boTRsXDDz/c+P26detUX19vvQ0AAKAZOCYq/H6/srOzT7rw7t271bFjx8agkKRWrVqpffv22rVr1wnX2bRpU+OfffTRR8rJybGYGwAANDPJX73I/xcOh5WcfPwqfr9f4XD4hOvMmTNHwWBQkvTggw9qw4YNTRgTAAA0dzFFRW5urnbs2HHc85WVlSc9ApGfn9/4fVZWlnw+X4wjAgAAL4jpcyoGDRqkzZs3q7a2tvG5Dz74QFVVVfrmN79pPhwAAPCOY6Kirq5Oe/fu1d69e9XQ0KAjR440Pg6Hw7r00kvVpk0b/eQnP9Enn3yiLVu26Mc//rEuuOAC9enTJ1HbAAAAmoFjTn+8/vrr+slPfiJJ2rVrlzZt2qR3331XkvT2228rLy9PxcXFWrBggUaNGqXk5GT16tVLCxcuVKtWrU7/9AAAoNk4JiqGDRum3//+9ydcMCcnRz6fT+edd566d++u2tpa+Xw+ZWZmqmPHjqdlWAAA0HwdExVZWVnKysr60hVatWqlLl26xHUoAADgPfxCMQAAYIKoAAAAJogKAABggqgAAAAmiAoAAGCCqAAAACaICgAAYIKoAAAAJogKAABggqgAAAAmiAoAAGCCqAAAACaICgAAYIKoAAAAJogKAABggqgAAAAmiAoAAGCCqAAAACaICgAAYIKoAAAAJogKAABggqgAAAAmiAoAAGCCqAAAACaICgAAYIKoAAAAJogKAABggqgAAAAmiAoAAGCCqAAAACaICgAAYIKoAAAAJogKAABggqgAAAAmiAoAAGCCqAAAACaICgAAYCI5loX37t2rRx55RBs3btThw4fVv39/zZgxQ9/4xjfiNR8AAPCIqI9UhEIh3XzzzVq/fr0mTJigm266SXv27NG0adMUDAbjOSMAAPCAqI9UlJeX69VXX9ULL7ygCy+8UH6/X7169dKwYcP0zjvv6KKLLornnAAAoJmLOioOHjyo2tpa9erVS2lpaZKk3r17q02bNlqzZs1Jo+Kee+7Rnj17JEnr1q1TcnJMZ1wAAIBHRH36o6CgQO3atVNxcbHq6uoUDAb14osv6rPPPtOuXbtOul51dbUCgYACgYD8fr8ikYjJ4AAAoHmJ+rBBTk6O7rvvPi1dulSlpaVq3bq1zjnnHBUUFMg5d9L1pk2bdszjsrKypk8LAACaraijwu/364orrtCAAQP02WefKTU1VZ06ddIrr7yivLy8k67XpUuXxu+zsrLk93MXKwAALVHUURGJRFRWVqY+ffro7LPPlt/v1/bt27Vjxw4NGTIknjMCAAAPiOlIxaOPPqr27dvrjjvuUF1dne666y6dffbZGjp0aDxnBAAAHhDTuYjrrrtOH330kcaNG6drr71WkrRo0SJlZmbGZTgAAOAdMd3fOWzYMHXq1EmHDh2Sz+dTbm6uCgoK4jUbAADwkJiiIiUlRUVFRfGaBQAAeBi3YgAAABNEBQAAMEFUAAAAE0QFAAAwQVQAAAATRAUAADBBVAAAABNEBQAAMEFUAAAAE0QFAAAwQVQAAAATRAUAADBBVAAAABNEBQAAMEFUAAAAE0QFAAAwQVQAAAATRAUAADBBVAAAABNEBQAAMEFUAAAAE0QFAAAwQVQAAAATRAUAADBBVAAAABNEBQAAMEFUAAAAE0QFAAAwQVQAAAATRAUAADBBVAAAABNEBQAAMEFUAAAAE0QFAAAwQVQAAAATRAUAADBBVAAAABNEBQAAMJEcy8K7d+/WE088oW3btikYDOqMM87QFVdcoSFDhsRrPgAA4BExHam4/fbb9be//U1jxozR+PHjlZ6erh/96Ef6+OOP4zUfAADwiKijora2Vi+99JKGDx+uUaNGaeTIkbr++utVVlam999/P54zAgAAD4j69EcgEFD37t21bds21dbWKj09Xdu3b1fr1q3VrVu3k663aNEi7d+/X5K0atUqhUKhU58aAAA0OzFFxb333qt58+bpqquuUiAQUGVlpX7605+qT58+J11v165dqq2tlSTV1dXJ7+faUAAAWqKooyIcDuu1115TmzZtdPnllystLU3r169XSUmJxo0bpx49epxwvWuvvfaYx3/9619PbWIAANAsRR0VW7Zs0VNPPaVnn31WF1xwgQKBgIYMGaJRo0bp+eef13/913+dcL1evXo1fp+bm6ukpKRTnxoAADQ7UUfF559/rqqqKhUVFSklJUWS1LlzZ7Vp00Y7duyI24AAAMAbor7AobCwUDk5OVq2bJlqamoUDoe1evVqbdu2jc+pAAAA0R+pyM/P17x58/Taa69p06ZNcs4pEolo4sSJ+o//+I94zggAADwg6qhITk7WuHHj1K9fPx04cEDhcFgZGRkqLCxUXl5ePGcEAAAeENPHdGdmZnKqAwAAnBAfGgEAAEwQFQAAwARRAQAATBAVAADABFEBAABMEBUAAMAEUQEAAEwQFQAAwARRAQAATBAVAADABFEBAABMEBUAAMAEUQEAAEwQFQAAwARRAQAATBAVAADABFEBAABMEBUAAMAEUQEAAEwQFQAAwARRAQAATBAVAADABFEBAABMEBUAAMAEUQEAAEwQFQAAwARRAQAATBAVAADABFEBAABMEBUAAMAEUQEAAEwQFQAAwARRAQAATBAVAADABFEBAABMEBUAAMBEcrQLfvTRR7r33ntP+GcXXnihrrnmGrOhAACA90QdFWlpaerTp88xz9XW1mr+/PkaNGiQ+WAAAMBboo6K/Px83XDDDcc89+ijj2rgwIEaOXKk+WAAAMBboo4Kv9+v9PT0xsfbt2/XU089pblz56pLly5xGQ4AAHhH1FHxfy1atEh9+/bVJZdc8qXLFRcXa82aNZKkDRs2KC0trakvCQAAmrEmRcXmzZu1fPlyvfDCC0pNTf3SZcPhsLKzsyVJqampCofDTXlJAADQzDUpKp577jl169ZNAwcO/Mpl//V6C+ec1q1b15SXBAAAzVzMURGJRPTSSy/pmmuuUSAQ+Mrl8/PzG7/PzMxUUlJSrC8JAAA8IOYPv9q9e7c++ugjDR06NB7zAAAAj4o5Knbs2KGGhgadeeaZcRgHAAB4VcxR0bVrVy1dulS5ubnxmAcAAHhUzNdUfOMb39DUqVPjMQsAAPAwfqEYAAAwQVQAAAATRAUAADBBVAAAABNEBQAAMEFUAAAAE0QFAAAwQVQAAAATRAUAADBBVAAAABNEBQAAMEFUAAAAE0QFAAAwQVQAAAATRAUAADBBVAAAABNEBQAAMEFUAAAAE0QFAAAwQVQAAAATRAUAADBBVAAAABNEBQAAMEFUAAAAE0QFAAAwQVQAAAATRAUAADBBVAAAABNEBQAAMEFUAAAAE0QFAAAwQVQAAAATRAUAADBBVAAAABNEBQAAMEFUAAAAE0QFAAAwQVQAAAATybGusH79epWUlOiLL75Qdna2LrroIg0ePDgeswEAAA+J6UjFpk2bNG/ePFVUVCg5OVnbt2/XPffco/3798drPgAA4BExHal45JFH5Pf7ddNNNyk/P1+ffvqpSktLlZSUFK/5AACAR0QdFYcPH9bvfvc7zZ8/X++++6727dundu3aadSoUcrJyYnnjAAAwAOijordu3fr888/14YNG9S5c2cFg0GtXr1ab7/9tu6//3516NDhhOs9//zzKisrkyS988478vl8NpMDAIBmJeqoqKqqkiSlpqZq3LhxyszM1KZNm3T11Vfr9ddf18SJE0+43t69e3XgwAFJUl1dnQKBgMHYAACguYn6Qs3U1FRJ0sUXX6yuXbuqXbt2GjZsmAoLC7V69eqTrjd69GjNnj1bs2fP1gUXXKDk5JhvOAEAAB4Q9R6+U6dOSk9PP+5Oj3A4/KUXanbp0qXx+6ysLKICAIAWKuojFdnZ2frOd76jZ555Rtu2bdOhQ4f0pz/9SeXl5br44ovjOSMAAPCAqA8b+Hw+zZw5U/fcc48WLlyotm3bas+ePRozZowuuuiieM4IAAA8IKZzEUOHDtWsWbP0/vvvq66uTkVFRbrooovUrl27eM0HAAA8IuYLHM4//3ydf/758ZgFAAB4GL9QDAAAmCAqAACACaICAACYICoAAIAJogIAAJggKgAAgAmiAgAAmCAqAACACaICAACYICoAAIAJogIAAJggKgAAgAmiAgAAmCAqAACACaICAACYICoAAIAJogIAAJggKgAAgAmiAgAAmCAqAACACaICAACYICoAAIAJogIAAJggKgAAgAmiAgAAmCAqAACACaICAACYICoAAIAJogIAAJggKgAAgAmiAgAAmCAqAACACaICAACYICoAAIAJogIAAJggKgAAgAmiAgAAmEiOZeGnnnpKe/bsOe75adOmKTMz02woAADgPTFFxcKFC5WVlaV+/fod83w4HDYdCgAAeE9MUXHgwAFNnTpVEyZMOOZ5jlIAAICYoqKqqkrV1dVavny5amtrlZOTo6FDhyorK+uk6/zjH/9o/P7gwYMKhUJNnxYAADRbUUdFfX29fD6ftmzZosrKStXV1amiokLvvPOO7rzzTuXk5JxwvZdfflmbN2+WJP3lL39RcnJMHQMAADwi6j28c04zZ85U9+7ddf755ysQCGjVqlWaPn26zj33XF111VUnXC83N1cZGRmSpFatWsnv54YTAABaIp9zzjV1ZeechgwZor59++qxxx77yuXnzJmj0tJSlZSUNPUlAQBAMxX1YYPKykq9/vrramhoOOb5pKQk+Xw+88EAAIC3RH36o6amRvPmzVN1dbWGDx8uv9+vdevW6ZNPPtHNN98czxkBAIAHRB0VHTp0UN++ffX0009r8+bNSkpK0tatW3XZZZdpxIgR8ZwRAAB4QNRRkZqaqtmzZ2vFihX6+9//rnA4rGHDhmnkyJHKzs6O54wAAMADYrq/Mz8/X1OmTInXLAAAwMO4vxMAAJggKgAAgAmiAgAAmCAqAACACaICAACYICoAAIAJogIAAJggKgAAgAmiAgAAmCAqAACACaICAACYICoAAIAJogIAAJggKgAAgAmiAgAAmCAqAACACaICAACYICoAAIAJogIAAJggKgAAgAmiAgAAmCAqAACACaICAACYICoAAIAJogIAAJggKgAAgAmiAgAAmCAqAACACaICAACYICoAAIAJogIAAJggKgAAgAmiAgAAmCAqAACACaICAACYICoAAIAJogIAAJggKgAAgIkmR8Xu3btVXFyszZs3W84DAAA8qklREQwGtXTpUt1www167bXXrGcCAAAe1KSoWLVqlV599VXl5eVZzwMAADwq5qjYvXu37rvvPk2YMCGqqNi7d2/jV01NjcLhcJMGBQAAzVtyLAsHg0H96le/UkpKiq699lotW7bsK9dZsWKFysvLJUlr165VKBRq2qQAAKBZiykqVq1apVdeeUVLlixRZmZmVOv4fD7t27dPklRTU6P09PTYpwQAAM1e1Kc/du/erYULF2r8+PEaPHhw1C8wefJkPf7443r88cc1ZswYBQKBJg0KAACat6ijYvny5Vq3bp0yMzP17LPP6tlnn1VVVZU2btyo5cuXx3NGAADgAVGf/qivr9d3vvMdrV69uvG5Q4cO6cMPP1RpaalGjx4dlwEBAIA3RB0VU6ZM0TXXXHPMcxs3btSoUaM0ffp088EAAIC3RB0V6enpx11kOWrUKA0ePFht27Y1HwwAAHhLTHd//F9z5syxmgMAAHgcv1AMAACYICoAAIAJogIAAJggKgAAgAmiAgAAmCAqAACACaICAACYICoAAIAJogIAAJggKgAAgAmiAgAAmCAqAACACaICAACYICoAAIAJogIAAJggKgAAgAmiAgAAmCAqAACACaICAACYICoAAIAJogIAAJggKgAAgAmiAgAAmCAqAACACaICAACYICoAAIAJogIAAJggKgAAgAmiAgAAmCAqAACACaICAACYICoAAIAJogIAAJggKgAAgAmiAgAAmCAqAACACaICAACYSI5l4cOHD2vr1q2qrKxUJBJRRkaGevTooY4dO8ZrPgAA4BFRR0UkEtGLL76o5cuXKxQKKRKJKBQKafDgwbr99tuVkZERzzkBAEAzF3VU1NfX67HHHtO3v/1tTZo0SSkpKfrDH/6gKVOmaOTIkfq3f/u3eM4JAACauaijIhQK6Uc/+pGGDx+uzMxMhUIhnXvuuUpOTlZ1dfVJ19u+fXvj90dPmwAAgJYn6qjIzMzUmDFjJEmvv/66Dh48qNLSUl1yySUaNGjQSdd77LHHdOTIEUnSe++9J7+fa0MBAGiJYrpQ86hHHnlElZWVSk5O1sSJExUIBE66bH5+vvbv3y9JatWqFUcqAABooXzOORfrSrt27dIXX3yhN998U/fff7+WLFmiSy+99CvXmzNnjkpLS1VSUtKkYQEAQPMV9bmIyspKlZSUqKGhQZ06dVLfvn11yy23qH379lq+fHk8ZwQAAB4QdVTs3LlTP/jBD7Rq1SpVV1fryJEj+vjjj1VdXc3nVAAAgOivqejZs6cGDRqkBx54QKNHj1ZKSorKysqUkZGh0aNHx3NGAADgAVFHRVpamh566CE9+eSTeuuttxpPgzzwwAMaMGBAPGcEAAAeENPdH507d9bs2bPjNQsAAPAwPjQCAACYICoAAIAJogIAAJggKgAAgAmiAgAAmCAqAACACaICAACYICoAAIAJogIAAJggKgAAgAmiAgAAmCAqAACACaICAACYICoAAIAJogIAAJggKgAAgAmiAgAAmCAqAACACaICAACYICoAAIAJogIAAJggKgAAgAmiAgAAmCAqAACACaICAACYICoAAIAJogIAAJggKgAAgAmiAgAAmCAqAACACaICAACYICoAAIAJogIAAJggKgAAgAmiAgAAmCAqAACACaICAACYICoAAICJ5FgWDgaD2rlzp6qqqhQOh5WamqrOnTsrOzs7XvMBAACPiCkq1q1bp0ceeUR79uxRMBhU69atddlll+nGG29USkpKvGYEAAAeEPXpj3A4rDvvvFORSESLFy/W888/r7Fjx+pnP/uZtm3bFs8ZAQCAB0QdFXV1dRoyZIjmzp2r3r17Kz8/X1OmTJHP59OHH3540vUqKioavw4dOqRIJGIyOAAAaF6iPv2Rnp6uX/7yl42PI5GI1q5dq4yMDPXs2fOk6y1evFj19fWSpHfffVfOuVMYFwAANFcxXVNxVENDgzZt2qS7775bP/jBDzRgwICTLpuWlqaDBw9KkkKhkAKBQNMmBQAAzZrPxXjooKamRm+//bb++7//WwMHDtTcuXPVunXrqNadM2eOSktLVVJS0qRhAQBA8xXTkYqamhq98MILWrx4sSZPnqypU6fK5/PFazYAAOAhUUdFJBLRK6+8onvvvVf333+/LrnkEgWDQUlSUlKSkpKS4jYkAABo/qKOigMHDmjWrFm68MIL5ZzTypUrG/+sa9euKioqisuAAADAG6KOip07d6pjx4768MMPNXfu3GP+bOzYsUQFAABfc1FHxcCBA/Xee+/FcxYAAOBh/EIxAABggqgAAAAmiAoAAGCCqAAAACaICgAAYIKoAAAAJogKAABggqgAAAAmiAoAAGCCqAAAACaICgAAYIKoAAAAJogKAABggqgAAAAmiAoAAGCCqAAAACaICgAAYIKoAAAAJogKAABggqgAAAAmiAoAAGCCqAAAACaICgAAYIKoAAAAJogKAABggqgAAAAmiAoAAGCCqAAAACaICgAAYIKoAAAAJogKAABggqgAAAAmiAoAAGCCqAAAACaICgAAYIKoAAAAJogKAABgIuaoCAaDqqio0Pbt2xUKheIxEwAA8KCYoqKmpkZr1qzR5MmT1bNnT33++efxmgsAAHhMTFGxcuVKzZgxQ0VFRfGaBwAAeFRMUZGcnKzf/e53GjNmTNTr7Nu3TxUVFaqoqNChQ4fknIt5SAAA0Pwlx7LwqFGjJEk7d+6Mep077rhDFRUVkqTy8nLl5OTE8pIAAMAjYoqKpigqKmo8XfLqq6/qiy++iPdLAgCABIh7VEyfPr3x+wMHDqi0tDTeLwkAABKAz6kAAAAmYjpSEQ6H5ZxTOBxufBwKheT3++X30ycAAHydxRQVGzduVF1dnbZu3SpJ2rBhg9q1a6e8vDydddZZcRkQAAB4Q0xRMXPmzMY7PwoKCnTbbbdJkq688krNmzfPfjoAAOAZMUVFSUlJvOYAAAAex4UQAADABFEBAABMEBUAAMAEUQEAAEwQFQAAwARRAQAATBAVAADABFEBAABMEBUAAMAEUQEAAEwQFQAAwARRAQAATBAVAADABFEBAABMEBUAAMAEUQEAAEwQFQAAwARRAQAATBAVAADABFEBAABMEBUAAMAEUQEAAEwQFQAAwARRAQAATBAVAADABFEBAABMEBUAAMAEUQEAAEwQFQAAwARRAQAATBAVAADABFEBAABMEBUAAMAEUQEAAEwQFQAAwARRAQAATBAVAADABFEBAABMEBUAAMAEUQEAAEwkn84X8/l8CofDqqqqOp0vCwAAToPTGhUZGRnatGmTunbtejpf1lRtba2SkpLUunXrRI9ySlrCdlRXVys1NVXJyaf1n7E5r29HKBTSkSNHlJmZmehRTklL2I76+nqFw2GlpaUlepRT0hK24+v6Hnta38Wqq6t11lln6cEHHzydL2vqlltu0TnnnKPrrrsu0aOckpawHf/+7/+u+fPna8CAAYke5ZR4fTvef/993XLLLfrjH/+Y6FFOSUvYjuLiYm3cuFGLFi1K9CinpCVsx9f1Pfa0/69RZmamzj///NP9smaysrLUtWtXT2+D1HK2o6ioyPPbIHl7O0KhkCR5dv6jWsJ2vPnmm/r00089vQ1Sy9iOr+t77Gm9UDMQCHj6UJAktW7dWoFAINFjnLKWsB1paWny+71/rbHXt8Pv93v6MPVRLWE7WsJ7rNQytuPr+h6b9Itf/OIX8RnneG3btlX//v1VUFBwul7SXMeOHTVw4EDl5eUlepRT0hK2o1u3bvrmN7+pjIyMRI9ySry+HSkpKerXr5+KiooSPcopaQnb0RLeY6WWsR1f1/dYn3POxXEmAADwNeHdY64AAKBZISoAAIAJogIAAJiI6ZZS55zq6+sVCoXknFNSUpJSUlI8feV6rMLhsOrq6iRJ6enpCZ6maSKRSOOHy0hq/IAWL/0cGxoaFAwGFYlE5PP5lJycrNatW8vn8yV6tCarra1VJBLx1AWb9fX1amhoOO75lJQUz135Hg6HG/+78Pl8nroDIRwOq7a29oR/FggElJKScponarr/+/7k9/vVqlUrT3043NF/S5FIRJI88/70Zfu3aPf/Me1FPvvsM02bNk29e/dWt27ddOmll2rt2rX6ulzrWV9fr5UrV6p///4aNGhQosdpEuec3nvvPf3nf/6nevTood69e+vyyy/XX//610SPFrVgMKhFixbpvPPOU7du3dS/f3/deOON2rdvX6JHa7K6ujpdcskl6tixY6JHickdd9yhdu3a6Ywzzjjm68UXX0z0aDGJRCL685//rO9+97s688wzVVRUpFmzZunIkSOJHi0q69atO+5nkJ+fr6ysLM2cOTPR48Vk8+bNGj9+vPr166cePXpo+PDheu655xojo7mLRCJ66623NHLkSPXo0UM9e/bUjTfeqAMHDiR6tC/1Vfu3qPf/LkqRSMSNGTPGnX322W7t2rXuk08+cbfccovLzc11+/fvj/av8bSf//znrl+/fm7s2LGuZ8+eiR6nSfbs2eM6dOjgpk6d6srLy93WrVvdZZdd5rp16+bC4XCix4vK0qVLXfv27d1LL73kKioq3KpVq1xhYaEbN25cokdrknA47ObPn+9yc3Ndenp6oseJyeTJk93IkSNdRUXFMV+HDx9O9Ggx+eCDD1zbtm3dggUL3N///ndXUlLievbs6ZYtW5bo0aJSX19/3M9gw4YNrn379u4Pf/hDoseLWiQScQUFBW7SpEnu4MGDLhgMumXLljm/3+/Wr1+f6PGism3bNpeenu5mzZrlduzY4crKyty5557rvv/977tIJJLo8U7qy/Zvsez/o46KiooK5/P53KpVqxqfC4fDrnPnzu6hhx46xc3xhkWLFrnq6mo3d+5cz0bF+vXr3fjx4119fX3jc++8847z+Xxux44dCZwseq+99ppbsWJF4+NwOOx+9rOfuX79+iVwqqbbsmWLa9++vZs/f77nomLs2LFuypQprra21tXU1Lja2lrX0NCQ6LFidsMNN7ixY8e6uro6d/jwYc9ux1GhUMiNHz/eTZo0KdGjxOTgwYMuKSnJvfLKK4074Pr6ehcIBNzjjz+e2OGitHDhQnfGGWccExDvvfeeS0pKcnv37k3gZF/uy/Zvsez/oz5JVVZWJr/fr29961uNzx19vH79+qYfc/GQ6dOnJ3qEUzZ48GCpHKECAAAGhElEQVQ9/fTTjY8jkYjKy8vVtm1b5ebmJnCy6H33u9+V9M/TIEeOHNGWLVu0fPlyXXHFFQmeLHYNDQ264YYbNGPGDPXp0yfR48SsqqpKNTU1Gjt2rMrLy5WXl6eJEydq8uTJnrqmorS0VN///vc1Y8YMlZaWqm3btrryyis1bdo0T23HUW+99ZZWrlypLVu2JHqUmLRp00YjRoxQcXGx+vXrpzZt2uiZZ55Rdna2hg8fnujxohKJRBQIBBQKhRQIBOScU15ensLhsN5//32NGDEi0SOe0Jft32LZ/0d9TcXnn3+ujIwMtWrV6pjnc3NztX///mj/GjQj4XBYH3zwgWbPnq27777bcx9RvHTpUnXq1EkjRozQqFGj9POf/zzRI8UkEonooYceUjAY1IwZMxI9TpOkp6crGAzqtttu08svv6wrr7xSt912m379618nerSYVFRUqLi4WOedd55efvll3XjjjZo9e7aKi4sTPVrMwuGwZs2apdtvv13t27dP9Dgxe/TRR1VRUaG+ffuqS5cuuvvuu7VkyRJ16tQp0aNF5dvf/rb279+vxYsXq7q6Wnv27NFdd92lpKQkVVZWJnq8Joll/x91VJzsqtVIJOKpuwbwT6FQSH/60580YsQITZ8+XTfffHOiR4rZ+PHjtWbNGi1dulTPP/+8br31Vk9dNPzBBx9owYIF+tWvfuWpK9v/1YoVK1RSUqIRI0aoT58+uvXWWzVx4kQ9+uijiR4tJqFQSKNHj9ZVV12lgoICXX311Zo0aZLn4kiSXn31VX388ceaOnVqokeJWX19vcaOHauePXvqk08+0WeffaYHH3xQkyZN0rvvvpvo8aIyYMAALV68WPfff7+6du2qIUOG6LzzzpOk43bKXhHL/j/qGsjPz9ehQ4eOuxp67969nrti/esuFAppyZIluvbaa/Xwww/rpz/9aaJHikl9fb2CwaCys7NVVFSkcePG6YEHHtCSJUs8cwdIJBLRD3/4Q910003q3r27jhw50nhr5pEjRxp/Y2Zz19DQ0Hjb3FE9e/bUnj17EjRR07Rv317Z2dnHPFdQUOC57ZCkJ598UmPHjlVmZmaiR4nZ6tWrVVZWpgULFigvL0+pqam66qqrNHjwYD3xxBOJHi8qzjlNmDBBO3fuVHl5uT799FNdfPHFikQi6tKlS6LHa5JY9v9RR8XgwYMVCAT09ttvKxKJyDmnw4cPa+3atZ7/1a7Rcv+8sLXx/4b/9XuviEQievjhh7Vw4UK98cYb+t73vue57ZgwYYJmz57deL/00X+Pfr+/2d8HflR5ebnKysr0P//zPyosLFRhYaF++MMf6vDhwyosLNSzzz6b6BG/Ul1dnW699VatWbOm8WcQCoW0ceNG9erVK9HjxWTo0KFavXq1gsGgnHMKh8Patm2b536hVUNDg1auXNlsz9t/laP/DTc0NDS+J4XDYTU0NHjm2pYDBw7oiSeeUF1dnbKzs+Wc029/+1vl5OTonHPOSfR4J/Vl+7eY9v+xXB16/fXXu969e7uSkhK3adMmd/XVV7tu3bq56urqWP4aTwoGg2779u1u+/bt7rbbbnMFBQWNjw8dOpTo8aK2efNm17p1a/fMM880zn/0yys/x4ceeshlZma64uJi9+GHH7q33nrLDRgwwF188cWJHi1qwWDwuFsAn3zySZeWluYqKipcTU1NokeMysiRI11RUZErLS115eXlbtGiRS4tLc299NJLiR4tJmvWrHFpaWnunnvucR9//LF75plnXJs2bdz//u//Jnq0mPztb39zkty2bdsSPUqTVFdXu+7du7vx48e7Xbt2uYMHD7qnn37apaamujfeeCPR40WlqqrKtWvXzs2cOdPt2LHDrVixwnXo0MEtWLAg0aOdVDT7t2j3/zFFxeHDh93NN9/szjjjDJedne0uvfRSt3XrVrsta8YqKipcamrqCb9+85vfJHq8qP3yl7886Xb89re/TfR4UVu0aJE755xzXHZ2tisoKHBTp05t1rdrReOPf/yjy83NTfQYMTlw4ICbNm2aO/PMM11ubq4bMmSIe+GFFxI9VpMsX77cDRw40LVt29b179/fLVmyJNEjxeyNN95wqamprrKyMtGjNNnWrVvd5Zdf7jp37uw6dOjgzj33XPfcc88leqyYvPnmm+5b3/qWa9u2rSssLHT33Xdfs/6Mimj2b9Hu//nV5wAAwAS3bQAAABP/DwvmVLfy6OiQAAAAAElFTkSuQmCC;" vertex="1" parent="1">
                    <mxGeometry x="20" y="280" width="317.14" height="310" as="geometry"/>
                </mxCell>
                <mxCell id="5" value="" style="endArrow=none;dashed=1;html=1;exitX=0.056;exitY=0.192;exitDx=0;exitDy=0;exitPerimeter=0;fillColor=#bac8d3;strokeColor=#23445d;" edge="1" parent="1">
                    <mxGeometry width="50" height="50" relative="1" as="geometry">
                        <mxPoint x="35.21984" y="519.31" as="sourcePoint"/>
                        <mxPoint x="180" y="519" as="targetPoint"/>
                    </mxGeometry>
                </mxCell>
                <mxCell id="9" value="1" style="ellipse;whiteSpace=wrap;html=1;aspect=fixed;fillColor=#e51400;fontColor=#ffffff;strokeColor=#000000;gradientColor=none;" vertex="1" parent="1">
                    <mxGeometry x="116.5" y="541" width="15" height="15" as="geometry"/>
                </mxCell>
                <mxCell id="10" value="(3, 1)" style="text;html=1;align=center;verticalAlign=middle;resizable=0;points=[];autosize=1;fontColor=#000000;fontSize=10;" vertex="1" parent="1">
                    <mxGeometry x="104" y="521" width="40" height="20" as="geometry"/>
                </mxCell>
                <mxCell id="16" value="1" style="ellipse;whiteSpace=wrap;html=1;aspect=fixed;fillColor=#008a00;fontColor=#ffffff;strokeColor=#005700;" vertex="1" parent="1">
                    <mxGeometry x="114.5" y="393" width="15" height="15" as="geometry"/>
                </mxCell>
                <mxCell id="17" value="(3, 6)" style="text;html=1;align=center;verticalAlign=middle;resizable=0;points=[];autosize=1;fontColor=#000000;fontSize=10;" vertex="1" parent="1">
                    <mxGeometry x="102" y="373" width="40" height="20" as="geometry"/>
                </mxCell>
                <mxCell id="18" value="1" style="ellipse;whiteSpace=wrap;html=1;aspect=fixed;fillColor=#008a00;fontColor=#ffffff;strokeColor=#005700;" vertex="1" parent="1">
                    <mxGeometry x="144" y="393" width="15" height="15" as="geometry"/>
                </mxCell>
                <mxCell id="19" value="(4, 6)" style="text;html=1;align=center;verticalAlign=middle;resizable=0;points=[];autosize=1;fontColor=#000000;fontSize=10;" vertex="1" parent="1">
                    <mxGeometry x="131.5" y="373" width="40" height="20" as="geometry"/>
                </mxCell>
                <mxCell id="20" value="1" style="ellipse;whiteSpace=wrap;html=1;aspect=fixed;fillColor=#008a00;fontColor=#ffffff;strokeColor=#005700;" vertex="1" parent="1">
                    <mxGeometry x="144" y="423" width="15" height="15" as="geometry"/>
                </mxCell>
                <mxCell id="21" value="(4, 5)" style="text;html=1;align=center;verticalAlign=middle;resizable=0;points=[];autosize=1;fontColor=#000000;fontSize=10;" vertex="1" parent="1">
                    <mxGeometry x="131.5" y="438" width="40" height="20" as="geometry"/>
                </mxCell>
                <mxCell id="25" value="1" style="ellipse;whiteSpace=wrap;html=1;aspect=fixed;fillColor=#008a00;fontColor=#ffffff;strokeColor=#005700;" vertex="1" parent="1">
                    <mxGeometry x="114" y="423" width="15" height="15" as="geometry"/>
                </mxCell>
                <mxCell id="26" value="(3, 5)" style="text;html=1;align=center;verticalAlign=middle;resizable=0;points=[];autosize=1;fontColor=#000000;fontSize=10;" vertex="1" parent="1">
                    <mxGeometry x="101.5" y="438" width="40" height="20" as="geometry"/>
                </mxCell>
                <mxCell id="40" value="1" style="ellipse;whiteSpace=wrap;html=1;aspect=fixed;fillColor=#008a00;fontColor=#ffffff;strokeColor=#005700;" vertex="1" parent="1">
                    <mxGeometry x="202.5" y="479" width="15" height="15" as="geometry"/>
                </mxCell>
                <mxCell id="41" value="(6, 3)" style="text;html=1;align=center;verticalAlign=middle;resizable=0;points=[];autosize=1;fontColor=#000000;fontSize=10;" vertex="1" parent="1">
                    <mxGeometry x="190" y="459" width="40" height="20" as="geometry"/>
                </mxCell>
                <mxCell id="43" value="" style="endArrow=none;dashed=1;html=1;exitX=0.75;exitY=0;exitDx=0;exitDy=0;fillColor=#bac8d3;strokeColor=#23445d;entryX=0.505;entryY=0.968;entryDx=0;entryDy=0;entryPerimeter=0;" edge="1" parent="1">
                    <mxGeometry width="50" height="50" relative="1" as="geometry">
                        <mxPoint x="180.85500000000002" y="280" as="sourcePoint"/>
                        <mxPoint x="183.15569999999997" y="580.0799999999999" as="targetPoint"/>
                    </mxGeometry>
                </mxCell>
                <mxCell id="44" value="" style="endArrow=none;dashed=1;html=1;exitX=0.056;exitY=0.192;exitDx=0;exitDy=0;exitPerimeter=0;fillColor=#bac8d3;strokeColor=#23445d;" edge="1" parent="1">
                    <mxGeometry width="50" height="50" relative="1" as="geometry">
                        <mxPoint x="38.21984000000003" y="416.30999999999995" as="sourcePoint"/>
                        <mxPoint x="139" y="416" as="targetPoint"/>
                    </mxGeometry>
                </mxCell>
                <mxCell id="45" value="" style="endArrow=none;dashed=1;html=1;exitX=0.75;exitY=0;exitDx=0;exitDy=0;fillColor=#bac8d3;strokeColor=#23445d;" edge="1" parent="1">
                    <mxGeometry width="50" height="50" relative="1" as="geometry">
                        <mxPoint x="136.85500000000002" y="280" as="sourcePoint"/>
                        <mxPoint x="139" y="420" as="targetPoint"/>
                    </mxGeometry>
                </mxCell>
                <mxCell id="48" value="" style="endArrow=none;dashed=1;html=1;exitX=0.75;exitY=0;exitDx=0;exitDy=0;fillColor=#bac8d3;strokeColor=#23445d;" edge="1" parent="1">
                    <mxGeometry width="50" height="50" relative="1" as="geometry">
                        <mxPoint x="139.35500000000002" y="417" as="sourcePoint"/>
                        <mxPoint x="141.5" y="521" as="targetPoint"/>
                    </mxGeometry>
                </mxCell>
                <mxCell id="49" value="" style="shape=image;verticalLabelPosition=bottom;labelBackgroundColor=#ffffff;verticalAlign=top;aspect=fixed;imageAspect=0;image=data:image/png,iVBORw0KGgoAAAANSUhEUgAAAhUAAAIJCAYAAAAS8M+eAAAABHNCSVQICAgIfAhkiAAAIABJREFUeJzt3Xt0VPW5//HPTDKQKyEkECIFJBjuEbm0R9CjKLXFI+VylloUkCpCRUVtoZX2oBbpEhE8KksRTmtU9FStWovSqlhNKoIIDVLKRTFqoeGqIUJCSDKX7++PLvIrB9CZ8AyTHd+vtbJWZtibefYKzn67LxOfc87pNJkzZ45KS0tVUlJyul4SAACcJv5EDwAAAFqG46LCOaff/OY3GjBggO66667jVvj000913XXXqX///ho8eLB+/OMfq6qq6rQMCwAAmq/kf30QDAZ1/fXX64svvlB9fb327dt3zMJ1dXWaMGGCOnTooPnz5ysYDGrBggW69dZbtWzZstM6OAAAaF6OiYqGhgYVFhbqmmuu0aRJk45b+M0339TmzZtVVlamLl26yDmnzMxMXXbZZbrzzjt11llnnbbBAQBA83JMVKSmpuqmm25Sdna2kpKSjlt4zZo16tGjhwoKCuT3//PMydChQxUIBLRu3boTRsXDDz/c+P26detUX19vvQ0AAKAZOCYq/H6/srOzT7rw7t271bFjx8agkKRWrVqpffv22rVr1wnX2bRpU+OfffTRR8rJybGYGwAANDPJX73I/xcOh5WcfPwqfr9f4XD4hOvMmTNHwWBQkvTggw9qw4YNTRgTAAA0dzFFRW5urnbs2HHc85WVlSc9ApGfn9/4fVZWlnw+X4wjAgAAL4jpcyoGDRqkzZs3q7a2tvG5Dz74QFVVVfrmN79pPhwAAPCOY6Kirq5Oe/fu1d69e9XQ0KAjR440Pg6Hw7r00kvVpk0b/eQnP9Enn3yiLVu26Mc//rEuuOAC9enTJ1HbAAAAmoFjTn+8/vrr+slPfiJJ2rVrlzZt2qR3331XkvT2228rLy9PxcXFWrBggUaNGqXk5GT16tVLCxcuVKtWrU7/9AAAoNk4JiqGDRum3//+9ydcMCcnRz6fT+edd566d++u2tpa+Xw+ZWZmqmPHjqdlWAAA0HwdExVZWVnKysr60hVatWqlLl26xHUoAADgPfxCMQAAYIKoAAAAJogKAABggqgAAAAmiAoAAGCCqAAAACaICgAAYIKoAAAAJogKAABggqgAAAAmiAoAAGCCqAAAACaICgAAYIKoAAAAJogKAABggqgAAAAmiAoAAGCCqAAAACaICgAAYIKoAAAAJogKAABggqgAAAAmiAoAAGCCqAAAACaICgAAYIKoAAAAJogKAABggqgAAAAmiAoAAGCCqAAAACaICgAAYIKoAAAAJogKAABggqgAAAAmiAoAAGCCqAAAACaICgAAYCI5loX37t2rRx55RBs3btThw4fVv39/zZgxQ9/4xjfiNR8AAPCIqI9UhEIh3XzzzVq/fr0mTJigm266SXv27NG0adMUDAbjOSMAAPCAqI9UlJeX69VXX9ULL7ygCy+8UH6/X7169dKwYcP0zjvv6KKLLornnAAAoJmLOioOHjyo2tpa9erVS2lpaZKk3r17q02bNlqzZs1Jo+Kee+7Rnj17JEnr1q1TcnJMZ1wAAIBHRH36o6CgQO3atVNxcbHq6uoUDAb14osv6rPPPtOuXbtOul51dbUCgYACgYD8fr8ikYjJ4AAAoHmJ+rBBTk6O7rvvPi1dulSlpaVq3bq1zjnnHBUUFMg5d9L1pk2bdszjsrKypk8LAACaraijwu/364orrtCAAQP02WefKTU1VZ06ddIrr7yivLy8k67XpUuXxu+zsrLk93MXKwAALVHUURGJRFRWVqY+ffro7LPPlt/v1/bt27Vjxw4NGTIknjMCAAAPiOlIxaOPPqr27dvrjjvuUF1dne666y6dffbZGjp0aDxnBAAAHhDTuYjrrrtOH330kcaNG6drr71WkrRo0SJlZmbGZTgAAOAdMd3fOWzYMHXq1EmHDh2Sz+dTbm6uCgoK4jUbAADwkJiiIiUlRUVFRfGaBQAAeBi3YgAAABNEBQAAMEFUAAAAE0QFAAAwQVQAAAATRAUAADBBVAAAABNEBQAAMEFUAAAAE0QFAAAwQVQAAAATRAUAADBBVAAAABNEBQAAMEFUAAAAE0QFAAAwQVQAAAATRAUAADBBVAAAABNEBQAAMEFUAAAAE0QFAAAwQVQAAAATRAUAADBBVAAAABNEBQAAMEFUAAAAE0QFAAAwQVQAAAATRAUAADBBVAAAABNEBQAAMEFUAAAAE0QFAAAwQVQAAAATRAUAADBBVAAAABNEBQAAMJEcy8K7d+/WE088oW3btikYDOqMM87QFVdcoSFDhsRrPgAA4BExHam4/fbb9be//U1jxozR+PHjlZ6erh/96Ef6+OOP4zUfAADwiKijora2Vi+99JKGDx+uUaNGaeTIkbr++utVVlam999/P54zAgAAD4j69EcgEFD37t21bds21dbWKj09Xdu3b1fr1q3VrVu3k663aNEi7d+/X5K0atUqhUKhU58aAAA0OzFFxb333qt58+bpqquuUiAQUGVlpX7605+qT58+J11v165dqq2tlSTV1dXJ7+faUAAAWqKooyIcDuu1115TmzZtdPnllystLU3r169XSUmJxo0bpx49epxwvWuvvfaYx3/9619PbWIAANAsRR0VW7Zs0VNPPaVnn31WF1xwgQKBgIYMGaJRo0bp+eef13/913+dcL1evXo1fp+bm6ukpKRTnxoAADQ7UUfF559/rqqqKhUVFSklJUWS1LlzZ7Vp00Y7duyI24AAAMAbor7AobCwUDk5OVq2bJlqamoUDoe1evVqbdu2jc+pAAAA0R+pyM/P17x58/Taa69p06ZNcs4pEolo4sSJ+o//+I94zggAADwg6qhITk7WuHHj1K9fPx04cEDhcFgZGRkqLCxUXl5ePGcEAAAeENPHdGdmZnKqAwAAnBAfGgEAAEwQFQAAwARRAQAATBAVAADABFEBAABMEBUAAMAEUQEAAEwQFQAAwARRAQAATBAVAADABFEBAABMEBUAAMAEUQEAAEwQFQAAwARRAQAATBAVAADABFEBAABMEBUAAMAEUQEAAEwQFQAAwARRAQAATBAVAADABFEBAABMEBUAAMAEUQEAAEwQFQAAwARRAQAATBAVAADABFEBAABMEBUAAMAEUQEAAEwQFQAAwARRAQAATBAVAADABFEBAABMEBUAAMBEcrQLfvTRR7r33ntP+GcXXnihrrnmGrOhAACA90QdFWlpaerTp88xz9XW1mr+/PkaNGiQ+WAAAMBboo6K/Px83XDDDcc89+ijj2rgwIEaOXKk+WAAAMBboo4Kv9+v9PT0xsfbt2/XU089pblz56pLly5xGQ4AAHhH1FHxfy1atEh9+/bVJZdc8qXLFRcXa82aNZKkDRs2KC0trakvCQAAmrEmRcXmzZu1fPlyvfDCC0pNTf3SZcPhsLKzsyVJqampCofDTXlJAADQzDUpKp577jl169ZNAwcO/Mpl//V6C+ec1q1b15SXBAAAzVzMURGJRPTSSy/pmmuuUSAQ+Mrl8/PzG7/PzMxUUlJSrC8JAAA8IOYPv9q9e7c++ugjDR06NB7zAAAAj4o5Knbs2KGGhgadeeaZcRgHAAB4VcxR0bVrVy1dulS5ubnxmAcAAHhUzNdUfOMb39DUqVPjMQsAAPAwfqEYAAAwQVQAAAATRAUAADBBVAAAABNEBQAAMEFUAAAAE0QFAAAwQVQAAAATRAUAADBBVAAAABNEBQAAMEFUAAAAE0QFAAAwQVQAAAATRAUAADBBVAAAABNEBQAAMEFUAAAAE0QFAAAwQVQAAAATRAUAADBBVAAAABNEBQAAMEFUAAAAE0QFAAAwQVQAAAATRAUAADBBVAAAABNEBQAAMEFUAAAAE0QFAAAwQVQAAAATRAUAADBBVAAAABNEBQAAMEFUAAAAE0QFAAAwQVQAAAATybGusH79epWUlOiLL75Qdna2LrroIg0ePDgeswEAAA+J6UjFpk2bNG/ePFVUVCg5OVnbt2/XPffco/3798drPgAA4BExHal45JFH5Pf7ddNNNyk/P1+ffvqpSktLlZSUFK/5AACAR0QdFYcPH9bvfvc7zZ8/X++++6727dundu3aadSoUcrJyYnnjAAAwAOijordu3fr888/14YNG9S5c2cFg0GtXr1ab7/9tu6//3516NDhhOs9//zzKisrkyS988478vl8NpMDAIBmJeqoqKqqkiSlpqZq3LhxyszM1KZNm3T11Vfr9ddf18SJE0+43t69e3XgwAFJUl1dnQKBgMHYAACguYn6Qs3U1FRJ0sUXX6yuXbuqXbt2GjZsmAoLC7V69eqTrjd69GjNnj1bs2fP1gUXXKDk5JhvOAEAAB4Q9R6+U6dOSk9PP+5Oj3A4/KUXanbp0qXx+6ysLKICAIAWKuojFdnZ2frOd76jZ555Rtu2bdOhQ4f0pz/9SeXl5br44ovjOSMAAPCAqA8b+Hw+zZw5U/fcc48WLlyotm3bas+ePRozZowuuuiieM4IAAA8IKZzEUOHDtWsWbP0/vvvq66uTkVFRbrooovUrl27eM0HAAA8IuYLHM4//3ydf/758ZgFAAB4GL9QDAAAmCAqAACACaICAACYICoAAIAJogIAAJggKgAAgAmiAgAAmCAqAACACaICAACYICoAAIAJogIAAJggKgAAgAmiAgAAmCAqAACACaICAACYICoAAIAJogIAAJggKgAAgAmiAgAAmCAqAACACaICAACYICoAAIAJogIAAJggKgAAgAmiAgAAmCAqAACACaICAACYICoAAIAJogIAAJggKgAAgAmiAgAAmCAqAACACaICAACYICoAAIAJogIAAJggKgAAgAmiAgAAmEiOZeGnnnpKe/bsOe75adOmKTMz02woAADgPTFFxcKFC5WVlaV+/fod83w4HDYdCgAAeE9MUXHgwAFNnTpVEyZMOOZ5jlIAAICYoqKqqkrV1dVavny5amtrlZOTo6FDhyorK+uk6/zjH/9o/P7gwYMKhUJNnxYAADRbUUdFfX29fD6ftmzZosrKStXV1amiokLvvPOO7rzzTuXk5JxwvZdfflmbN2+WJP3lL39RcnJMHQMAADwi6j28c04zZ85U9+7ddf755ysQCGjVqlWaPn26zj33XF111VUnXC83N1cZGRmSpFatWsnv54YTAABaIp9zzjV1ZeechgwZor59++qxxx77yuXnzJmj0tJSlZSUNPUlAQBAMxX1YYPKykq9/vrramhoOOb5pKQk+Xw+88EAAIC3RH36o6amRvPmzVN1dbWGDx8uv9+vdevW6ZNPPtHNN98czxkBAIAHRB0VHTp0UN++ffX0009r8+bNSkpK0tatW3XZZZdpxIgR8ZwRAAB4QNRRkZqaqtmzZ2vFihX6+9//rnA4rGHDhmnkyJHKzs6O54wAAMADYrq/Mz8/X1OmTInXLAAAwMO4vxMAAJggKgAAgAmiAgAAmCAqAACACaICAACYICoAAIAJogIAAJggKgAAgAmiAgAAmCAqAACACaICAACYICoAAIAJogIAAJggKgAAgAmiAgAAmCAqAACACaICAACYICoAAIAJogIAAJggKgAAgAmiAgAAmCAqAACACaICAACYICoAAIAJogIAAJggKgAAgAmiAgAAmCAqAACACaICAACYICoAAIAJogIAAJggKgAAgAmiAgAAmCAqAACACaICAACYICoAAIAJogIAAJggKgAAgIkmR8Xu3btVXFyszZs3W84DAAA8qklREQwGtXTpUt1www167bXXrGcCAAAe1KSoWLVqlV599VXl5eVZzwMAADwq5qjYvXu37rvvPk2YMCGqqNi7d2/jV01NjcLhcJMGBQAAzVtyLAsHg0H96le/UkpKiq699lotW7bsK9dZsWKFysvLJUlr165VKBRq2qQAAKBZiykqVq1apVdeeUVLlixRZmZmVOv4fD7t27dPklRTU6P09PTYpwQAAM1e1Kc/du/erYULF2r8+PEaPHhw1C8wefJkPf7443r88cc1ZswYBQKBJg0KAACat6ijYvny5Vq3bp0yMzP17LPP6tlnn1VVVZU2btyo5cuXx3NGAADgAVGf/qivr9d3vvMdrV69uvG5Q4cO6cMPP1RpaalGjx4dlwEBAIA3RB0VU6ZM0TXXXHPMcxs3btSoUaM0ffp088EAAIC3RB0V6enpx11kOWrUKA0ePFht27Y1HwwAAHhLTHd//F9z5syxmgMAAHgcv1AMAACYICoAAIAJogIAAJggKgAAgAmiAgAAmCAqAACACaICAACYICoAAIAJogIAAJggKgAAgAmiAgAAmCAqAACACaICAACYICoAAIAJogIAAJggKgAAgAmiAgAAmCAqAACACaICAACYICoAAIAJogIAAJggKgAAgAmiAgAAmCAqAACACaICAACYICoAAIAJogIAAJggKgAAgAmiAgAAmCAqAACACaICAACYICoAAIAJogIAAJggKgAAgAmiAgAAmCAqAACACaICAACYSI5l4cOHD2vr1q2qrKxUJBJRRkaGevTooY4dO8ZrPgAA4BFRR0UkEtGLL76o5cuXKxQKKRKJKBQKafDgwbr99tuVkZERzzkBAEAzF3VU1NfX67HHHtO3v/1tTZo0SSkpKfrDH/6gKVOmaOTIkfq3f/u3eM4JAACauaijIhQK6Uc/+pGGDx+uzMxMhUIhnXvuuUpOTlZ1dfVJ19u+fXvj90dPmwAAgJYn6qjIzMzUmDFjJEmvv/66Dh48qNLSUl1yySUaNGjQSdd77LHHdOTIEUnSe++9J7+fa0MBAGiJYrpQ86hHHnlElZWVSk5O1sSJExUIBE66bH5+vvbv3y9JatWqFUcqAABooXzOORfrSrt27dIXX3yhN998U/fff7+WLFmiSy+99CvXmzNnjkpLS1VSUtKkYQEAQPMV9bmIyspKlZSUqKGhQZ06dVLfvn11yy23qH379lq+fHk8ZwQAAB4QdVTs3LlTP/jBD7Rq1SpVV1fryJEj+vjjj1VdXc3nVAAAgOivqejZs6cGDRqkBx54QKNHj1ZKSorKysqUkZGh0aNHx3NGAADgAVFHRVpamh566CE9+eSTeuuttxpPgzzwwAMaMGBAPGcEAAAeENPdH507d9bs2bPjNQsAAPAwPjQCAACYICoAAIAJogIAAJggKgAAgAmiAgAAmCAqAACACaICAACYICoAAIAJogIAAJggKgAAgAmiAgAAmCAqAACACaICAACYICoAAIAJogIAAJggKgAAgAmiAgAAmCAqAACACaICAACYICoAAIAJogIAAJggKgAAgAmiAgAAmCAqAACACaICAACYICoAAIAJogIAAJggKgAAgAmiAgAAmCAqAACACaICAACYICoAAIAJogIAAJggKgAAgAmiAgAAmCAqAACACaICAACYICoAAICJ5FgWDgaD2rlzp6qqqhQOh5WamqrOnTsrOzs7XvMBAACPiCkq1q1bp0ceeUR79uxRMBhU69atddlll+nGG29USkpKvGYEAAAeEPXpj3A4rDvvvFORSESLFy/W888/r7Fjx+pnP/uZtm3bFs8ZAQCAB0QdFXV1dRoyZIjmzp2r3r17Kz8/X1OmTJHP59OHH3540vUqKioavw4dOqRIJGIyOAAAaF6iPv2Rnp6uX/7yl42PI5GI1q5dq4yMDPXs2fOk6y1evFj19fWSpHfffVfOuVMYFwAANFcxXVNxVENDgzZt2qS7775bP/jBDzRgwICTLpuWlqaDBw9KkkKhkAKBQNMmBQAAzZrPxXjooKamRm+//bb++7//WwMHDtTcuXPVunXrqNadM2eOSktLVVJS0qRhAQBA8xXTkYqamhq98MILWrx4sSZPnqypU6fK5/PFazYAAOAhUUdFJBLRK6+8onvvvVf333+/LrnkEgWDQUlSUlKSkpKS4jYkAABo/qKOigMHDmjWrFm68MIL5ZzTypUrG/+sa9euKioqisuAAADAG6KOip07d6pjx4768MMPNXfu3GP+bOzYsUQFAABfc1FHxcCBA/Xee+/FcxYAAOBh/EIxAABggqgAAAAmiAoAAGCCqAAAACaICgAAYIKoAAAAJogKAABggqgAAAAmiAoAAGCCqAAAACaICgAAYIKoAAAAJogKAABggqgAAAAmiAoAAGCCqAAAACaICgAAYIKoAAAAJogKAABggqgAAAAmiAoAAGCCqAAAACaICgAAYIKoAAAAJogKAABggqgAAAAmiAoAAGCCqAAAACaICgAAYIKoAAAAJogKAABggqgAAAAmiAoAAGCCqAAAACaICgAAYIKoAAAAJogKAABgIuaoCAaDqqio0Pbt2xUKheIxEwAA8KCYoqKmpkZr1qzR5MmT1bNnT33++efxmgsAAHhMTFGxcuVKzZgxQ0VFRfGaBwAAeFRMUZGcnKzf/e53GjNmTNTr7Nu3TxUVFaqoqNChQ4fknIt5SAAA0Pwlx7LwqFGjJEk7d+6Mep077rhDFRUVkqTy8nLl5OTE8pIAAMAjYoqKpigqKmo8XfLqq6/qiy++iPdLAgCABIh7VEyfPr3x+wMHDqi0tDTeLwkAABKAz6kAAAAmYjpSEQ6H5ZxTOBxufBwKheT3++X30ycAAHydxRQVGzduVF1dnbZu3SpJ2rBhg9q1a6e8vDydddZZcRkQAAB4Q0xRMXPmzMY7PwoKCnTbbbdJkq688krNmzfPfjoAAOAZMUVFSUlJvOYAAAAex4UQAADABFEBAABMEBUAAMAEUQEAAEwQFQAAwARRAQAATBAVAADABFEBAABMEBUAAMAEUQEAAEwQFQAAwARRAQAATBAVAADABFEBAABMEBUAAMAEUQEAAEwQFQAAwARRAQAATBAVAADABFEBAABMEBUAAMAEUQEAAEwQFQAAwARRAQAATBAVAADABFEBAABMEBUAAMAEUQEAAEwQFQAAwARRAQAATBAVAADABFEBAABMEBUAAMAEUQEAAEwQFQAAwARRAQAATBAVAADABFEBAABMEBUAAMAEUQEAAEwkn84X8/l8CofDqqqqOp0vCwAAToPTGhUZGRnatGmTunbtejpf1lRtba2SkpLUunXrRI9ySlrCdlRXVys1NVXJyaf1n7E5r29HKBTSkSNHlJmZmehRTklL2I76+nqFw2GlpaUlepRT0hK24+v6Hnta38Wqq6t11lln6cEHHzydL2vqlltu0TnnnKPrrrsu0aOckpawHf/+7/+u+fPna8CAAYke5ZR4fTvef/993XLLLfrjH/+Y6FFOSUvYjuLiYm3cuFGLFi1K9CinpCVsx9f1Pfa0/69RZmamzj///NP9smaysrLUtWtXT2+D1HK2o6ioyPPbIHl7O0KhkCR5dv6jWsJ2vPnmm/r00089vQ1Sy9iOr+t77Gm9UDMQCHj6UJAktW7dWoFAINFjnLKWsB1paWny+71/rbHXt8Pv93v6MPVRLWE7WsJ7rNQytuPr+h6b9Itf/OIX8RnneG3btlX//v1VUFBwul7SXMeOHTVw4EDl5eUlepRT0hK2o1u3bvrmN7+pjIyMRI9ySry+HSkpKerXr5+KiooSPcopaQnb0RLeY6WWsR1f1/dYn3POxXEmAADwNeHdY64AAKBZISoAAIAJogIAAJiI6ZZS55zq6+sVCoXknFNSUpJSUlI8feV6rMLhsOrq6iRJ6enpCZ6maSKRSOOHy0hq/IAWL/0cGxoaFAwGFYlE5PP5lJycrNatW8vn8yV6tCarra1VJBLx1AWb9fX1amhoOO75lJQUz135Hg6HG/+78Pl8nroDIRwOq7a29oR/FggElJKScponarr/+/7k9/vVqlUrT3043NF/S5FIRJI88/70Zfu3aPf/Me1FPvvsM02bNk29e/dWt27ddOmll2rt2rX6ulzrWV9fr5UrV6p///4aNGhQosdpEuec3nvvPf3nf/6nevTood69e+vyyy/XX//610SPFrVgMKhFixbpvPPOU7du3dS/f3/deOON2rdvX6JHa7K6ujpdcskl6tixY6JHickdd9yhdu3a6Ywzzjjm68UXX0z0aDGJRCL685//rO9+97s688wzVVRUpFmzZunIkSOJHi0q69atO+5nkJ+fr6ysLM2cOTPR48Vk8+bNGj9+vPr166cePXpo+PDheu655xojo7mLRCJ66623NHLkSPXo0UM9e/bUjTfeqAMHDiR6tC/1Vfu3qPf/LkqRSMSNGTPGnX322W7t2rXuk08+cbfccovLzc11+/fvj/av8bSf//znrl+/fm7s2LGuZ8+eiR6nSfbs2eM6dOjgpk6d6srLy93WrVvdZZdd5rp16+bC4XCix4vK0qVLXfv27d1LL73kKioq3KpVq1xhYaEbN25cokdrknA47ObPn+9yc3Ndenp6oseJyeTJk93IkSNdRUXFMV+HDx9O9Ggx+eCDD1zbtm3dggUL3N///ndXUlLievbs6ZYtW5bo0aJSX19/3M9gw4YNrn379u4Pf/hDoseLWiQScQUFBW7SpEnu4MGDLhgMumXLljm/3+/Wr1+f6PGism3bNpeenu5mzZrlduzY4crKyty5557rvv/977tIJJLo8U7qy/Zvsez/o46KiooK5/P53KpVqxqfC4fDrnPnzu6hhx46xc3xhkWLFrnq6mo3d+5cz0bF+vXr3fjx4119fX3jc++8847z+Xxux44dCZwseq+99ppbsWJF4+NwOOx+9rOfuX79+iVwqqbbsmWLa9++vZs/f77nomLs2LFuypQprra21tXU1Lja2lrX0NCQ6LFidsMNN7ixY8e6uro6d/jwYc9ux1GhUMiNHz/eTZo0KdGjxOTgwYMuKSnJvfLKK4074Pr6ehcIBNzjjz+e2OGitHDhQnfGGWccExDvvfeeS0pKcnv37k3gZF/uy/Zvsez/oz5JVVZWJr/fr29961uNzx19vH79+qYfc/GQ6dOnJ3qEUzZ48GCpHKECAAAGhElEQVQ9/fTTjY8jkYjKy8vVtm1b5ebmJnCy6H33u9+V9M/TIEeOHNGWLVu0fPlyXXHFFQmeLHYNDQ264YYbNGPGDPXp0yfR48SsqqpKNTU1Gjt2rMrLy5WXl6eJEydq8uTJnrqmorS0VN///vc1Y8YMlZaWqm3btrryyis1bdo0T23HUW+99ZZWrlypLVu2JHqUmLRp00YjRoxQcXGx+vXrpzZt2uiZZ55Rdna2hg8fnujxohKJRBQIBBQKhRQIBOScU15ensLhsN5//32NGDEi0SOe0Jft32LZ/0d9TcXnn3+ujIwMtWrV6pjnc3NztX///mj/GjQj4XBYH3zwgWbPnq27777bcx9RvHTpUnXq1EkjRozQqFGj9POf/zzRI8UkEonooYceUjAY1IwZMxI9TpOkp6crGAzqtttu08svv6wrr7xSt912m379618nerSYVFRUqLi4WOedd55efvll3XjjjZo9e7aKi4sTPVrMwuGwZs2apdtvv13t27dP9Dgxe/TRR1VRUaG+ffuqS5cuuvvuu7VkyRJ16tQp0aNF5dvf/rb279+vxYsXq7q6Wnv27NFdd92lpKQkVVZWJnq8Joll/x91VJzsqtVIJOKpuwbwT6FQSH/60580YsQITZ8+XTfffHOiR4rZ+PHjtWbNGi1dulTPP/+8br31Vk9dNPzBBx9owYIF+tWvfuWpK9v/1YoVK1RSUqIRI0aoT58+uvXWWzVx4kQ9+uijiR4tJqFQSKNHj9ZVV12lgoICXX311Zo0aZLn4kiSXn31VX388ceaOnVqokeJWX19vcaOHauePXvqk08+0WeffaYHH3xQkyZN0rvvvpvo8aIyYMAALV68WPfff7+6du2qIUOG6LzzzpOk43bKXhHL/j/qGsjPz9ehQ4eOuxp67969nrti/esuFAppyZIluvbaa/Xwww/rpz/9aaJHikl9fb2CwaCys7NVVFSkcePG6YEHHtCSJUs8cwdIJBLRD3/4Q910003q3r27jhw50nhr5pEjRxp/Y2Zz19DQ0Hjb3FE9e/bUnj17EjRR07Rv317Z2dnHPFdQUOC57ZCkJ598UmPHjlVmZmaiR4nZ6tWrVVZWpgULFigvL0+pqam66qqrNHjwYD3xxBOJHi8qzjlNmDBBO3fuVHl5uT799FNdfPHFikQi6tKlS6LHa5JY9v9RR8XgwYMVCAT09ttvKxKJyDmnw4cPa+3atZ7/1a7Rcv+8sLXx/4b/9XuviEQievjhh7Vw4UK98cYb+t73vue57ZgwYYJmz57deL/00X+Pfr+/2d8HflR5ebnKysr0P//zPyosLFRhYaF++MMf6vDhwyosLNSzzz6b6BG/Ul1dnW699VatWbOm8WcQCoW0ceNG9erVK9HjxWTo0KFavXq1gsGgnHMKh8Patm2b536hVUNDg1auXNlsz9t/laP/DTc0NDS+J4XDYTU0NHjm2pYDBw7oiSeeUF1dnbKzs+Wc029/+1vl5OTonHPOSfR4J/Vl+7eY9v+xXB16/fXXu969e7uSkhK3adMmd/XVV7tu3bq56urqWP4aTwoGg2779u1u+/bt7rbbbnMFBQWNjw8dOpTo8aK2efNm17p1a/fMM880zn/0yys/x4ceeshlZma64uJi9+GHH7q33nrLDRgwwF188cWJHi1qwWDwuFsAn3zySZeWluYqKipcTU1NokeMysiRI11RUZErLS115eXlbtGiRS4tLc299NJLiR4tJmvWrHFpaWnunnvucR9//LF75plnXJs2bdz//u//Jnq0mPztb39zkty2bdsSPUqTVFdXu+7du7vx48e7Xbt2uYMHD7qnn37apaamujfeeCPR40WlqqrKtWvXzs2cOdPt2LHDrVixwnXo0MEtWLAg0aOdVDT7t2j3/zFFxeHDh93NN9/szjjjDJedne0uvfRSt3XrVrsta8YqKipcamrqCb9+85vfJHq8qP3yl7886Xb89re/TfR4UVu0aJE755xzXHZ2tisoKHBTp05t1rdrReOPf/yjy83NTfQYMTlw4ICbNm2aO/PMM11ubq4bMmSIe+GFFxI9VpMsX77cDRw40LVt29b179/fLVmyJNEjxeyNN95wqamprrKyMtGjNNnWrVvd5Zdf7jp37uw6dOjgzj33XPfcc88leqyYvPnmm+5b3/qWa9u2rSssLHT33Xdfs/6Mimj2b9Hu//nV5wAAwAS3bQAAABP/DwvmVLfy6OiQAAAAAElFTkSuQmCC;" vertex="1" parent="1">
                    <mxGeometry x="20" y="610" width="317.14" height="310" as="geometry"/>
                </mxCell>
                <mxCell id="50" value="" style="endArrow=none;dashed=1;html=1;exitX=0.056;exitY=0.192;exitDx=0;exitDy=0;exitPerimeter=0;fillColor=#bac8d3;strokeColor=#23445d;" edge="1" parent="1">
                    <mxGeometry width="50" height="50" relative="1" as="geometry">
                        <mxPoint x="35.21983999999998" y="849.31" as="sourcePoint"/>
                        <mxPoint x="340" y="849" as="targetPoint"/>
                    </mxGeometry>
                </mxCell>
                <mxCell id="51" value="1" style="ellipse;whiteSpace=wrap;html=1;aspect=fixed;fillColor=#e51400;fontColor=#ffffff;strokeColor=#000000;gradientColor=none;" vertex="1" parent="1">
                    <mxGeometry x="116.5" y="871" width="15" height="15" as="geometry"/>
                </mxCell>
                <mxCell id="52" value="(3, 1)" style="text;html=1;align=center;verticalAlign=middle;resizable=0;points=[];autosize=1;fontColor=#000000;fontSize=10;" vertex="1" parent="1">
                    <mxGeometry x="104" y="851" width="40" height="20" as="geometry"/>
                </mxCell>
                <mxCell id="53" value="1" style="ellipse;whiteSpace=wrap;html=1;aspect=fixed;fillColor=#008a00;fontColor=#ffffff;strokeColor=#005700;" vertex="1" parent="1">
                    <mxGeometry x="114.5" y="723" width="15" height="15" as="geometry"/>
                </mxCell>
                <mxCell id="54" value="(3, 6)" style="text;html=1;align=center;verticalAlign=middle;resizable=0;points=[];autosize=1;fontColor=#000000;fontSize=10;" vertex="1" parent="1">
                    <mxGeometry x="102" y="703" width="40" height="20" as="geometry"/>
                </mxCell>
                <mxCell id="55" value="1" style="ellipse;whiteSpace=wrap;html=1;aspect=fixed;fillColor=#008a00;fontColor=#ffffff;strokeColor=#005700;" vertex="1" parent="1">
                    <mxGeometry x="144" y="723" width="15" height="15" as="geometry"/>
                </mxCell>
                <mxCell id="56" value="(4, 6)" style="text;html=1;align=center;verticalAlign=middle;resizable=0;points=[];autosize=1;fontColor=#000000;fontSize=10;" vertex="1" parent="1">
                    <mxGeometry x="131.5" y="703" width="40" height="20" as="geometry"/>
                </mxCell>
                <mxCell id="57" value="1" style="ellipse;whiteSpace=wrap;html=1;aspect=fixed;fillColor=#008a00;fontColor=#ffffff;strokeColor=#005700;" vertex="1" parent="1">
                    <mxGeometry x="144" y="753" width="15" height="15" as="geometry"/>
                </mxCell>
                <mxCell id="58" value="(4, 5)" style="text;html=1;align=center;verticalAlign=middle;resizable=0;points=[];autosize=1;fontColor=#000000;fontSize=10;" vertex="1" parent="1">
                    <mxGeometry x="131.5" y="768" width="40" height="20" as="geometry"/>
                </mxCell>
                <mxCell id="59" value="1" style="ellipse;whiteSpace=wrap;html=1;aspect=fixed;fillColor=#008a00;fontColor=#ffffff;strokeColor=#005700;" vertex="1" parent="1">
                    <mxGeometry x="114" y="753" width="15" height="15" as="geometry"/>
                </mxCell>
                <mxCell id="60" value="(3, 5)" style="text;html=1;align=center;verticalAlign=middle;resizable=0;points=[];autosize=1;fontColor=#000000;fontSize=10;" vertex="1" parent="1">
                    <mxGeometry x="101.5" y="768" width="40" height="20" as="geometry"/>
                </mxCell>
                <mxCell id="61" value="1" style="ellipse;whiteSpace=wrap;html=1;aspect=fixed;fillColor=#008a00;fontColor=#ffffff;strokeColor=#005700;" vertex="1" parent="1">
                    <mxGeometry x="202.5" y="809" width="15" height="15" as="geometry"/>
                </mxCell>
                <mxCell id="62" value="(6, 3)" style="text;html=1;align=center;verticalAlign=middle;resizable=0;points=[];autosize=1;fontColor=#000000;fontSize=10;" vertex="1" parent="1">
                    <mxGeometry x="190" y="789" width="40" height="20" as="geometry"/>
                </mxCell>
                <mxCell id="63" value="" style="endArrow=none;dashed=1;html=1;exitX=0.75;exitY=0;exitDx=0;exitDy=0;fillColor=#bac8d3;strokeColor=#23445d;" edge="1" parent="1">
                    <mxGeometry width="50" height="50" relative="1" as="geometry">
                        <mxPoint x="180.85500000000002" y="610" as="sourcePoint"/>
                        <mxPoint x="183" y="850" as="targetPoint"/>
                    </mxGeometry>
                </mxCell>
                <mxCell id="64" value="" style="endArrow=none;dashed=1;html=1;exitX=0.056;exitY=0.192;exitDx=0;exitDy=0;exitPerimeter=0;fillColor=#bac8d3;strokeColor=#23445d;" edge="1" parent="1">
                    <mxGeometry width="50" height="50" relative="1" as="geometry">
                        <mxPoint x="38.21983999999998" y="746.31" as="sourcePoint"/>
                        <mxPoint x="180" y="746" as="targetPoint"/>
                    </mxGeometry>
                </mxCell>
                <mxCell id="65" value="" style="endArrow=none;dashed=1;html=1;exitX=0.75;exitY=0;exitDx=0;exitDy=0;fillColor=#bac8d3;strokeColor=#23445d;" edge="1" parent="1">
                    <mxGeometry width="50" height="50" relative="1" as="geometry">
                        <mxPoint x="136.85500000000002" y="610" as="sourcePoint"/>
                        <mxPoint x="139" y="750" as="targetPoint"/>
                    </mxGeometry>
                </mxCell>
                <mxCell id="66" value="" style="endArrow=none;dashed=1;html=1;exitX=0.75;exitY=0;exitDx=0;exitDy=0;fillColor=#bac8d3;strokeColor=#23445d;" edge="1" parent="1">
                    <mxGeometry width="50" height="50" relative="1" as="geometry">
                        <mxPoint x="134.85500000000002" y="746" as="sourcePoint"/>
                        <mxPoint x="137" y="850" as="targetPoint"/>
                    </mxGeometry>
                </mxCell>
                <mxCell id="67" value="" style="endArrow=none;html=1;fontSize=10;fontColor=#000000;labelBackgroundColor=#000000;strokeColor=#000000;" edge="1" parent="1">
                    <mxGeometry width="50" height="50" relative="1" as="geometry">
                        <mxPoint x="400" y="490" as="sourcePoint"/>
                        <mxPoint x="400" y="280" as="targetPoint"/>
                    </mxGeometry>
                </mxCell>
                <mxCell id="68" value="&lt;font&gt;Depth&lt;/font&gt;" style="text;html=1;align=center;verticalAlign=middle;resizable=0;points=[];autosize=1;strokeColor=none;fillColor=none;fontSize=10;fontColor=#000000;" vertex="1" parent="1">
                    <mxGeometry x="394" y="250" width="40" height="20" as="geometry"/>
                </mxCell>
                <mxCell id="69" value="0" style="text;html=1;align=center;verticalAlign=middle;resizable=0;points=[];autosize=1;strokeColor=none;fillColor=none;fontSize=10;fontColor=#000000;" vertex="1" parent="1">
                    <mxGeometry x="400" y="270" width="20" height="20" as="geometry"/>
                </mxCell>
                <mxCell id="70" value="1" style="text;html=1;align=center;verticalAlign=middle;resizable=0;points=[];autosize=1;strokeColor=none;fillColor=none;fontSize=10;fontColor=#000000;" vertex="1" parent="1">
                    <mxGeometry x="400" y="322.5" width="20" height="20" as="geometry"/>
                </mxCell>
                <mxCell id="71" value="2" style="text;html=1;align=center;verticalAlign=middle;resizable=0;points=[];autosize=1;strokeColor=none;fillColor=none;fontSize=10;fontColor=#000000;" vertex="1" parent="1">
                    <mxGeometry x="400" y="363" width="20" height="20" as="geometry"/>
                </mxCell>
                <mxCell id="72" value="3" style="text;html=1;align=center;verticalAlign=middle;resizable=0;points=[];autosize=1;strokeColor=none;fillColor=none;fontSize=10;fontColor=#000000;" vertex="1" parent="1">
                    <mxGeometry x="400" y="415.5" width="20" height="20" as="geometry"/>
                </mxCell>
                <mxCell id="73" value="4" style="text;html=1;align=center;verticalAlign=middle;resizable=0;points=[];autosize=1;strokeColor=none;fillColor=none;fontSize=10;fontColor=#000000;" vertex="1" parent="1">
                    <mxGeometry x="400" y="459.5" width="20" height="20" as="geometry"/>
                </mxCell>
                <mxCell id="74" value="&lt;font color=&quot;#000000&quot;&gt;X=5&lt;/font&gt;" style="rounded=1;whiteSpace=wrap;html=1;fontSize=10;strokeColor=#36393d;fillColor=#cdeb8b;" vertex="1" parent="1">
                    <mxGeometry x="540" y="265" width="50" height="25" as="geometry"/>
                </mxCell>
                <mxCell id="75" value="" style="endArrow=none;html=1;fontSize=10;fontColor=#000000;entryX=0.5;entryY=1;entryDx=0;entryDy=0;strokeColor=#000000;" edge="1" parent="1" target="74">
                    <mxGeometry width="50" height="50" relative="1" as="geometry">
                        <mxPoint x="600" y="320" as="sourcePoint"/>
                        <mxPoint x="640" y="320" as="targetPoint"/>
                    </mxGeometry>
                </mxCell>
                <mxCell id="76" value="1" style="ellipse;whiteSpace=wrap;html=1;aspect=fixed;fillColor=#008a00;fontColor=#ffffff;strokeColor=#005700;" vertex="1" parent="1">
                    <mxGeometry x="592.5" y="320" width="15" height="15" as="geometry"/>
                </mxCell>
                <mxCell id="77" value="(6, 3)" style="text;html=1;align=center;verticalAlign=middle;resizable=0;points=[];autosize=1;fontSize=10;fontColor=#000000;" vertex="1" parent="1">
                    <mxGeometry x="580" y="331" width="40" height="20" as="geometry"/>
                </mxCell>
                <mxCell id="79" value="" style="endArrow=none;html=1;fontSize=10;fontColor=#000000;entryX=0.5;entryY=1;entryDx=0;entryDy=0;strokeColor=#000000;exitX=0.5;exitY=0;exitDx=0;exitDy=0;" edge="1" parent="1" source="80" target="74">
                    <mxGeometry width="50" height="50" relative="1" as="geometry">
                        <mxPoint x="534" y="317" as="sourcePoint"/>
                        <mxPoint x="530" y="323" as="targetPoint"/>
                    </mxGeometry>
                </mxCell>
                <mxCell id="80" value="&lt;font color=&quot;#000000&quot;&gt;Y=2&lt;/font&gt;" style="rounded=1;whiteSpace=wrap;html=1;fontSize=10;strokeColor=#36393d;fillColor=#cdeb8b;" vertex="1" parent="1">
                    <mxGeometry x="506" y="320" width="50" height="25" as="geometry"/>
                </mxCell>
                <mxCell id="81" value="1" style="ellipse;whiteSpace=wrap;html=1;aspect=fixed;fillColor=#e51400;fontColor=#ffffff;strokeColor=#000000;gradientColor=none;" vertex="1" parent="1">
                    <mxGeometry x="483.5" y="365.5" width="15" height="15" as="geometry"/>
                </mxCell>
                <mxCell id="82" value="(3, 1)" style="text;html=1;align=center;verticalAlign=middle;resizable=0;points=[];autosize=1;fontColor=#000000;fontSize=10;" vertex="1" parent="1">
                    <mxGeometry x="471" y="378" width="40" height="20" as="geometry"/>
                </mxCell>
                <mxCell id="84" value="" style="endArrow=none;html=1;fontSize=10;fontColor=#000000;entryX=0.5;entryY=1;entryDx=0;entryDy=0;strokeColor=#000000;exitX=0.5;exitY=0;exitDx=0;exitDy=0;" edge="1" parent="1" source="81" target="80">
                    <mxGeometry width="50" height="50" relative="1" as="geometry">
                        <mxPoint x="541" y="330" as="sourcePoint"/>
                        <mxPoint x="575" y="300" as="targetPoint"/>
                    </mxGeometry>
                </mxCell>
                <mxCell id="85" value="" style="endArrow=none;html=1;fontSize=10;fontColor=#000000;strokeColor=#000000;exitX=0.5;exitY=1;exitDx=0;exitDy=0;entryX=0.5;entryY=0;entryDx=0;entryDy=0;" edge="1" parent="1" source="80" target="86">
                    <mxGeometry width="50" height="50" relative="1" as="geometry">
                        <mxPoint x="501" y="375.5" as="sourcePoint"/>
                        <mxPoint x="554" y="365" as="targetPoint"/>
                    </mxGeometry>
                </mxCell>
                <mxCell id="86" value="&lt;font color=&quot;#000000&quot;&gt;X=3.5&lt;/font&gt;" style="rounded=1;whiteSpace=wrap;html=1;fontSize=10;strokeColor=#36393d;fillColor=#cdeb8b;" vertex="1" parent="1">
                    <mxGeometry x="537" y="365.5" width="50" height="25" as="geometry"/>
                </mxCell>
                <mxCell id="87" value="" style="endArrow=none;html=1;fontSize=10;fontColor=#000000;strokeColor=#000000;exitX=0.5;exitY=1;exitDx=0;exitDy=0;" edge="1" parent="1" source="86">
                    <mxGeometry width="50" height="50" relative="1" as="geometry">
                        <mxPoint x="515.5" y="424.75" as="sourcePoint"/>
                        <mxPoint x="535" y="414" as="targetPoint"/>
                    </mxGeometry>
                </mxCell>
                <mxCell id="88" value="&lt;font color=&quot;#000000&quot;&gt;Y=5.5&lt;/font&gt;" style="rounded=1;whiteSpace=wrap;html=1;fontSize=10;strokeColor=#36393d;fillColor=#cdeb8b;" vertex="1" parent="1">
                    <mxGeometry x="513" y="413" width="50" height="25" as="geometry"/>
                </mxCell>
                <mxCell id="89" value="&lt;font color=&quot;#000000&quot;&gt;Y=5.6&lt;/font&gt;" style="rounded=1;whiteSpace=wrap;html=1;fontSize=10;strokeColor=#36393d;fillColor=#cdeb8b;" vertex="1" parent="1">
                    <mxGeometry x="575" y="413" width="50" height="25" as="geometry"/>
                </mxCell>
                <mxCell id="90" value="" style="endArrow=none;html=1;fontSize=10;fontColor=#000000;strokeColor=#000000;exitX=0.5;exitY=1;exitDx=0;exitDy=0;entryX=0.5;entryY=0;entryDx=0;entryDy=0;" edge="1" parent="1" source="86" target="89">
                    <mxGeometry width="50" height="50" relative="1" as="geometry">
                        <mxPoint x="572" y="400.5" as="sourcePoint"/>
                        <mxPoint x="545" y="424" as="targetPoint"/>
                    </mxGeometry>
                </mxCell>
                <mxCell id="92" value="" style="endArrow=none;dashed=1;html=1;fillColor=#bac8d3;strokeColor=#23445d;" edge="1" parent="1">
                    <mxGeometry width="50" height="50" relative="1" as="geometry">
                        <mxPoint x="139" y="413" as="sourcePoint"/>
                        <mxPoint x="182" y="413" as="targetPoint"/>
                    </mxGeometry>
                </mxCell>
                <mxCell id="93" value="1" style="ellipse;whiteSpace=wrap;html=1;aspect=fixed;fillColor=#008a00;fontColor=#ffffff;strokeColor=#005700;" vertex="1" parent="1">
                    <mxGeometry x="503.5" y="459.5" width="15" height="15" as="geometry"/>
                </mxCell>
                <mxCell id="94" value="(3, 6)" style="text;html=1;align=center;verticalAlign=middle;resizable=0;points=[];autosize=1;fontColor=#000000;fontSize=10;" vertex="1" parent="1">
                    <mxGeometry x="491" y="471.5" width="40" height="20" as="geometry"/>
                </mxCell>
                <mxCell id="96" value="" style="endArrow=none;html=1;fontSize=10;fontColor=#000000;strokeColor=#000000;exitX=0.5;exitY=1;exitDx=0;exitDy=0;entryX=0.5;entryY=0;entryDx=0;entryDy=0;" edge="1" parent="1" source="88" target="93">
                    <mxGeometry width="50" height="50" relative="1" as="geometry">
                        <mxPoint x="572" y="400.5" as="sourcePoint"/>
                        <mxPoint x="501" y="452" as="targetPoint"/>
                    </mxGeometry>
                </mxCell>
                <mxCell id="97" value="1" style="ellipse;whiteSpace=wrap;html=1;aspect=fixed;fillColor=#008a00;fontColor=#ffffff;strokeColor=#005700;" vertex="1" parent="1">
                    <mxGeometry x="538.5" y="459.5" width="15" height="15" as="geometry"/>
                </mxCell>
                <mxCell id="98" value="(3, 5)" style="text;html=1;align=center;verticalAlign=middle;resizable=0;points=[];autosize=1;fontColor=#000000;fontSize=10;" vertex="1" parent="1">
                    <mxGeometry x="530" y="473.5" width="33" height="16" as="geometry"/>
                </mxCell>
                <mxCell id="99" value="" style="endArrow=none;html=1;fontSize=10;fontColor=#000000;strokeColor=#000000;exitX=0.5;exitY=1;exitDx=0;exitDy=0;entryX=0.5;entryY=0;entryDx=0;entryDy=0;" edge="1" parent="1" source="88" target="97">
                    <mxGeometry width="50" height="50" relative="1" as="geometry">
                        <mxPoint x="548" y="448" as="sourcePoint"/>
                        <mxPoint x="513.5" y="472" as="targetPoint"/>
                    </mxGeometry>
                </mxCell>
                <mxCell id="109" value="1" style="ellipse;whiteSpace=wrap;html=1;aspect=fixed;fillColor=#008a00;fontColor=#ffffff;strokeColor=#005700;" vertex="1" parent="1">
                    <mxGeometry x="573.5" y="459.5" width="15" height="15" as="geometry"/>
                </mxCell>
                <mxCell id="110" value="(4,6)" style="text;html=1;align=center;verticalAlign=middle;resizable=0;points=[];autosize=1;fontColor=#000000;fontSize=10;" vertex="1" parent="1">
                    <mxGeometry x="566" y="473.5" width="30" height="16" as="geometry"/>
                </mxCell>
                <mxCell id="111" value="" style="endArrow=none;html=1;fontSize=10;fontColor=#000000;strokeColor=#000000;exitX=0.5;exitY=1;exitDx=0;exitDy=0;" edge="1" parent="1" source="89">
                    <mxGeometry width="50" height="50" relative="1" as="geometry">
                        <mxPoint x="608" y="438" as="sourcePoint"/>
                        <mxPoint x="581" y="460" as="targetPoint"/>
                    </mxGeometry>
                </mxCell>
                <mxCell id="112" value="1" style="ellipse;whiteSpace=wrap;html=1;aspect=fixed;fillColor=#008a00;fontColor=#ffffff;strokeColor=#005700;" vertex="1" parent="1">
                    <mxGeometry x="608.5" y="459.5" width="15" height="15" as="geometry"/>
                </mxCell>
                <mxCell id="113" value="(4, 5)" style="text;html=1;align=center;verticalAlign=middle;resizable=0;points=[];autosize=1;fontColor=#000000;fontSize=10;" vertex="1" parent="1">
                    <mxGeometry x="600" y="473.5" width="33" height="16" as="geometry"/>
                </mxCell>
                <mxCell id="114" value="" style="endArrow=none;html=1;fontSize=10;fontColor=#000000;strokeColor=#000000;exitX=0.5;exitY=1;exitDx=0;exitDy=0;" edge="1" parent="1">
                    <mxGeometry width="50" height="50" relative="1" as="geometry">
                        <mxPoint x="608" y="438" as="sourcePoint"/>
                        <mxPoint x="616" y="462" as="targetPoint"/>
                    </mxGeometry>
                </mxCell>
                <mxCell id="115" value="" style="endArrow=none;html=1;fontSize=10;fontColor=#000000;labelBackgroundColor=#000000;strokeColor=#000000;" edge="1" parent="1">
                    <mxGeometry width="50" height="50" relative="1" as="geometry">
                        <mxPoint x="420" y="859" as="sourcePoint"/>
                        <mxPoint x="420" y="649" as="targetPoint"/>
                    </mxGeometry>
                </mxCell>
                <mxCell id="116" value="&lt;font&gt;Depth&lt;/font&gt;" style="text;html=1;align=center;verticalAlign=middle;resizable=0;points=[];autosize=1;strokeColor=none;fillColor=none;fontSize=10;fontColor=#000000;" vertex="1" parent="1">
                    <mxGeometry x="414" y="619" width="40" height="20" as="geometry"/>
                </mxCell>
                <mxCell id="117" value="0" style="text;html=1;align=center;verticalAlign=middle;resizable=0;points=[];autosize=1;strokeColor=none;fillColor=none;fontSize=10;fontColor=#000000;" vertex="1" parent="1">
                    <mxGeometry x="420" y="639" width="20" height="20" as="geometry"/>
                </mxCell>
                <mxCell id="118" value="1" style="text;html=1;align=center;verticalAlign=middle;resizable=0;points=[];autosize=1;strokeColor=none;fillColor=none;fontSize=10;fontColor=#000000;" vertex="1" parent="1">
                    <mxGeometry x="420" y="691.5" width="20" height="20" as="geometry"/>
                </mxCell>
                <mxCell id="119" value="2" style="text;html=1;align=center;verticalAlign=middle;resizable=0;points=[];autosize=1;strokeColor=none;fillColor=none;fontSize=10;fontColor=#000000;" vertex="1" parent="1">
                    <mxGeometry x="420" y="732" width="20" height="20" as="geometry"/>
                </mxCell>
                <mxCell id="120" value="3" style="text;html=1;align=center;verticalAlign=middle;resizable=0;points=[];autosize=1;strokeColor=none;fillColor=none;fontSize=10;fontColor=#000000;" vertex="1" parent="1">
                    <mxGeometry x="420" y="784.5" width="20" height="20" as="geometry"/>
                </mxCell>
                <mxCell id="121" value="4" style="text;html=1;align=center;verticalAlign=middle;resizable=0;points=[];autosize=1;strokeColor=none;fillColor=none;fontSize=10;fontColor=#000000;" vertex="1" parent="1">
                    <mxGeometry x="420" y="828.5" width="20" height="20" as="geometry"/>
                </mxCell>
                <mxCell id="122" value="&lt;font color=&quot;#000000&quot;&gt;Y=2&lt;/font&gt;" style="rounded=1;whiteSpace=wrap;html=1;fontSize=10;strokeColor=#36393d;fillColor=#cdeb8b;" vertex="1" parent="1">
                    <mxGeometry x="560" y="634" width="50" height="25" as="geometry"/>
                </mxCell>
                <mxCell id="123" value="" style="endArrow=none;html=1;fontSize=10;fontColor=#000000;entryX=0.5;entryY=1;entryDx=0;entryDy=0;strokeColor=#000000;" edge="1" parent="1" target="122">
                    <mxGeometry width="50" height="50" relative="1" as="geometry">
                        <mxPoint x="620.0000000000002" y="689" as="sourcePoint"/>
                        <mxPoint x="660" y="689" as="targetPoint"/>
                    </mxGeometry>
                </mxCell>
                <mxCell id="124" value="1" style="ellipse;whiteSpace=wrap;html=1;aspect=fixed;fillColor=#E51400;fontColor=#ffffff;strokeColor=#005700;" vertex="1" parent="1">
                    <mxGeometry x="612.5" y="689" width="15" height="15" as="geometry"/>
                </mxCell>
                <mxCell id="125" value="(3, 1)" style="text;html=1;align=center;verticalAlign=middle;resizable=0;points=[];autosize=1;fontSize=10;fontColor=#000000;" vertex="1" parent="1">
                    <mxGeometry x="604" y="702" width="33" height="16" as="geometry"/>
                </mxCell>
                <mxCell id="126" value="" style="endArrow=none;html=1;fontSize=10;fontColor=#000000;entryX=0.5;entryY=1;entryDx=0;entryDy=0;strokeColor=#000000;exitX=0.5;exitY=0;exitDx=0;exitDy=0;" edge="1" parent="1" source="127" target="122">
                    <mxGeometry width="50" height="50" relative="1" as="geometry">
                        <mxPoint x="554" y="686" as="sourcePoint"/>
                        <mxPoint x="550" y="692" as="targetPoint"/>
                    </mxGeometry>
                </mxCell>
                <mxCell id="127" value="&lt;font color=&quot;#000000&quot;&gt;X=5&lt;/font&gt;" style="rounded=1;whiteSpace=wrap;html=1;fontSize=10;strokeColor=#36393d;fillColor=#cdeb8b;" vertex="1" parent="1">
                    <mxGeometry x="526" y="689" width="50" height="25" as="geometry"/>
                </mxCell>
                <mxCell id="128" value="1" style="ellipse;whiteSpace=wrap;html=1;aspect=fixed;fillColor=#008A00;fontColor=#ffffff;strokeColor=#000000;gradientColor=none;" vertex="1" parent="1">
                    <mxGeometry x="503.5" y="734.5" width="15" height="15" as="geometry"/>
                </mxCell>
                <mxCell id="129" value="(6,3)" style="text;html=1;align=center;verticalAlign=middle;resizable=0;points=[];autosize=1;fontColor=#000000;fontSize=10;" vertex="1" parent="1">
                    <mxGeometry x="496" y="749" width="30" height="16" as="geometry"/>
                </mxCell>
                <mxCell id="130" value="" style="endArrow=none;html=1;fontSize=10;fontColor=#000000;entryX=0.5;entryY=1;entryDx=0;entryDy=0;strokeColor=#000000;exitX=0.5;exitY=0;exitDx=0;exitDy=0;" edge="1" parent="1" source="128" target="127">
                    <mxGeometry width="50" height="50" relative="1" as="geometry">
                        <mxPoint x="561" y="699" as="sourcePoint"/>
                        <mxPoint x="595" y="669" as="targetPoint"/>
                    </mxGeometry>
                </mxCell>
                <mxCell id="131" value="" style="endArrow=none;html=1;fontSize=10;fontColor=#000000;strokeColor=#000000;exitX=0.5;exitY=1;exitDx=0;exitDy=0;entryX=0.5;entryY=0;entryDx=0;entryDy=0;" edge="1" parent="1" source="127" target="132">
                    <mxGeometry width="50" height="50" relative="1" as="geometry">
                        <mxPoint x="521" y="744.5" as="sourcePoint"/>
                        <mxPoint x="574" y="734" as="targetPoint"/>
                    </mxGeometry>
                </mxCell>
                <mxCell id="132" value="&lt;font color=&quot;#000000&quot;&gt;Y=5.5&lt;/font&gt;" style="rounded=1;whiteSpace=wrap;html=1;fontSize=10;strokeColor=#36393d;fillColor=#cdeb8b;" vertex="1" parent="1">
                    <mxGeometry x="557" y="734.5" width="50" height="25" as="geometry"/>
                </mxCell>
                <mxCell id="133" value="" style="endArrow=none;html=1;fontSize=10;fontColor=#000000;strokeColor=#000000;exitX=0.5;exitY=1;exitDx=0;exitDy=0;" edge="1" parent="1" source="132">
                    <mxGeometry width="50" height="50" relative="1" as="geometry">
                        <mxPoint x="535.5" y="793.75" as="sourcePoint"/>
                        <mxPoint x="555.0000000000002" y="783" as="targetPoint"/>
                    </mxGeometry>
                </mxCell>
                <mxCell id="134" value="&lt;font color=&quot;#000000&quot;&gt;X=3.3&lt;/font&gt;" style="rounded=1;whiteSpace=wrap;html=1;fontSize=10;strokeColor=#36393d;fillColor=#cdeb8b;" vertex="1" parent="1">
                    <mxGeometry x="533" y="782" width="50" height="25" as="geometry"/>
                </mxCell>
                <mxCell id="135" value="&lt;font color=&quot;#000000&quot;&gt;X=3.6&lt;/font&gt;" style="rounded=1;whiteSpace=wrap;html=1;fontSize=10;strokeColor=#36393d;fillColor=#cdeb8b;" vertex="1" parent="1">
                    <mxGeometry x="595" y="782" width="50" height="25" as="geometry"/>
                </mxCell>
                <mxCell id="136" value="" style="endArrow=none;html=1;fontSize=10;fontColor=#000000;strokeColor=#000000;exitX=0.5;exitY=1;exitDx=0;exitDy=0;entryX=0.5;entryY=0;entryDx=0;entryDy=0;" edge="1" parent="1" source="132" target="135">
                    <mxGeometry width="50" height="50" relative="1" as="geometry">
                        <mxPoint x="592" y="769.5" as="sourcePoint"/>
                        <mxPoint x="565" y="793" as="targetPoint"/>
                    </mxGeometry>
                </mxCell>
                <mxCell id="137" value="1" style="ellipse;whiteSpace=wrap;html=1;aspect=fixed;fillColor=#008a00;fontColor=#ffffff;strokeColor=#005700;" vertex="1" parent="1">
                    <mxGeometry x="523.5" y="828.5" width="15" height="15" as="geometry"/>
                </mxCell>
                <mxCell id="138" value="(3, 5)" style="text;html=1;align=center;verticalAlign=middle;resizable=0;points=[];autosize=1;fontColor=#000000;fontSize=10;" vertex="1" parent="1">
                    <mxGeometry x="515" y="842.5" width="33" height="16" as="geometry"/>
                </mxCell>
                <mxCell id="139" value="" style="endArrow=none;html=1;fontSize=10;fontColor=#000000;strokeColor=#000000;exitX=0.5;exitY=1;exitDx=0;exitDy=0;entryX=0.5;entryY=0;entryDx=0;entryDy=0;" edge="1" parent="1" source="134" target="137">
                    <mxGeometry width="50" height="50" relative="1" as="geometry">
                        <mxPoint x="592" y="769.5" as="sourcePoint"/>
                        <mxPoint x="521" y="821" as="targetPoint"/>
                    </mxGeometry>
                </mxCell>
                <mxCell id="140" value="1" style="ellipse;whiteSpace=wrap;html=1;aspect=fixed;fillColor=#008a00;fontColor=#ffffff;strokeColor=#005700;" vertex="1" parent="1">
                    <mxGeometry x="558.5" y="828.5" width="15" height="15" as="geometry"/>
                </mxCell>
                <mxCell id="141" value="(4, 5)" style="text;html=1;align=center;verticalAlign=middle;resizable=0;points=[];autosize=1;fontColor=#000000;fontSize=10;" vertex="1" parent="1">
                    <mxGeometry x="550" y="842.5" width="33" height="16" as="geometry"/>
                </mxCell>
                <mxCell id="142" value="" style="endArrow=none;html=1;fontSize=10;fontColor=#000000;strokeColor=#000000;exitX=0.5;exitY=1;exitDx=0;exitDy=0;entryX=0.5;entryY=0;entryDx=0;entryDy=0;" edge="1" parent="1" source="134" target="140">
                    <mxGeometry width="50" height="50" relative="1" as="geometry">
                        <mxPoint x="568" y="817" as="sourcePoint"/>
                        <mxPoint x="533.5" y="841" as="targetPoint"/>
                    </mxGeometry>
                </mxCell>
                <mxCell id="143" value="1" style="ellipse;whiteSpace=wrap;html=1;aspect=fixed;fillColor=#008a00;fontColor=#ffffff;strokeColor=#005700;" vertex="1" parent="1">
                    <mxGeometry x="593.5" y="828.5" width="15" height="15" as="geometry"/>
                </mxCell>
                <mxCell id="144" value="(3,6)" style="text;html=1;align=center;verticalAlign=middle;resizable=0;points=[];autosize=1;fontColor=#000000;fontSize=10;" vertex="1" parent="1">
                    <mxGeometry x="586" y="842.5" width="30" height="16" as="geometry"/>
                </mxCell>
                <mxCell id="145" value="" style="endArrow=none;html=1;fontSize=10;fontColor=#000000;strokeColor=#000000;exitX=0.5;exitY=1;exitDx=0;exitDy=0;" edge="1" parent="1" source="135">
                    <mxGeometry width="50" height="50" relative="1" as="geometry">
                        <mxPoint x="628" y="807" as="sourcePoint"/>
                        <mxPoint x="601" y="829" as="targetPoint"/>
                    </mxGeometry>
                </mxCell>
                <mxCell id="146" value="1" style="ellipse;whiteSpace=wrap;html=1;aspect=fixed;fillColor=#008a00;fontColor=#ffffff;strokeColor=#005700;" vertex="1" parent="1">
                    <mxGeometry x="628.5" y="828.5" width="15" height="15" as="geometry"/>
                </mxCell>
                <mxCell id="147" value="(4, 6)" style="text;html=1;align=center;verticalAlign=middle;resizable=0;points=[];autosize=1;fontColor=#000000;fontSize=10;" vertex="1" parent="1">
                    <mxGeometry x="620" y="842.5" width="33" height="16" as="geometry"/>
                </mxCell>
                <mxCell id="148" value="" style="endArrow=none;html=1;fontSize=10;fontColor=#000000;strokeColor=#000000;exitX=0.5;exitY=1;exitDx=0;exitDy=0;" edge="1" parent="1">
                    <mxGeometry width="50" height="50" relative="1" as="geometry">
                        <mxPoint x="628" y="807" as="sourcePoint"/>
                        <mxPoint x="636" y="831" as="targetPoint"/>
                    </mxGeometry>
                </mxCell>
                <mxCell id="154" value="" style="shape=image;verticalLabelPosition=bottom;labelBackgroundColor=#ffffff;verticalAlign=top;aspect=fixed;imageAspect=0;image=data:image/png,iVBORw0KGgoAAAANSUhEUgAAAhUAAAIJCAYAAAAS8M+eAAAABHNCSVQICAgIfAhkiAAAIABJREFUeJzt3Xt0VPW5//HPTDKQKyEkECIFJBjuEbm0R9CjKLXFI+VylloUkCpCRUVtoZX2oBbpEhE8KksRTmtU9FStWovSqlhNKoIIDVLKRTFqoeGqIUJCSDKX7++PLvIrB9CZ8AyTHd+vtbJWZtibefYKzn67LxOfc87pNJkzZ45KS0tVUlJyul4SAACcJv5EDwAAAFqG46LCOaff/OY3GjBggO66667jVvj000913XXXqX///ho8eLB+/OMfq6qq6rQMCwAAmq/kf30QDAZ1/fXX64svvlB9fb327dt3zMJ1dXWaMGGCOnTooPnz5ysYDGrBggW69dZbtWzZstM6OAAAaF6OiYqGhgYVFhbqmmuu0aRJk45b+M0339TmzZtVVlamLl26yDmnzMxMXXbZZbrzzjt11llnnbbBAQBA83JMVKSmpuqmm25Sdna2kpKSjlt4zZo16tGjhwoKCuT3//PMydChQxUIBLRu3boTRsXDDz/c+P26detUX19vvQ0AAKAZOCYq/H6/srOzT7rw7t271bFjx8agkKRWrVqpffv22rVr1wnX2bRpU+OfffTRR8rJybGYGwAANDPJX73I/xcOh5WcfPwqfr9f4XD4hOvMmTNHwWBQkvTggw9qw4YNTRgTAAA0dzFFRW5urnbs2HHc85WVlSc9ApGfn9/4fVZWlnw+X4wjAgAAL4jpcyoGDRqkzZs3q7a2tvG5Dz74QFVVVfrmN79pPhwAAPCOY6Kirq5Oe/fu1d69e9XQ0KAjR440Pg6Hw7r00kvVpk0b/eQnP9Enn3yiLVu26Mc//rEuuOAC9enTJ1HbAAAAmoFjTn+8/vrr+slPfiJJ2rVrlzZt2qR3331XkvT2228rLy9PxcXFWrBggUaNGqXk5GT16tVLCxcuVKtWrU7/9AAAoNk4JiqGDRum3//+9ydcMCcnRz6fT+edd566d++u2tpa+Xw+ZWZmqmPHjqdlWAAA0HwdExVZWVnKysr60hVatWqlLl26xHUoAADgPfxCMQAAYIKoAAAAJogKAABggqgAAAAmiAoAAGCCqAAAACaICgAAYIKoAAAAJogKAABggqgAAAAmiAoAAGCCqAAAACaICgAAYIKoAAAAJogKAABggqgAAAAmiAoAAGCCqAAAACaICgAAYIKoAAAAJogKAABggqgAAAAmiAoAAGCCqAAAACaICgAAYIKoAAAAJogKAABggqgAAAAmiAoAAGCCqAAAACaICgAAYIKoAAAAJogKAABggqgAAAAmiAoAAGCCqAAAACaICgAAYCI5loX37t2rRx55RBs3btThw4fVv39/zZgxQ9/4xjfiNR8AAPCIqI9UhEIh3XzzzVq/fr0mTJigm266SXv27NG0adMUDAbjOSMAAPCAqI9UlJeX69VXX9ULL7ygCy+8UH6/X7169dKwYcP0zjvv6KKLLornnAAAoJmLOioOHjyo2tpa9erVS2lpaZKk3r17q02bNlqzZs1Jo+Kee+7Rnj17JEnr1q1TcnJMZ1wAAIBHRH36o6CgQO3atVNxcbHq6uoUDAb14osv6rPPPtOuXbtOul51dbUCgYACgYD8fr8ikYjJ4AAAoHmJ+rBBTk6O7rvvPi1dulSlpaVq3bq1zjnnHBUUFMg5d9L1pk2bdszjsrKypk8LAACaraijwu/364orrtCAAQP02WefKTU1VZ06ddIrr7yivLy8k67XpUuXxu+zsrLk93MXKwAALVHUURGJRFRWVqY+ffro7LPPlt/v1/bt27Vjxw4NGTIknjMCAAAPiOlIxaOPPqr27dvrjjvuUF1dne666y6dffbZGjp0aDxnBAAAHhDTuYjrrrtOH330kcaNG6drr71WkrRo0SJlZmbGZTgAAOAdMd3fOWzYMHXq1EmHDh2Sz+dTbm6uCgoK4jUbAADwkJiiIiUlRUVFRfGaBQAAeBi3YgAAABNEBQAAMEFUAAAAE0QFAAAwQVQAAAATRAUAADBBVAAAABNEBQAAMEFUAAAAE0QFAAAwQVQAAAATRAUAADBBVAAAABNEBQAAMEFUAAAAE0QFAAAwQVQAAAATRAUAADBBVAAAABNEBQAAMEFUAAAAE0QFAAAwQVQAAAATRAUAADBBVAAAABNEBQAAMEFUAAAAE0QFAAAwQVQAAAATRAUAADBBVAAAABNEBQAAMEFUAAAAE0QFAAAwQVQAAAATRAUAADBBVAAAABNEBQAAMJEcy8K7d+/WE088oW3btikYDOqMM87QFVdcoSFDhsRrPgAA4BExHam4/fbb9be//U1jxozR+PHjlZ6erh/96Ef6+OOP4zUfAADwiKijora2Vi+99JKGDx+uUaNGaeTIkbr++utVVlam999/P54zAgAAD4j69EcgEFD37t21bds21dbWKj09Xdu3b1fr1q3VrVu3k663aNEi7d+/X5K0atUqhUKhU58aAAA0OzFFxb333qt58+bpqquuUiAQUGVlpX7605+qT58+J11v165dqq2tlSTV1dXJ7+faUAAAWqKooyIcDuu1115TmzZtdPnllystLU3r169XSUmJxo0bpx49epxwvWuvvfaYx3/9619PbWIAANAsRR0VW7Zs0VNPPaVnn31WF1xwgQKBgIYMGaJRo0bp+eef13/913+dcL1evXo1fp+bm6ukpKRTnxoAADQ7UUfF559/rqqqKhUVFSklJUWS1LlzZ7Vp00Y7duyI24AAAMAbor7AobCwUDk5OVq2bJlqamoUDoe1evVqbdu2jc+pAAAA0R+pyM/P17x58/Taa69p06ZNcs4pEolo4sSJ+o//+I94zggAADwg6qhITk7WuHHj1K9fPx04cEDhcFgZGRkqLCxUXl5ePGcEAAAeENPHdGdmZnKqAwAAnBAfGgEAAEwQFQAAwARRAQAATBAVAADABFEBAABMEBUAAMAEUQEAAEwQFQAAwARRAQAATBAVAADABFEBAABMEBUAAMAEUQEAAEwQFQAAwARRAQAATBAVAADABFEBAABMEBUAAMAEUQEAAEwQFQAAwARRAQAATBAVAADABFEBAABMEBUAAMAEUQEAAEwQFQAAwARRAQAATBAVAADABFEBAABMEBUAAMAEUQEAAEwQFQAAwARRAQAATBAVAADABFEBAABMEBUAAMBEcrQLfvTRR7r33ntP+GcXXnihrrnmGrOhAACA90QdFWlpaerTp88xz9XW1mr+/PkaNGiQ+WAAAMBboo6K/Px83XDDDcc89+ijj2rgwIEaOXKk+WAAAMBboo4Kv9+v9PT0xsfbt2/XU089pblz56pLly5xGQ4AAHhH1FHxfy1atEh9+/bVJZdc8qXLFRcXa82aNZKkDRs2KC0trakvCQAAmrEmRcXmzZu1fPlyvfDCC0pNTf3SZcPhsLKzsyVJqampCofDTXlJAADQzDUpKp577jl169ZNAwcO/Mpl//V6C+ec1q1b15SXBAAAzVzMURGJRPTSSy/pmmuuUSAQ+Mrl8/PzG7/PzMxUUlJSrC8JAAA8IOYPv9q9e7c++ugjDR06NB7zAAAAj4o5Knbs2KGGhgadeeaZcRgHAAB4VcxR0bVrVy1dulS5ubnxmAcAAHhUzNdUfOMb39DUqVPjMQsAAPAwfqEYAAAwQVQAAAATRAUAADBBVAAAABNEBQAAMEFUAAAAE0QFAAAwQVQAAAATRAUAADBBVAAAABNEBQAAMEFUAAAAE0QFAAAwQVQAAAATRAUAADBBVAAAABNEBQAAMEFUAAAAE0QFAAAwQVQAAAATRAUAADBBVAAAABNEBQAAMEFUAAAAE0QFAAAwQVQAAAATRAUAADBBVAAAABNEBQAAMEFUAAAAE0QFAAAwQVQAAAATRAUAADBBVAAAABNEBQAAMEFUAAAAE0QFAAAwQVQAAAATybGusH79epWUlOiLL75Qdna2LrroIg0ePDgeswEAAA+J6UjFpk2bNG/ePFVUVCg5OVnbt2/XPffco/3798drPgAA4BExHal45JFH5Pf7ddNNNyk/P1+ffvqpSktLlZSUFK/5AACAR0QdFYcPH9bvfvc7zZ8/X++++6727dundu3aadSoUcrJyYnnjAAAwAOijordu3fr888/14YNG9S5c2cFg0GtXr1ab7/9tu6//3516NDhhOs9//zzKisrkyS988478vl8NpMDAIBmJeqoqKqqkiSlpqZq3LhxyszM1KZNm3T11Vfr9ddf18SJE0+43t69e3XgwAFJUl1dnQKBgMHYAACguYn6Qs3U1FRJ0sUXX6yuXbuqXbt2GjZsmAoLC7V69eqTrjd69GjNnj1bs2fP1gUXXKDk5JhvOAEAAB4Q9R6+U6dOSk9PP+5Oj3A4/KUXanbp0qXx+6ysLKICAIAWKuojFdnZ2frOd76jZ555Rtu2bdOhQ4f0pz/9SeXl5br44ovjOSMAAPCAqA8b+Hw+zZw5U/fcc48WLlyotm3bas+ePRozZowuuuiieM4IAAA8IKZzEUOHDtWsWbP0/vvvq66uTkVFRbrooovUrl27eM0HAAA8IuYLHM4//3ydf/758ZgFAAB4GL9QDAAAmCAqAACACaICAACYICoAAIAJogIAAJggKgAAgAmiAgAAmCAqAACACaICAACYICoAAIAJogIAAJggKgAAgAmiAgAAmCAqAACACaICAACYICoAAIAJogIAAJggKgAAgAmiAgAAmCAqAACACaICAACYICoAAIAJogIAAJggKgAAgAmiAgAAmCAqAACACaICAACYICoAAIAJogIAAJggKgAAgAmiAgAAmCAqAACACaICAACYICoAAIAJogIAAJggKgAAgAmiAgAAmEiOZeGnnnpKe/bsOe75adOmKTMz02woAADgPTFFxcKFC5WVlaV+/fod83w4HDYdCgAAeE9MUXHgwAFNnTpVEyZMOOZ5jlIAAICYoqKqqkrV1dVavny5amtrlZOTo6FDhyorK+uk6/zjH/9o/P7gwYMKhUJNnxYAADRbUUdFfX29fD6ftmzZosrKStXV1amiokLvvPOO7rzzTuXk5JxwvZdfflmbN2+WJP3lL39RcnJMHQMAADwi6j28c04zZ85U9+7ddf755ysQCGjVqlWaPn26zj33XF111VUnXC83N1cZGRmSpFatWsnv54YTAABaIp9zzjV1ZeechgwZor59++qxxx77yuXnzJmj0tJSlZSUNPUlAQBAMxX1YYPKykq9/vrramhoOOb5pKQk+Xw+88EAAIC3RH36o6amRvPmzVN1dbWGDx8uv9+vdevW6ZNPPtHNN98czxkBAIAHRB0VHTp0UN++ffX0009r8+bNSkpK0tatW3XZZZdpxIgR8ZwRAAB4QNRRkZqaqtmzZ2vFihX6+9//rnA4rGHDhmnkyJHKzs6O54wAAMADYrq/Mz8/X1OmTInXLAAAwMO4vxMAAJggKgAAgAmiAgAAmCAqAACACaICAACYICoAAIAJogIAAJggKgAAgAmiAgAAmCAqAACACaICAACYICoAAIAJogIAAJggKgAAgAmiAgAAmCAqAACACaICAACYICoAAIAJogIAAJggKgAAgAmiAgAAmCAqAACACaICAACYICoAAIAJogIAAJggKgAAgAmiAgAAmCAqAACACaICAACYICoAAIAJogIAAJggKgAAgAmiAgAAmCAqAACACaICAACYICoAAIAJogIAAJggKgAAgIkmR8Xu3btVXFyszZs3W84DAAA8qklREQwGtXTpUt1www167bXXrGcCAAAe1KSoWLVqlV599VXl5eVZzwMAADwq5qjYvXu37rvvPk2YMCGqqNi7d2/jV01NjcLhcJMGBQAAzVtyLAsHg0H96le/UkpKiq699lotW7bsK9dZsWKFysvLJUlr165VKBRq2qQAAKBZiykqVq1apVdeeUVLlixRZmZmVOv4fD7t27dPklRTU6P09PTYpwQAAM1e1Kc/du/erYULF2r8+PEaPHhw1C8wefJkPf7443r88cc1ZswYBQKBJg0KAACat6ijYvny5Vq3bp0yMzP17LPP6tlnn1VVVZU2btyo5cuXx3NGAADgAVGf/qivr9d3vvMdrV69uvG5Q4cO6cMPP1RpaalGjx4dlwEBAIA3RB0VU6ZM0TXXXHPMcxs3btSoUaM0ffp088EAAIC3RB0V6enpx11kOWrUKA0ePFht27Y1HwwAAHhLTHd//F9z5syxmgMAAHgcv1AMAACYICoAAIAJogIAAJggKgAAgAmiAgAAmCAqAACACaICAACYICoAAIAJogIAAJggKgAAgAmiAgAAmCAqAACACaICAACYICoAAIAJogIAAJggKgAAgAmiAgAAmCAqAACACaICAACYICoAAIAJogIAAJggKgAAgAmiAgAAmCAqAACACaICAACYICoAAIAJogIAAJggKgAAgAmiAgAAmCAqAACACaICAACYICoAAIAJogIAAJggKgAAgAmiAgAAmCAqAACACaICAACYSI5l4cOHD2vr1q2qrKxUJBJRRkaGevTooY4dO8ZrPgAA4BFRR0UkEtGLL76o5cuXKxQKKRKJKBQKafDgwbr99tuVkZERzzkBAEAzF3VU1NfX67HHHtO3v/1tTZo0SSkpKfrDH/6gKVOmaOTIkfq3f/u3eM4JAACauaijIhQK6Uc/+pGGDx+uzMxMhUIhnXvuuUpOTlZ1dfVJ19u+fXvj90dPmwAAgJYn6qjIzMzUmDFjJEmvv/66Dh48qNLSUl1yySUaNGjQSdd77LHHdOTIEUnSe++9J7+fa0MBAGiJYrpQ86hHHnlElZWVSk5O1sSJExUIBE66bH5+vvbv3y9JatWqFUcqAABooXzOORfrSrt27dIXX3yhN998U/fff7+WLFmiSy+99CvXmzNnjkpLS1VSUtKkYQEAQPMV9bmIyspKlZSUqKGhQZ06dVLfvn11yy23qH379lq+fHk8ZwQAAB4QdVTs3LlTP/jBD7Rq1SpVV1fryJEj+vjjj1VdXc3nVAAAgOivqejZs6cGDRqkBx54QKNHj1ZKSorKysqUkZGh0aNHx3NGAADgAVFHRVpamh566CE9+eSTeuuttxpPgzzwwAMaMGBAPGcEAAAeENPdH507d9bs2bPjNQsAAPAwPjQCAACYICoAAIAJogIAAJggKgAAgAmiAgAAmCAqAACACaICAACYICoAAIAJogIAAJggKgAAgAmiAgAAmCAqAACACaICAACYICoAAIAJogIAAJggKgAAgAmiAgAAmCAqAACACaICAACYICoAAIAJogIAAJggKgAAgAmiAgAAmCAqAACACaICAACYICoAAIAJogIAAJggKgAAgAmiAgAAmCAqAACACaICAACYICoAAIAJogIAAJggKgAAgAmiAgAAmCAqAACACaICAACYICoAAICJ5FgWDgaD2rlzp6qqqhQOh5WamqrOnTsrOzs7XvMBAACPiCkq1q1bp0ceeUR79uxRMBhU69atddlll+nGG29USkpKvGYEAAAeEPXpj3A4rDvvvFORSESLFy/W888/r7Fjx+pnP/uZtm3bFs8ZAQCAB0QdFXV1dRoyZIjmzp2r3r17Kz8/X1OmTJHP59OHH3540vUqKioavw4dOqRIJGIyOAAAaF6iPv2Rnp6uX/7yl42PI5GI1q5dq4yMDPXs2fOk6y1evFj19fWSpHfffVfOuVMYFwAANFcxXVNxVENDgzZt2qS7775bP/jBDzRgwICTLpuWlqaDBw9KkkKhkAKBQNMmBQAAzZrPxXjooKamRm+//bb++7//WwMHDtTcuXPVunXrqNadM2eOSktLVVJS0qRhAQBA8xXTkYqamhq98MILWrx4sSZPnqypU6fK5/PFazYAAOAhUUdFJBLRK6+8onvvvVf333+/LrnkEgWDQUlSUlKSkpKS4jYkAABo/qKOigMHDmjWrFm68MIL5ZzTypUrG/+sa9euKioqisuAAADAG6KOip07d6pjx4768MMPNXfu3GP+bOzYsUQFAABfc1FHxcCBA/Xee+/FcxYAAOBh/EIxAABggqgAAAAmiAoAAGCCqAAAACaICgAAYIKoAAAAJogKAABggqgAAAAmiAoAAGCCqAAAACaICgAAYIKoAAAAJogKAABggqgAAAAmiAoAAGCCqAAAACaICgAAYIKoAAAAJogKAABggqgAAAAmiAoAAGCCqAAAACaICgAAYIKoAAAAJogKAABggqgAAAAmiAoAAGCCqAAAACaICgAAYIKoAAAAJogKAABggqgAAAAmiAoAAGCCqAAAACaICgAAYIKoAAAAJogKAABgIuaoCAaDqqio0Pbt2xUKheIxEwAA8KCYoqKmpkZr1qzR5MmT1bNnT33++efxmgsAAHhMTFGxcuVKzZgxQ0VFRfGaBwAAeFRMUZGcnKzf/e53GjNmTNTr7Nu3TxUVFaqoqNChQ4fknIt5SAAA0Pwlx7LwqFGjJEk7d+6Mep077rhDFRUVkqTy8nLl5OTE8pIAAMAjYoqKpigqKmo8XfLqq6/qiy++iPdLAgCABIh7VEyfPr3x+wMHDqi0tDTeLwkAABKAz6kAAAAmYjpSEQ6H5ZxTOBxufBwKheT3++X30ycAAHydxRQVGzduVF1dnbZu3SpJ2rBhg9q1a6e8vDydddZZcRkQAAB4Q0xRMXPmzMY7PwoKCnTbbbdJkq688krNmzfPfjoAAOAZMUVFSUlJvOYAAAAex4UQAADABFEBAABMEBUAAMAEUQEAAEwQFQAAwARRAQAATBAVAADABFEBAABMEBUAAMAEUQEAAEwQFQAAwARRAQAATBAVAADABFEBAABMEBUAAMAEUQEAAEwQFQAAwARRAQAATBAVAADABFEBAABMEBUAAMAEUQEAAEwQFQAAwARRAQAATBAVAADABFEBAABMEBUAAMAEUQEAAEwQFQAAwARRAQAATBAVAADABFEBAABMEBUAAMAEUQEAAEwQFQAAwARRAQAATBAVAADABFEBAABMEBUAAMAEUQEAAEwkn84X8/l8CofDqqqqOp0vCwAAToPTGhUZGRnatGmTunbtejpf1lRtba2SkpLUunXrRI9ySlrCdlRXVys1NVXJyaf1n7E5r29HKBTSkSNHlJmZmehRTklL2I76+nqFw2GlpaUlepRT0hK24+v6Hnta38Wqq6t11lln6cEHHzydL2vqlltu0TnnnKPrrrsu0aOckpawHf/+7/+u+fPna8CAAYke5ZR4fTvef/993XLLLfrjH/+Y6FFOSUvYjuLiYm3cuFGLFi1K9CinpCVsx9f1Pfa0/69RZmamzj///NP9smaysrLUtWtXT2+D1HK2o6ioyPPbIHl7O0KhkCR5dv6jWsJ2vPnmm/r00089vQ1Sy9iOr+t77Gm9UDMQCHj6UJAktW7dWoFAINFjnLKWsB1paWny+71/rbHXt8Pv93v6MPVRLWE7WsJ7rNQytuPr+h6b9Itf/OIX8RnneG3btlX//v1VUFBwul7SXMeOHTVw4EDl5eUlepRT0hK2o1u3bvrmN7+pjIyMRI9ySry+HSkpKerXr5+KiooSPcopaQnb0RLeY6WWsR1f1/dYn3POxXEmAADwNeHdY64AAKBZISoAAIAJogIAAJiI6ZZS55zq6+sVCoXknFNSUpJSUlI8feV6rMLhsOrq6iRJ6enpCZ6maSKRSOOHy0hq/IAWL/0cGxoaFAwGFYlE5PP5lJycrNatW8vn8yV6tCarra1VJBLx1AWb9fX1amhoOO75lJQUz135Hg6HG/+78Pl8nroDIRwOq7a29oR/FggElJKScponarr/+/7k9/vVqlUrT3043NF/S5FIRJI88/70Zfu3aPf/Me1FPvvsM02bNk29e/dWt27ddOmll2rt2rX6ulzrWV9fr5UrV6p///4aNGhQosdpEuec3nvvPf3nf/6nevTood69e+vyyy/XX//610SPFrVgMKhFixbpvPPOU7du3dS/f3/deOON2rdvX6JHa7K6ujpdcskl6tixY6JHickdd9yhdu3a6Ywzzjjm68UXX0z0aDGJRCL685//rO9+97s688wzVVRUpFmzZunIkSOJHi0q69atO+5nkJ+fr6ysLM2cOTPR48Vk8+bNGj9+vPr166cePXpo+PDheu655xojo7mLRCJ66623NHLkSPXo0UM9e/bUjTfeqAMHDiR6tC/1Vfu3qPf/LkqRSMSNGTPGnX322W7t2rXuk08+cbfccovLzc11+/fvj/av8bSf//znrl+/fm7s2LGuZ8+eiR6nSfbs2eM6dOjgpk6d6srLy93WrVvdZZdd5rp16+bC4XCix4vK0qVLXfv27d1LL73kKioq3KpVq1xhYaEbN25cokdrknA47ObPn+9yc3Ndenp6oseJyeTJk93IkSNdRUXFMV+HDx9O9Ggx+eCDD1zbtm3dggUL3N///ndXUlLievbs6ZYtW5bo0aJSX19/3M9gw4YNrn379u4Pf/hDoseLWiQScQUFBW7SpEnu4MGDLhgMumXLljm/3+/Wr1+f6PGism3bNpeenu5mzZrlduzY4crKyty5557rvv/977tIJJLo8U7qy/Zvsez/o46KiooK5/P53KpVqxqfC4fDrnPnzu6hhx46xc3xhkWLFrnq6mo3d+5cz0bF+vXr3fjx4119fX3jc++8847z+Xxux44dCZwseq+99ppbsWJF4+NwOOx+9rOfuX79+iVwqqbbsmWLa9++vZs/f77nomLs2LFuypQprra21tXU1Lja2lrX0NCQ6LFidsMNN7ixY8e6uro6d/jwYc9ux1GhUMiNHz/eTZo0KdGjxOTgwYMuKSnJvfLKK4074Pr6ehcIBNzjjz+e2OGitHDhQnfGGWccExDvvfeeS0pKcnv37k3gZF/uy/Zvsez/oz5JVVZWJr/fr29961uNzx19vH79+qYfc/GQ6dOnJ3qEUzZ48GCpHKECAAAGhElEQVQ9/fTTjY8jkYjKy8vVtm1b5ebmJnCy6H33u9+V9M/TIEeOHNGWLVu0fPlyXXHFFQmeLHYNDQ264YYbNGPGDPXp0yfR48SsqqpKNTU1Gjt2rMrLy5WXl6eJEydq8uTJnrqmorS0VN///vc1Y8YMlZaWqm3btrryyis1bdo0T23HUW+99ZZWrlypLVu2JHqUmLRp00YjRoxQcXGx+vXrpzZt2uiZZ55Rdna2hg8fnujxohKJRBQIBBQKhRQIBOScU15ensLhsN5//32NGDEi0SOe0Jft32LZ/0d9TcXnn3+ujIwMtWrV6pjnc3NztX///mj/GjQj4XBYH3zwgWbPnq27777bcx9RvHTpUnXq1EkjRozQqFGj9POf/zzRI8UkEonooYceUjAY1IwZMxI9TpOkp6crGAzqtttu08svv6wrr7xSt912m379618nerSYVFRUqLi4WOedd55efvll3XjjjZo9e7aKi4sTPVrMwuGwZs2apdtvv13t27dP9Dgxe/TRR1VRUaG+ffuqS5cuuvvuu7VkyRJ16tQp0aNF5dvf/rb279+vxYsXq7q6Wnv27NFdd92lpKQkVVZWJnq8Joll/x91VJzsqtVIJOKpuwbwT6FQSH/60580YsQITZ8+XTfffHOiR4rZ+PHjtWbNGi1dulTPP/+8br31Vk9dNPzBBx9owYIF+tWvfuWpK9v/1YoVK1RSUqIRI0aoT58+uvXWWzVx4kQ9+uijiR4tJqFQSKNHj9ZVV12lgoICXX311Zo0aZLn4kiSXn31VX388ceaOnVqokeJWX19vcaOHauePXvqk08+0WeffaYHH3xQkyZN0rvvvpvo8aIyYMAALV68WPfff7+6du2qIUOG6LzzzpOk43bKXhHL/j/qGsjPz9ehQ4eOuxp67969nrti/esuFAppyZIluvbaa/Xwww/rpz/9aaJHikl9fb2CwaCys7NVVFSkcePG6YEHHtCSJUs8cwdIJBLRD3/4Q910003q3r27jhw50nhr5pEjRxp/Y2Zz19DQ0Hjb3FE9e/bUnj17EjRR07Rv317Z2dnHPFdQUOC57ZCkJ598UmPHjlVmZmaiR4nZ6tWrVVZWpgULFigvL0+pqam66qqrNHjwYD3xxBOJHi8qzjlNmDBBO3fuVHl5uT799FNdfPHFikQi6tKlS6LHa5JY9v9RR8XgwYMVCAT09ttvKxKJyDmnw4cPa+3atZ7/1a7Rcv+8sLXx/4b/9XuviEQievjhh7Vw4UK98cYb+t73vue57ZgwYYJmz57deL/00X+Pfr+/2d8HflR5ebnKysr0P//zPyosLFRhYaF++MMf6vDhwyosLNSzzz6b6BG/Ul1dnW699VatWbOm8WcQCoW0ceNG9erVK9HjxWTo0KFavXq1gsGgnHMKh8Patm2b536hVUNDg1auXNlsz9t/laP/DTc0NDS+J4XDYTU0NHjm2pYDBw7oiSeeUF1dnbKzs+Wc029/+1vl5OTonHPOSfR4J/Vl+7eY9v+xXB16/fXXu969e7uSkhK3adMmd/XVV7tu3bq56urqWP4aTwoGg2779u1u+/bt7rbbbnMFBQWNjw8dOpTo8aK2efNm17p1a/fMM880zn/0yys/x4ceeshlZma64uJi9+GHH7q33nrLDRgwwF188cWJHi1qwWDwuFsAn3zySZeWluYqKipcTU1NokeMysiRI11RUZErLS115eXlbtGiRS4tLc299NJLiR4tJmvWrHFpaWnunnvucR9//LF75plnXJs2bdz//u//Jnq0mPztb39zkty2bdsSPUqTVFdXu+7du7vx48e7Xbt2uYMHD7qnn37apaamujfeeCPR40WlqqrKtWvXzs2cOdPt2LHDrVixwnXo0MEtWLAg0aOdVDT7t2j3/zFFxeHDh93NN9/szjjjDJedne0uvfRSt3XrVrsta8YqKipcamrqCb9+85vfJHq8qP3yl7886Xb89re/TfR4UVu0aJE755xzXHZ2tisoKHBTp05t1rdrReOPf/yjy83NTfQYMTlw4ICbNm2aO/PMM11ubq4bMmSIe+GFFxI9VpMsX77cDRw40LVt29b179/fLVmyJNEjxeyNN95wqamprrKyMtGjNNnWrVvd5Zdf7jp37uw6dOjgzj33XPfcc88leqyYvPnmm+5b3/qWa9u2rSssLHT33Xdfs/6Mimj2b9Hu//nV5wAAwAS3bQAAABP/DwvmVLfy6OiQAAAAAElFTkSuQmCC;" vertex="1" parent="1">
                    <mxGeometry x="26" y="955" width="317.14" height="310" as="geometry"/>
                </mxCell>
                <mxCell id="155" value="" style="endArrow=none;dashed=1;html=1;exitX=0.056;exitY=0.192;exitDx=0;exitDy=0;exitPerimeter=0;fillColor=#bac8d3;strokeColor=#23445d;" edge="1" parent="1">
                    <mxGeometry width="50" height="50" relative="1" as="geometry">
                        <mxPoint x="41.21983999999998" y="1223.31" as="sourcePoint"/>
                        <mxPoint x="346" y="1223" as="targetPoint"/>
                    </mxGeometry>
                </mxCell>
                <mxCell id="156" value="1" style="ellipse;whiteSpace=wrap;html=1;aspect=fixed;fillColor=#e51400;fontColor=#ffffff;strokeColor=#000000;gradientColor=none;" vertex="1" parent="1">
                    <mxGeometry x="95.5" y="1243.5" width="14.5" height="14.5" as="geometry"/>
                </mxCell>
                <mxCell id="157" value="(2, 0)" style="text;html=1;align=center;verticalAlign=middle;resizable=0;points=[];autosize=1;fontColor=#000000;fontSize=10;" vertex="1" parent="1">
                    <mxGeometry x="86.5" y="1225" width="33" height="16" as="geometry"/>
                </mxCell>
                <mxCell id="158" value="1" style="ellipse;whiteSpace=wrap;html=1;aspect=fixed;fillColor=#008a00;fontColor=#ffffff;strokeColor=#005700;" vertex="1" parent="1">
                    <mxGeometry x="91.5" y="1069" width="15" height="15" as="geometry"/>
                </mxCell>
                <mxCell id="159" value="(2, 6)" style="text;html=1;align=center;verticalAlign=middle;resizable=0;points=[];autosize=1;fontColor=#000000;fontSize=10;" vertex="1" parent="1">
                    <mxGeometry x="83" y="1051" width="33" height="16" as="geometry"/>
                </mxCell>
                <mxCell id="160" value="1" style="ellipse;whiteSpace=wrap;html=1;aspect=fixed;fillColor=#008a00;fontColor=#ffffff;strokeColor=#005700;" vertex="1" parent="1">
                    <mxGeometry x="150" y="1068" width="15" height="15" as="geometry"/>
                </mxCell>
                <mxCell id="161" value="(4, 6)" style="text;html=1;align=center;verticalAlign=middle;resizable=0;points=[];autosize=1;fontColor=#000000;fontSize=10;" vertex="1" parent="1">
                    <mxGeometry x="137.5" y="1048" width="40" height="20" as="geometry"/>
                </mxCell>
                <mxCell id="162" value="1" style="ellipse;whiteSpace=wrap;html=1;aspect=fixed;fillColor=#008a00;fontColor=#ffffff;strokeColor=#005700;" vertex="1" parent="1">
                    <mxGeometry x="150" y="1128" width="15" height="15" as="geometry"/>
                </mxCell>
                <mxCell id="163" value="(4, 4)" style="text;html=1;align=center;verticalAlign=middle;resizable=0;points=[];autosize=1;fontColor=#000000;fontSize=10;" vertex="1" parent="1">
                    <mxGeometry x="141.5" y="1144" width="33" height="16" as="geometry"/>
                </mxCell>
                <mxCell id="164" value="1" style="ellipse;whiteSpace=wrap;html=1;aspect=fixed;fillColor=#008a00;fontColor=#ffffff;strokeColor=#005700;" vertex="1" parent="1">
                    <mxGeometry x="91" y="1128" width="15" height="15" as="geometry"/>
                </mxCell>
                <mxCell id="165" value="(2, 4)" style="text;html=1;align=center;verticalAlign=middle;resizable=0;points=[];autosize=1;fontColor=#000000;fontSize=10;" vertex="1" parent="1">
                    <mxGeometry x="82.5" y="1145" width="33" height="16" as="geometry"/>
                </mxCell>
                <mxCell id="166" value="1" style="ellipse;whiteSpace=wrap;html=1;aspect=fixed;fillColor=#008a00;fontColor=#ffffff;strokeColor=#005700;" vertex="1" parent="1">
                    <mxGeometry x="208.5" y="1187" width="15" height="15" as="geometry"/>
                </mxCell>
                <mxCell id="167" value="(6, 2)" style="text;html=1;align=center;verticalAlign=middle;resizable=0;points=[];autosize=1;fontColor=#000000;fontSize=10;" vertex="1" parent="1">
                    <mxGeometry x="200" y="1169" width="33" height="16" as="geometry"/>
                </mxCell>
                <mxCell id="168" value="" style="endArrow=none;dashed=1;html=1;exitX=0.75;exitY=0;exitDx=0;exitDy=0;fillColor=#bac8d3;strokeColor=#23445d;" edge="1" parent="1">
                    <mxGeometry width="50" height="50" relative="1" as="geometry">
                        <mxPoint x="186.85500000000002" y="955" as="sourcePoint"/>
                        <mxPoint x="188" y="1223" as="targetPoint"/>
                    </mxGeometry>
                </mxCell>
                <mxCell id="169" value="" style="endArrow=none;dashed=1;html=1;exitX=0.056;exitY=0.192;exitDx=0;exitDy=0;exitPerimeter=0;fillColor=#bac8d3;strokeColor=#23445d;" edge="1" parent="1">
                    <mxGeometry width="50" height="50" relative="1" as="geometry">
                        <mxPoint x="44.21983999999998" y="1113.31" as="sourcePoint"/>
                        <mxPoint x="186" y="1113" as="targetPoint"/>
                    </mxGeometry>
                </mxCell>
                <mxCell id="170" value="" style="endArrow=none;dashed=1;html=1;exitX=0.359;exitY=0.003;exitDx=0;exitDy=0;fillColor=#bac8d3;strokeColor=#23445d;exitPerimeter=0;" edge="1" parent="1" source="154">
                    <mxGeometry width="50" height="50" relative="1" as="geometry">
                        <mxPoint x="138.85500000000002" y="972" as="sourcePoint"/>
                        <mxPoint x="141" y="1112" as="targetPoint"/>
                    </mxGeometry>
                </mxCell>
                <mxCell id="172" value="" style="endArrow=none;html=1;fontSize=10;fontColor=#000000;labelBackgroundColor=#000000;strokeColor=#000000;" edge="1" parent="1">
                    <mxGeometry width="50" height="50" relative="1" as="geometry">
                        <mxPoint x="426" y="1204" as="sourcePoint"/>
                        <mxPoint x="426" y="994" as="targetPoint"/>
                    </mxGeometry>
                </mxCell>
                <mxCell id="173" value="&lt;font&gt;Depth&lt;/font&gt;" style="text;html=1;align=center;verticalAlign=middle;resizable=0;points=[];autosize=1;strokeColor=none;fillColor=none;fontSize=10;fontColor=#000000;" vertex="1" parent="1">
                    <mxGeometry x="420" y="964" width="40" height="20" as="geometry"/>
                </mxCell>
                <mxCell id="174" value="0" style="text;html=1;align=center;verticalAlign=middle;resizable=0;points=[];autosize=1;strokeColor=none;fillColor=none;fontSize=10;fontColor=#000000;" vertex="1" parent="1">
                    <mxGeometry x="426" y="984" width="20" height="20" as="geometry"/>
                </mxCell>
                <mxCell id="175" value="1" style="text;html=1;align=center;verticalAlign=middle;resizable=0;points=[];autosize=1;strokeColor=none;fillColor=none;fontSize=10;fontColor=#000000;" vertex="1" parent="1">
                    <mxGeometry x="426" y="1036.5" width="20" height="20" as="geometry"/>
                </mxCell>
                <mxCell id="176" value="2" style="text;html=1;align=center;verticalAlign=middle;resizable=0;points=[];autosize=1;strokeColor=none;fillColor=none;fontSize=10;fontColor=#000000;" vertex="1" parent="1">
                    <mxGeometry x="426" y="1077" width="20" height="20" as="geometry"/>
                </mxCell>
                <mxCell id="177" value="3" style="text;html=1;align=center;verticalAlign=middle;resizable=0;points=[];autosize=1;strokeColor=none;fillColor=none;fontSize=10;fontColor=#000000;" vertex="1" parent="1">
                    <mxGeometry x="426" y="1129.5" width="20" height="20" as="geometry"/>
                </mxCell>
                <mxCell id="178" value="4" style="text;html=1;align=center;verticalAlign=middle;resizable=0;points=[];autosize=1;strokeColor=none;fillColor=none;fontSize=10;fontColor=#000000;" vertex="1" parent="1">
                    <mxGeometry x="426" y="1173.5" width="20" height="20" as="geometry"/>
                </mxCell>
                <mxCell id="179" value="&lt;font color=&quot;#000000&quot;&gt;Y=1&lt;/font&gt;" style="rounded=1;whiteSpace=wrap;html=1;fontSize=10;strokeColor=#36393d;fillColor=#cdeb8b;" vertex="1" parent="1">
                    <mxGeometry x="566" y="979" width="50" height="25" as="geometry"/>
                </mxCell>
                <mxCell id="180" value="" style="endArrow=none;html=1;fontSize=10;fontColor=#000000;entryX=0.5;entryY=1;entryDx=0;entryDy=0;strokeColor=#000000;" edge="1" parent="1" target="179">
                    <mxGeometry width="50" height="50" relative="1" as="geometry">
                        <mxPoint x="626" y="1034" as="sourcePoint"/>
                        <mxPoint x="666" y="1034" as="targetPoint"/>
                    </mxGeometry>
                </mxCell>
                <mxCell id="181" value="1" style="ellipse;whiteSpace=wrap;html=1;aspect=fixed;fillColor=#E51400;fontColor=#ffffff;strokeColor=#005700;" vertex="1" parent="1">
                    <mxGeometry x="618.5" y="1034" width="15" height="15" as="geometry"/>
                </mxCell>
                <mxCell id="182" value="(2, 0)" style="text;html=1;align=center;verticalAlign=middle;resizable=0;points=[];autosize=1;fontSize=10;fontColor=#000000;" vertex="1" parent="1">
                    <mxGeometry x="610" y="1047" width="33" height="16" as="geometry"/>
                </mxCell>
                <mxCell id="183" value="" style="endArrow=none;html=1;fontSize=10;fontColor=#000000;entryX=0.5;entryY=1;entryDx=0;entryDy=0;strokeColor=#000000;exitX=0.5;exitY=0;exitDx=0;exitDy=0;" edge="1" parent="1" source="184" target="179">
                    <mxGeometry width="50" height="50" relative="1" as="geometry">
                        <mxPoint x="560" y="1031" as="sourcePoint"/>
                        <mxPoint x="556" y="1037" as="targetPoint"/>
                    </mxGeometry>
                </mxCell>
                <mxCell id="184" value="&lt;font color=&quot;#000000&quot;&gt;X=5&lt;/font&gt;" style="rounded=1;whiteSpace=wrap;html=1;fontSize=10;strokeColor=#36393d;fillColor=#cdeb8b;" vertex="1" parent="1">
                    <mxGeometry x="532" y="1034" width="50" height="25" as="geometry"/>
                </mxCell>
                <mxCell id="185" value="1" style="ellipse;whiteSpace=wrap;html=1;aspect=fixed;fillColor=#008A00;fontColor=#ffffff;strokeColor=#000000;gradientColor=none;" vertex="1" parent="1">
                    <mxGeometry x="509.5" y="1079.5" width="15" height="15" as="geometry"/>
                </mxCell>
                <mxCell id="186" value="(6,2)" style="text;html=1;align=center;verticalAlign=middle;resizable=0;points=[];autosize=1;fontColor=#000000;fontSize=10;" vertex="1" parent="1">
                    <mxGeometry x="502" y="1094" width="30" height="16" as="geometry"/>
                </mxCell>
                <mxCell id="187" value="" style="endArrow=none;html=1;fontSize=10;fontColor=#000000;entryX=0.5;entryY=1;entryDx=0;entryDy=0;strokeColor=#000000;exitX=0.5;exitY=0;exitDx=0;exitDy=0;" edge="1" parent="1" source="185" target="184">
                    <mxGeometry width="50" height="50" relative="1" as="geometry">
                        <mxPoint x="567" y="1044" as="sourcePoint"/>
                        <mxPoint x="601" y="1014" as="targetPoint"/>
                    </mxGeometry>
                </mxCell>
                <mxCell id="188" value="" style="endArrow=none;html=1;fontSize=10;fontColor=#000000;strokeColor=#000000;exitX=0.5;exitY=1;exitDx=0;exitDy=0;entryX=0.5;entryY=0;entryDx=0;entryDy=0;" edge="1" parent="1" source="184" target="189">
                    <mxGeometry width="50" height="50" relative="1" as="geometry">
                        <mxPoint x="527" y="1089.5" as="sourcePoint"/>
                        <mxPoint x="580" y="1079" as="targetPoint"/>
                    </mxGeometry>
                </mxCell>
                <mxCell id="189" value="&lt;font color=&quot;#000000&quot;&gt;Y=4.9&lt;/font&gt;" style="rounded=1;whiteSpace=wrap;html=1;fontSize=10;strokeColor=#36393d;fillColor=#cdeb8b;" vertex="1" parent="1">
                    <mxGeometry x="563" y="1079.5" width="50" height="25" as="geometry"/>
                </mxCell>
                <mxCell id="190" value="" style="endArrow=none;html=1;fontSize=10;fontColor=#000000;strokeColor=#000000;exitX=0.5;exitY=1;exitDx=0;exitDy=0;" edge="1" parent="1" source="189">
                    <mxGeometry width="50" height="50" relative="1" as="geometry">
                        <mxPoint x="541.5" y="1138.75" as="sourcePoint"/>
                        <mxPoint x="561" y="1128" as="targetPoint"/>
                    </mxGeometry>
                </mxCell>
                <mxCell id="191" value="&lt;font color=&quot;#000000&quot;&gt;X=3&lt;/font&gt;" style="rounded=1;whiteSpace=wrap;html=1;fontSize=10;strokeColor=#36393d;fillColor=#cdeb8b;" vertex="1" parent="1">
                    <mxGeometry x="539" y="1127" width="50" height="25" as="geometry"/>
                </mxCell>
                <mxCell id="192" value="&lt;font color=&quot;#000000&quot;&gt;X=3.5&lt;/font&gt;" style="rounded=1;whiteSpace=wrap;html=1;fontSize=10;strokeColor=#36393d;fillColor=#cdeb8b;" vertex="1" parent="1">
                    <mxGeometry x="601" y="1127" width="50" height="25" as="geometry"/>
                </mxCell>
                <mxCell id="193" value="" style="endArrow=none;html=1;fontSize=10;fontColor=#000000;strokeColor=#000000;exitX=0.5;exitY=1;exitDx=0;exitDy=0;entryX=0.5;entryY=0;entryDx=0;entryDy=0;" edge="1" parent="1" source="189" target="192">
                    <mxGeometry width="50" height="50" relative="1" as="geometry">
                        <mxPoint x="598" y="1114.5" as="sourcePoint"/>
                        <mxPoint x="571" y="1138" as="targetPoint"/>
                    </mxGeometry>
                </mxCell>
                <mxCell id="194" value="1" style="ellipse;whiteSpace=wrap;html=1;aspect=fixed;fillColor=#008a00;fontColor=#ffffff;strokeColor=#005700;" vertex="1" parent="1">
                    <mxGeometry x="529.5" y="1173.5" width="15" height="15" as="geometry"/>
                </mxCell>
                <mxCell id="195" value="(2, 4)" style="text;html=1;align=center;verticalAlign=middle;resizable=0;points=[];autosize=1;fontColor=#000000;fontSize=10;" vertex="1" parent="1">
                    <mxGeometry x="521" y="1187.5" width="33" height="16" as="geometry"/>
                </mxCell>
                <mxCell id="196" value="" style="endArrow=none;html=1;fontSize=10;fontColor=#000000;strokeColor=#000000;exitX=0.5;exitY=1;exitDx=0;exitDy=0;entryX=0.5;entryY=0;entryDx=0;entryDy=0;" edge="1" parent="1" source="191" target="194">
                    <mxGeometry width="50" height="50" relative="1" as="geometry">
                        <mxPoint x="598" y="1114.5" as="sourcePoint"/>
                        <mxPoint x="527" y="1166" as="targetPoint"/>
                    </mxGeometry>
                </mxCell>
                <mxCell id="197" value="1" style="ellipse;whiteSpace=wrap;html=1;aspect=fixed;fillColor=#008a00;fontColor=#ffffff;strokeColor=#005700;" vertex="1" parent="1">
                    <mxGeometry x="564.5" y="1173.5" width="15" height="15" as="geometry"/>
                </mxCell>
                <mxCell id="198" value="(4, 4)" style="text;html=1;align=center;verticalAlign=middle;resizable=0;points=[];autosize=1;fontColor=#000000;fontSize=10;" vertex="1" parent="1">
                    <mxGeometry x="556" y="1187.5" width="33" height="16" as="geometry"/>
                </mxCell>
                <mxCell id="199" value="" style="endArrow=none;html=1;fontSize=10;fontColor=#000000;strokeColor=#000000;exitX=0.5;exitY=1;exitDx=0;exitDy=0;entryX=0.5;entryY=0;entryDx=0;entryDy=0;" edge="1" parent="1" source="191" target="197">
                    <mxGeometry width="50" height="50" relative="1" as="geometry">
                        <mxPoint x="574" y="1162" as="sourcePoint"/>
                        <mxPoint x="539.5" y="1186" as="targetPoint"/>
                    </mxGeometry>
                </mxCell>
                <mxCell id="200" value="1" style="ellipse;whiteSpace=wrap;html=1;aspect=fixed;fillColor=#008a00;fontColor=#ffffff;strokeColor=#005700;" vertex="1" parent="1">
                    <mxGeometry x="599.5" y="1173.5" width="15" height="15" as="geometry"/>
                </mxCell>
                <mxCell id="201" value="(2,6)" style="text;html=1;align=center;verticalAlign=middle;resizable=0;points=[];autosize=1;fontColor=#000000;fontSize=10;" vertex="1" parent="1">
                    <mxGeometry x="592" y="1187.5" width="30" height="16" as="geometry"/>
                </mxCell>
                <mxCell id="202" value="" style="endArrow=none;html=1;fontSize=10;fontColor=#000000;strokeColor=#000000;exitX=0.5;exitY=1;exitDx=0;exitDy=0;" edge="1" parent="1" source="192">
                    <mxGeometry width="50" height="50" relative="1" as="geometry">
                        <mxPoint x="634" y="1152" as="sourcePoint"/>
                        <mxPoint x="607" y="1174" as="targetPoint"/>
                    </mxGeometry>
                </mxCell>
                <mxCell id="203" value="1" style="ellipse;whiteSpace=wrap;html=1;aspect=fixed;fillColor=#008a00;fontColor=#ffffff;strokeColor=#005700;" vertex="1" parent="1">
                    <mxGeometry x="634.5" y="1173.5" width="15" height="15" as="geometry"/>
                </mxCell>
                <mxCell id="204" value="(4, 6)" style="text;html=1;align=center;verticalAlign=middle;resizable=0;points=[];autosize=1;fontColor=#000000;fontSize=10;" vertex="1" parent="1">
                    <mxGeometry x="626" y="1187.5" width="33" height="16" as="geometry"/>
                </mxCell>
                <mxCell id="205" value="" style="endArrow=none;html=1;fontSize=10;fontColor=#000000;strokeColor=#000000;exitX=0.5;exitY=1;exitDx=0;exitDy=0;" edge="1" parent="1">
                    <mxGeometry width="50" height="50" relative="1" as="geometry">
                        <mxPoint x="634" y="1152" as="sourcePoint"/>
                        <mxPoint x="642" y="1176" as="targetPoint"/>
                    </mxGeometry>
                </mxCell>
                <mxCell id="210" value="" style="endArrow=none;dashed=1;html=1;fillColor=#bac8d3;strokeColor=#23445d;" edge="1" parent="1">
                    <mxGeometry width="50" height="50" relative="1" as="geometry">
                        <mxPoint x="129" y="1116" as="sourcePoint"/>
                        <mxPoint x="129" y="1224" as="targetPoint"/>
                    </mxGeometry>
                </mxCell>
                <mxCell id="318" value="" style="shape=image;verticalLabelPosition=bottom;labelBackgroundColor=#ffffff;verticalAlign=top;aspect=fixed;imageAspect=0;image=data:image/png,iVBORw0KGgoAAAANSUhEUgAAAhUAAAIJCAYAAAAS8M+eAAAABHNCSVQICAgIfAhkiAAAIABJREFUeJzt3Xt0VPW5//HPTDKQKyEkECIFJBjuEbm0R9CjKLXFI+VylloUkCpCRUVtoZX2oBbpEhE8KksRTmtU9FStWovSqlhNKoIIDVLKRTFqoeGqIUJCSDKX7++PLvIrB9CZ8AyTHd+vtbJWZtibefYKzn67LxOfc87pNJkzZ45KS0tVUlJyul4SAACcJv5EDwAAAFqG46LCOaff/OY3GjBggO66667jVvj000913XXXqX///ho8eLB+/OMfq6qq6rQMCwAAmq/kf30QDAZ1/fXX64svvlB9fb327dt3zMJ1dXWaMGGCOnTooPnz5ysYDGrBggW69dZbtWzZstM6OAAAaF6OiYqGhgYVFhbqmmuu0aRJk45b+M0339TmzZtVVlamLl26yDmnzMxMXXbZZbrzzjt11llnnbbBAQBA83JMVKSmpuqmm25Sdna2kpKSjlt4zZo16tGjhwoKCuT3//PMydChQxUIBLRu3boTRsXDDz/c+P26detUX19vvQ0AAKAZOCYq/H6/srOzT7rw7t271bFjx8agkKRWrVqpffv22rVr1wnX2bRpU+OfffTRR8rJybGYGwAANDPJX73I/xcOh5WcfPwqfr9f4XD4hOvMmTNHwWBQkvTggw9qw4YNTRgTAAA0dzFFRW5urnbs2HHc85WVlSc9ApGfn9/4fVZWlnw+X4wjAgAAL4jpcyoGDRqkzZs3q7a2tvG5Dz74QFVVVfrmN79pPhwAAPCOY6Kirq5Oe/fu1d69e9XQ0KAjR440Pg6Hw7r00kvVpk0b/eQnP9Enn3yiLVu26Mc//rEuuOAC9enTJ1HbAAAAmoFjTn+8/vrr+slPfiJJ2rVrlzZt2qR3331XkvT2228rLy9PxcXFWrBggUaNGqXk5GT16tVLCxcuVKtWrU7/9AAAoNk4JiqGDRum3//+9ydcMCcnRz6fT+edd566d++u2tpa+Xw+ZWZmqmPHjqdlWAAA0HwdExVZWVnKysr60hVatWqlLl26xHUoAADgPfxCMQAAYIKoAAAAJogKAABggqgAAAAmiAoAAGCCqAAAACaICgAAYIKoAAAAJogKAABggqgAAAAmiAoAAGCCqAAAACaICgAAYIKoAAAAJogKAABggqgAAAAmiAoAAGCCqAAAACaICgAAYIKoAAAAJogKAABggqgAAAAmiAoAAGCCqAAAACaICgAAYIKoAAAAJogKAABggqgAAAAmiAoAAGCCqAAAACaICgAAYIKoAAAAJogKAABggqgAAAAmiAoAAGCCqAAAACaICgAAYCI5loX37t2rRx55RBs3btThw4fVv39/zZgxQ9/4xjfiNR8AAPCIqI9UhEIh3XzzzVq/fr0mTJigm266SXv27NG0adMUDAbjOSMAAPCAqI9UlJeX69VXX9ULL7ygCy+8UH6/X7169dKwYcP0zjvv6KKLLornnAAAoJmLOioOHjyo2tpa9erVS2lpaZKk3r17q02bNlqzZs1Jo+Kee+7Rnj17JEnr1q1TcnJMZ1wAAIBHRH36o6CgQO3atVNxcbHq6uoUDAb14osv6rPPPtOuXbtOul51dbUCgYACgYD8fr8ikYjJ4AAAoHmJ+rBBTk6O7rvvPi1dulSlpaVq3bq1zjnnHBUUFMg5d9L1pk2bdszjsrKypk8LAACaraijwu/364orrtCAAQP02WefKTU1VZ06ddIrr7yivLy8k67XpUuXxu+zsrLk93MXKwAALVHUURGJRFRWVqY+ffro7LPPlt/v1/bt27Vjxw4NGTIknjMCAAAPiOlIxaOPPqr27dvrjjvuUF1dne666y6dffbZGjp0aDxnBAAAHhDTuYjrrrtOH330kcaNG6drr71WkrRo0SJlZmbGZTgAAOAdMd3fOWzYMHXq1EmHDh2Sz+dTbm6uCgoK4jUbAADwkJiiIiUlRUVFRfGaBQAAeBi3YgAAABNEBQAAMEFUAAAAE0QFAAAwQVQAAAATRAUAADBBVAAAABNEBQAAMEFUAAAAE0QFAAAwQVQAAAATRAUAADBBVAAAABNEBQAAMEFUAAAAE0QFAAAwQVQAAAATRAUAADBBVAAAABNEBQAAMEFUAAAAE0QFAAAwQVQAAAATRAUAADBBVAAAABNEBQAAMEFUAAAAE0QFAAAwQVQAAAATRAUAADBBVAAAABNEBQAAMEFUAAAAE0QFAAAwQVQAAAATRAUAADBBVAAAABNEBQAAMJEcy8K7d+/WE088oW3btikYDOqMM87QFVdcoSFDhsRrPgAA4BExHam4/fbb9be//U1jxozR+PHjlZ6erh/96Ef6+OOP4zUfAADwiKijora2Vi+99JKGDx+uUaNGaeTIkbr++utVVlam999/P54zAgAAD4j69EcgEFD37t21bds21dbWKj09Xdu3b1fr1q3VrVu3k663aNEi7d+/X5K0atUqhUKhU58aAAA0OzFFxb333qt58+bpqquuUiAQUGVlpX7605+qT58+J11v165dqq2tlSTV1dXJ7+faUAAAWqKooyIcDuu1115TmzZtdPnllystLU3r169XSUmJxo0bpx49epxwvWuvvfaYx3/9619PbWIAANAsRR0VW7Zs0VNPPaVnn31WF1xwgQKBgIYMGaJRo0bp+eef13/913+dcL1evXo1fp+bm6ukpKRTnxoAADQ7UUfF559/rqqqKhUVFSklJUWS1LlzZ7Vp00Y7duyI24AAAMAbor7AobCwUDk5OVq2bJlqamoUDoe1evVqbdu2jc+pAAAA0R+pyM/P17x58/Taa69p06ZNcs4pEolo4sSJ+o//+I94zggAADwg6qhITk7WuHHj1K9fPx04cEDhcFgZGRkqLCxUXl5ePGcEAAAeENPHdGdmZnKqAwAAnBAfGgEAAEwQFQAAwARRAQAATBAVAADABFEBAABMEBUAAMAEUQEAAEwQFQAAwARRAQAATBAVAADABFEBAABMEBUAAMAEUQEAAEwQFQAAwARRAQAATBAVAADABFEBAABMEBUAAMAEUQEAAEwQFQAAwARRAQAATBAVAADABFEBAABMEBUAAMAEUQEAAEwQFQAAwARRAQAATBAVAADABFEBAABMEBUAAMAEUQEAAEwQFQAAwARRAQAATBAVAADABFEBAABMEBUAAMBEcrQLfvTRR7r33ntP+GcXXnihrrnmGrOhAACA90QdFWlpaerTp88xz9XW1mr+/PkaNGiQ+WAAAMBboo6K/Px83XDDDcc89+ijj2rgwIEaOXKk+WAAAMBboo4Kv9+v9PT0xsfbt2/XU089pblz56pLly5xGQ4AAHhH1FHxfy1atEh9+/bVJZdc8qXLFRcXa82aNZKkDRs2KC0trakvCQAAmrEmRcXmzZu1fPlyvfDCC0pNTf3SZcPhsLKzsyVJqampCofDTXlJAADQzDUpKp577jl169ZNAwcO/Mpl//V6C+ec1q1b15SXBAAAzVzMURGJRPTSSy/pmmuuUSAQ+Mrl8/PzG7/PzMxUUlJSrC8JAAA8IOYPv9q9e7c++ugjDR06NB7zAAAAj4o5Knbs2KGGhgadeeaZcRgHAAB4VcxR0bVrVy1dulS5ubnxmAcAAHhUzNdUfOMb39DUqVPjMQsAAPAwfqEYAAAwQVQAAAATRAUAADBBVAAAABNEBQAAMEFUAAAAE0QFAAAwQVQAAAATRAUAADBBVAAAABNEBQAAMEFUAAAAE0QFAAAwQVQAAAATRAUAADBBVAAAABNEBQAAMEFUAAAAE0QFAAAwQVQAAAATRAUAADBBVAAAABNEBQAAMEFUAAAAE0QFAAAwQVQAAAATRAUAADBBVAAAABNEBQAAMEFUAAAAE0QFAAAwQVQAAAATRAUAADBBVAAAABNEBQAAMEFUAAAAE0QFAAAwQVQAAAATybGusH79epWUlOiLL75Qdna2LrroIg0ePDgeswEAAA+J6UjFpk2bNG/ePFVUVCg5OVnbt2/XPffco/3798drPgAA4BExHal45JFH5Pf7ddNNNyk/P1+ffvqpSktLlZSUFK/5AACAR0QdFYcPH9bvfvc7zZ8/X++++6727dundu3aadSoUcrJyYnnjAAAwAOijordu3fr888/14YNG9S5c2cFg0GtXr1ab7/9tu6//3516NDhhOs9//zzKisrkyS988478vl8NpMDAIBmJeqoqKqqkiSlpqZq3LhxyszM1KZNm3T11Vfr9ddf18SJE0+43t69e3XgwAFJUl1dnQKBgMHYAACguYn6Qs3U1FRJ0sUXX6yuXbuqXbt2GjZsmAoLC7V69eqTrjd69GjNnj1bs2fP1gUXXKDk5JhvOAEAAB4Q9R6+U6dOSk9PP+5Oj3A4/KUXanbp0qXx+6ysLKICAIAWKuojFdnZ2frOd76jZ555Rtu2bdOhQ4f0pz/9SeXl5br44ovjOSMAAPCAqA8b+Hw+zZw5U/fcc48WLlyotm3bas+ePRozZowuuuiieM4IAAA8IKZzEUOHDtWsWbP0/vvvq66uTkVFRbrooovUrl27eM0HAAA8IuYLHM4//3ydf/758ZgFAAB4GL9QDAAAmCAqAACACaICAACYICoAAIAJogIAAJggKgAAgAmiAgAAmCAqAACACaICAACYICoAAIAJogIAAJggKgAAgAmiAgAAmCAqAACACaICAACYICoAAIAJogIAAJggKgAAgAmiAgAAmCAqAACACaICAACYICoAAIAJogIAAJggKgAAgAmiAgAAmCAqAACACaICAACYICoAAIAJogIAAJggKgAAgAmiAgAAmCAqAACACaICAACYICoAAIAJogIAAJggKgAAgAmiAgAAmEiOZeGnnnpKe/bsOe75adOmKTMz02woAADgPTFFxcKFC5WVlaV+/fod83w4HDYdCgAAeE9MUXHgwAFNnTpVEyZMOOZ5jlIAAICYoqKqqkrV1dVavny5amtrlZOTo6FDhyorK+uk6/zjH/9o/P7gwYMKhUJNnxYAADRbUUdFfX29fD6ftmzZosrKStXV1amiokLvvPOO7rzzTuXk5JxwvZdfflmbN2+WJP3lL39RcnJMHQMAADwi6j28c04zZ85U9+7ddf755ysQCGjVqlWaPn26zj33XF111VUnXC83N1cZGRmSpFatWsnv54YTAABaIp9zzjV1ZeechgwZor59++qxxx77yuXnzJmj0tJSlZSUNPUlAQBAMxX1YYPKykq9/vrramhoOOb5pKQk+Xw+88EAAIC3RH36o6amRvPmzVN1dbWGDx8uv9+vdevW6ZNPPtHNN98czxkBAIAHRB0VHTp0UN++ffX0009r8+bNSkpK0tatW3XZZZdpxIgR8ZwRAAB4QNRRkZqaqtmzZ2vFihX6+9//rnA4rGHDhmnkyJHKzs6O54wAAMADYrq/Mz8/X1OmTInXLAAAwMO4vxMAAJggKgAAgAmiAgAAmCAqAACACaICAACYICoAAIAJogIAAJggKgAAgAmiAgAAmCAqAACACaICAACYICoAAIAJogIAAJggKgAAgAmiAgAAmCAqAACACaICAACYICoAAIAJogIAAJggKgAAgAmiAgAAmCAqAACACaICAACYICoAAIAJogIAAJggKgAAgAmiAgAAmCAqAACACaICAACYICoAAIAJogIAAJggKgAAgAmiAgAAmCAqAACACaICAACYICoAAIAJogIAAJggKgAAgIkmR8Xu3btVXFyszZs3W84DAAA8qklREQwGtXTpUt1www167bXXrGcCAAAe1KSoWLVqlV599VXl5eVZzwMAADwq5qjYvXu37rvvPk2YMCGqqNi7d2/jV01NjcLhcJMGBQAAzVtyLAsHg0H96le/UkpKiq699lotW7bsK9dZsWKFysvLJUlr165VKBRq2qQAAKBZiykqVq1apVdeeUVLlixRZmZmVOv4fD7t27dPklRTU6P09PTYpwQAAM1e1Kc/du/erYULF2r8+PEaPHhw1C8wefJkPf7443r88cc1ZswYBQKBJg0KAACat6ijYvny5Vq3bp0yMzP17LPP6tlnn1VVVZU2btyo5cuXx3NGAADgAVGf/qivr9d3vvMdrV69uvG5Q4cO6cMPP1RpaalGjx4dlwEBAIA3RB0VU6ZM0TXXXHPMcxs3btSoUaM0ffp088EAAIC3RB0V6enpx11kOWrUKA0ePFht27Y1HwwAAHhLTHd//F9z5syxmgMAAHgcv1AMAACYICoAAIAJogIAAJggKgAAgAmiAgAAmCAqAACACaICAACYICoAAIAJogIAAJggKgAAgAmiAgAAmCAqAACACaICAACYICoAAIAJogIAAJggKgAAgAmiAgAAmCAqAACACaICAACYICoAAIAJogIAAJggKgAAgAmiAgAAmCAqAACACaICAACYICoAAIAJogIAAJggKgAAgAmiAgAAmCAqAACACaICAACYICoAAIAJogIAAJggKgAAgAmiAgAAmCAqAACACaICAACYSI5l4cOHD2vr1q2qrKxUJBJRRkaGevTooY4dO8ZrPgAA4BFRR0UkEtGLL76o5cuXKxQKKRKJKBQKafDgwbr99tuVkZERzzkBAEAzF3VU1NfX67HHHtO3v/1tTZo0SSkpKfrDH/6gKVOmaOTIkfq3f/u3eM4JAACauaijIhQK6Uc/+pGGDx+uzMxMhUIhnXvuuUpOTlZ1dfVJ19u+fXvj90dPmwAAgJYn6qjIzMzUmDFjJEmvv/66Dh48qNLSUl1yySUaNGjQSdd77LHHdOTIEUnSe++9J7+fa0MBAGiJYrpQ86hHHnlElZWVSk5O1sSJExUIBE66bH5+vvbv3y9JatWqFUcqAABooXzOORfrSrt27dIXX3yhN998U/fff7+WLFmiSy+99CvXmzNnjkpLS1VSUtKkYQEAQPMV9bmIyspKlZSUqKGhQZ06dVLfvn11yy23qH379lq+fHk8ZwQAAB4QdVTs3LlTP/jBD7Rq1SpVV1fryJEj+vjjj1VdXc3nVAAAgOivqejZs6cGDRqkBx54QKNHj1ZKSorKysqUkZGh0aNHx3NGAADgAVFHRVpamh566CE9+eSTeuuttxpPgzzwwAMaMGBAPGcEAAAeENPdH507d9bs2bPjNQsAAPAwPjQCAACYICoAAIAJogIAAJggKgAAgAmiAgAAmCAqAACACaICAACYICoAAIAJogIAAJggKgAAgAmiAgAAmCAqAACACaICAACYICoAAIAJogIAAJggKgAAgAmiAgAAmCAqAACACaICAACYICoAAIAJogIAAJggKgAAgAmiAgAAmCAqAACACaICAACYICoAAIAJogIAAJggKgAAgAmiAgAAmCAqAACACaICAACYICoAAIAJogIAAJggKgAAgAmiAgAAmCAqAACACaICAACYICoAAICJ5FgWDgaD2rlzp6qqqhQOh5WamqrOnTsrOzs7XvMBAACPiCkq1q1bp0ceeUR79uxRMBhU69atddlll+nGG29USkpKvGYEAAAeEPXpj3A4rDvvvFORSESLFy/W888/r7Fjx+pnP/uZtm3bFs8ZAQCAB0QdFXV1dRoyZIjmzp2r3r17Kz8/X1OmTJHP59OHH3540vUqKioavw4dOqRIJGIyOAAAaF6iPv2Rnp6uX/7yl42PI5GI1q5dq4yMDPXs2fOk6y1evFj19fWSpHfffVfOuVMYFwAANFcxXVNxVENDgzZt2qS7775bP/jBDzRgwICTLpuWlqaDBw9KkkKhkAKBQNMmBQAAzZrPxXjooKamRm+//bb++7//WwMHDtTcuXPVunXrqNadM2eOSktLVVJS0qRhAQBA8xXTkYqamhq98MILWrx4sSZPnqypU6fK5/PFazYAAOAhUUdFJBLRK6+8onvvvVf333+/LrnkEgWDQUlSUlKSkpKS4jYkAABo/qKOigMHDmjWrFm68MIL5ZzTypUrG/+sa9euKioqisuAAADAG6KOip07d6pjx4768MMPNXfu3GP+bOzYsUQFAABfc1FHxcCBA/Xee+/FcxYAAOBh/EIxAABggqgAAAAmiAoAAGCCqAAAACaICgAAYIKoAAAAJogKAABggqgAAAAmiAoAAGCCqAAAACaICgAAYIKoAAAAJogKAABggqgAAAAmiAoAAGCCqAAAACaICgAAYIKoAAAAJogKAABggqgAAAAmiAoAAGCCqAAAACaICgAAYIKoAAAAJogKAABggqgAAAAmiAoAAGCCqAAAACaICgAAYIKoAAAAJogKAABggqgAAAAmiAoAAGCCqAAAACaICgAAYIKoAAAAJogKAABgIuaoCAaDqqio0Pbt2xUKheIxEwAA8KCYoqKmpkZr1qzR5MmT1bNnT33++efxmgsAAHhMTFGxcuVKzZgxQ0VFRfGaBwAAeFRMUZGcnKzf/e53GjNmTNTr7Nu3TxUVFaqoqNChQ4fknIt5SAAA0Pwlx7LwqFGjJEk7d+6Mep077rhDFRUVkqTy8nLl5OTE8pIAAMAjYoqKpigqKmo8XfLqq6/qiy++iPdLAgCABIh7VEyfPr3x+wMHDqi0tDTeLwkAABKAz6kAAAAmYjpSEQ6H5ZxTOBxufBwKheT3++X30ycAAHydxRQVGzduVF1dnbZu3SpJ2rBhg9q1a6e8vDydddZZcRkQAAB4Q0xRMXPmzMY7PwoKCnTbbbdJkq688krNmzfPfjoAAOAZMUVFSUlJvOYAAAAex4UQAADABFEBAABMEBUAAMAEUQEAAEwQFQAAwARRAQAATBAVAADABFEBAABMEBUAAMAEUQEAAEwQFQAAwARRAQAATBAVAADABFEBAABMEBUAAMAEUQEAAEwQFQAAwARRAQAATBAVAADABFEBAABMEBUAAMAEUQEAAEwQFQAAwARRAQAATBAVAADABFEBAABMEBUAAMAEUQEAAEwQFQAAwARRAQAATBAVAADABFEBAABMEBUAAMAEUQEAAEwQFQAAwARRAQAATBAVAADABFEBAABMEBUAAMAEUQEAAEwkn84X8/l8CofDqqqqOp0vCwAAToPTGhUZGRnatGmTunbtejpf1lRtba2SkpLUunXrRI9ySlrCdlRXVys1NVXJyaf1n7E5r29HKBTSkSNHlJmZmehRTklL2I76+nqFw2GlpaUlepRT0hK24+v6Hnta38Wqq6t11lln6cEHHzydL2vqlltu0TnnnKPrrrsu0aOckpawHf/+7/+u+fPna8CAAYke5ZR4fTvef/993XLLLfrjH/+Y6FFOSUvYjuLiYm3cuFGLFi1K9CinpCVsx9f1Pfa0/69RZmamzj///NP9smaysrLUtWtXT2+D1HK2o6ioyPPbIHl7O0KhkCR5dv6jWsJ2vPnmm/r00089vQ1Sy9iOr+t77Gm9UDMQCHj6UJAktW7dWoFAINFjnLKWsB1paWny+71/rbHXt8Pv93v6MPVRLWE7WsJ7rNQytuPr+h6b9Itf/OIX8RnneG3btlX//v1VUFBwul7SXMeOHTVw4EDl5eUlepRT0hK2o1u3bvrmN7+pjIyMRI9ySry+HSkpKerXr5+KiooSPcopaQnb0RLeY6WWsR1f1/dYn3POxXEmAADwNeHdY64AAKBZISoAAIAJogIAAJiI6ZZS55zq6+sVCoXknFNSUpJSUlI8feV6rMLhsOrq6iRJ6enpCZ6maSKRSOOHy0hq/IAWL/0cGxoaFAwGFYlE5PP5lJycrNatW8vn8yV6tCarra1VJBLx1AWb9fX1amhoOO75lJQUz135Hg6HG/+78Pl8nroDIRwOq7a29oR/FggElJKScponarr/+/7k9/vVqlUrT3043NF/S5FIRJI88/70Zfu3aPf/Me1FPvvsM02bNk29e/dWt27ddOmll2rt2rX6ulzrWV9fr5UrV6p///4aNGhQosdpEuec3nvvPf3nf/6nevTood69e+vyyy/XX//610SPFrVgMKhFixbpvPPOU7du3dS/f3/deOON2rdvX6JHa7K6ujpdcskl6tixY6JHickdd9yhdu3a6Ywzzjjm68UXX0z0aDGJRCL685//rO9+97s688wzVVRUpFmzZunIkSOJHi0q69atO+5nkJ+fr6ysLM2cOTPR48Vk8+bNGj9+vPr166cePXpo+PDheu655xojo7mLRCJ66623NHLkSPXo0UM9e/bUjTfeqAMHDiR6tC/1Vfu3qPf/LkqRSMSNGTPGnX322W7t2rXuk08+cbfccovLzc11+/fvj/av8bSf//znrl+/fm7s2LGuZ8+eiR6nSfbs2eM6dOjgpk6d6srLy93WrVvdZZdd5rp16+bC4XCix4vK0qVLXfv27d1LL73kKioq3KpVq1xhYaEbN25cokdrknA47ObPn+9yc3Ndenp6oseJyeTJk93IkSNdRUXFMV+HDx9O9Ggx+eCDD1zbtm3dggUL3N///ndXUlLievbs6ZYtW5bo0aJSX19/3M9gw4YNrn379u4Pf/hDoseLWiQScQUFBW7SpEnu4MGDLhgMumXLljm/3+/Wr1+f6PGism3bNpeenu5mzZrlduzY4crKyty5557rvv/977tIJJLo8U7qy/Zvsez/o46KiooK5/P53KpVqxqfC4fDrnPnzu6hhx46xc3xhkWLFrnq6mo3d+5cz0bF+vXr3fjx4119fX3jc++8847z+Xxux44dCZwseq+99ppbsWJF4+NwOOx+9rOfuX79+iVwqqbbsmWLa9++vZs/f77nomLs2LFuypQprra21tXU1Lja2lrX0NCQ6LFidsMNN7ixY8e6uro6d/jwYc9ux1GhUMiNHz/eTZo0KdGjxOTgwYMuKSnJvfLKK4074Pr6ehcIBNzjjz+e2OGitHDhQnfGGWccExDvvfeeS0pKcnv37k3gZF/uy/Zvsez/oz5JVVZWJr/fr29961uNzx19vH79+qYfc/GQ6dOnJ3qEUzZ48GCpHKECAAAGhElEQVQ9/fTTjY8jkYjKy8vVtm1b5ebmJnCy6H33u9+V9M/TIEeOHNGWLVu0fPlyXXHFFQmeLHYNDQ264YYbNGPGDPXp0yfR48SsqqpKNTU1Gjt2rMrLy5WXl6eJEydq8uTJnrqmorS0VN///vc1Y8YMlZaWqm3btrryyis1bdo0T23HUW+99ZZWrlypLVu2JHqUmLRp00YjRoxQcXGx+vXrpzZt2uiZZ55Rdna2hg8fnujxohKJRBQIBBQKhRQIBOScU15ensLhsN5//32NGDEi0SOe0Jft32LZ/0d9TcXnn3+ujIwMtWrV6pjnc3NztX///mj/GjQj4XBYH3zwgWbPnq27777bcx9RvHTpUnXq1EkjRozQqFGj9POf/zzRI8UkEonooYceUjAY1IwZMxI9TpOkp6crGAzqtttu08svv6wrr7xSt912m379618nerSYVFRUqLi4WOedd55efvll3XjjjZo9e7aKi4sTPVrMwuGwZs2apdtvv13t27dP9Dgxe/TRR1VRUaG+ffuqS5cuuvvuu7VkyRJ16tQp0aNF5dvf/rb279+vxYsXq7q6Wnv27NFdd92lpKQkVVZWJnq8Joll/x91VJzsqtVIJOKpuwbwT6FQSH/60580YsQITZ8+XTfffHOiR4rZ+PHjtWbNGi1dulTPP/+8br31Vk9dNPzBBx9owYIF+tWvfuWpK9v/1YoVK1RSUqIRI0aoT58+uvXWWzVx4kQ9+uijiR4tJqFQSKNHj9ZVV12lgoICXX311Zo0aZLn4kiSXn31VX388ceaOnVqokeJWX19vcaOHauePXvqk08+0WeffaYHH3xQkyZN0rvvvpvo8aIyYMAALV68WPfff7+6du2qIUOG6LzzzpOk43bKXhHL/j/qGsjPz9ehQ4eOuxp67969nrti/esuFAppyZIluvbaa/Xwww/rpz/9aaJHikl9fb2CwaCys7NVVFSkcePG6YEHHtCSJUs8cwdIJBLRD3/4Q910003q3r27jhw50nhr5pEjRxp/Y2Zz19DQ0Hjb3FE9e/bUnj17EjRR07Rv317Z2dnHPFdQUOC57ZCkJ598UmPHjlVmZmaiR4nZ6tWrVVZWpgULFigvL0+pqam66qqrNHjwYD3xxBOJHi8qzjlNmDBBO3fuVHl5uT799FNdfPHFikQi6tKlS6LHa5JY9v9RR8XgwYMVCAT09ttvKxKJyDmnw4cPa+3atZ7/1a7Rcv+8sLXx/4b/9XuviEQievjhh7Vw4UK98cYb+t73vue57ZgwYYJmz57deL/00X+Pfr+/2d8HflR5ebnKysr0P//zPyosLFRhYaF++MMf6vDhwyosLNSzzz6b6BG/Ul1dnW699VatWbOm8WcQCoW0ceNG9erVK9HjxWTo0KFavXq1gsGgnHMKh8Patm2b536hVUNDg1auXNlsz9t/laP/DTc0NDS+J4XDYTU0NHjm2pYDBw7oiSeeUF1dnbKzs+Wc029/+1vl5OTonHPOSfR4J/Vl+7eY9v+xXB16/fXXu969e7uSkhK3adMmd/XVV7tu3bq56urqWP4aTwoGg2779u1u+/bt7rbbbnMFBQWNjw8dOpTo8aK2efNm17p1a/fMM880zn/0yys/x4ceeshlZma64uJi9+GHH7q33nrLDRgwwF188cWJHi1qwWDwuFsAn3zySZeWluYqKipcTU1NokeMysiRI11RUZErLS115eXlbtGiRS4tLc299NJLiR4tJmvWrHFpaWnunnvucR9//LF75plnXJs2bdz//u//Jnq0mPztb39zkty2bdsSPUqTVFdXu+7du7vx48e7Xbt2uYMHD7qnn37apaamujfeeCPR40WlqqrKtWvXzs2cOdPt2LHDrVixwnXo0MEtWLAg0aOdVDT7t2j3/zFFxeHDh93NN9/szjjjDJedne0uvfRSt3XrVrsta8YqKipcamrqCb9+85vfJHq8qP3yl7886Xb89re/TfR4UVu0aJE755xzXHZ2tisoKHBTp05t1rdrReOPf/yjy83NTfQYMTlw4ICbNm2aO/PMM11ubq4bMmSIe+GFFxI9VpMsX77cDRw40LVt29b179/fLVmyJNEjxeyNN95wqamprrKyMtGjNNnWrVvd5Zdf7jp37uw6dOjgzj33XPfcc88leqyYvPnmm+5b3/qWa9u2rSssLHT33Xdfs/6Mimj2b9Hu//nV5wAAwAS3bQAAABP/DwvmVLfy6OiQAAAAAElFTkSuQmCC;" vertex="1" parent="1">
                    <mxGeometry x="32" y="1327" width="317.14" height="310" as="geometry"/>
                </mxCell>
                <mxCell id="319" value="" style="endArrow=none;dashed=1;html=1;exitX=0.056;exitY=0.192;exitDx=0;exitDy=0;exitPerimeter=0;fillColor=#bac8d3;strokeColor=#23445d;" edge="1" parent="1">
                    <mxGeometry width="50" height="50" relative="1" as="geometry">
                        <mxPoint x="47.21983999999998" y="1566.31" as="sourcePoint"/>
                        <mxPoint x="192" y="1566" as="targetPoint"/>
                    </mxGeometry>
                </mxCell>
                <mxCell id="320" value="1" style="ellipse;whiteSpace=wrap;html=1;aspect=fixed;fillColor=#e51400;fontColor=#ffffff;strokeColor=#000000;gradientColor=none;" vertex="1" parent="1">
                    <mxGeometry x="128.5" y="1588" width="15" height="15" as="geometry"/>
                </mxCell>
                <mxCell id="321" value="(3, 1)" style="text;html=1;align=center;verticalAlign=middle;resizable=0;points=[];autosize=1;fontColor=#000000;fontSize=10;" vertex="1" parent="1">
                    <mxGeometry x="116" y="1568" width="40" height="20" as="geometry"/>
                </mxCell>
                <mxCell id="322" value="1" style="ellipse;whiteSpace=wrap;html=1;aspect=fixed;fillColor=#008a00;fontColor=#ffffff;strokeColor=#005700;" vertex="1" parent="1">
                    <mxGeometry x="126.5" y="1440" width="15" height="15" as="geometry"/>
                </mxCell>
                <mxCell id="323" value="(3, 6)" style="text;html=1;align=center;verticalAlign=middle;resizable=0;points=[];autosize=1;fontColor=#000000;fontSize=10;" vertex="1" parent="1">
                    <mxGeometry x="114" y="1420" width="40" height="20" as="geometry"/>
                </mxCell>
                <mxCell id="324" value="1" style="ellipse;whiteSpace=wrap;html=1;aspect=fixed;fillColor=#008a00;fontColor=#ffffff;strokeColor=#005700;" vertex="1" parent="1">
                    <mxGeometry x="156" y="1440" width="15" height="15" as="geometry"/>
                </mxCell>
                <mxCell id="325" value="(4, 6)" style="text;html=1;align=center;verticalAlign=middle;resizable=0;points=[];autosize=1;fontColor=#000000;fontSize=10;" vertex="1" parent="1">
                    <mxGeometry x="143.5" y="1420" width="40" height="20" as="geometry"/>
                </mxCell>
                <mxCell id="326" value="1" style="ellipse;whiteSpace=wrap;html=1;aspect=fixed;fillColor=#008a00;fontColor=#ffffff;strokeColor=#005700;" vertex="1" parent="1">
                    <mxGeometry x="156" y="1470" width="15" height="15" as="geometry"/>
                </mxCell>
                <mxCell id="327" value="(4, 5)" style="text;html=1;align=center;verticalAlign=middle;resizable=0;points=[];autosize=1;fontColor=#000000;fontSize=10;" vertex="1" parent="1">
                    <mxGeometry x="143.5" y="1485" width="40" height="20" as="geometry"/>
                </mxCell>
                <mxCell id="328" value="1" style="ellipse;whiteSpace=wrap;html=1;aspect=fixed;fillColor=#008a00;fontColor=#ffffff;strokeColor=#005700;" vertex="1" parent="1">
                    <mxGeometry x="126" y="1470" width="15" height="15" as="geometry"/>
                </mxCell>
                <mxCell id="329" value="(3, 5)" style="text;html=1;align=center;verticalAlign=middle;resizable=0;points=[];autosize=1;fontColor=#000000;fontSize=10;" vertex="1" parent="1">
                    <mxGeometry x="113.5" y="1485" width="40" height="20" as="geometry"/>
                </mxCell>
                <mxCell id="330" value="10" style="ellipse;whiteSpace=wrap;html=1;aspect=fixed;fillColor=#008a00;fontColor=#ffffff;strokeColor=#005700;" vertex="1" parent="1">
                    <mxGeometry x="214.5" y="1526" width="15" height="15" as="geometry"/>
                </mxCell>
                <mxCell id="331" value="(6, 3)" style="text;html=1;align=center;verticalAlign=middle;resizable=0;points=[];autosize=1;fontColor=#000000;fontSize=10;" vertex="1" parent="1">
                    <mxGeometry x="202" y="1506" width="40" height="20" as="geometry"/>
                </mxCell>
                <mxCell id="332" value="" style="endArrow=none;dashed=1;html=1;exitX=0.75;exitY=0;exitDx=0;exitDy=0;fillColor=#bac8d3;strokeColor=#23445d;entryX=0.505;entryY=0.968;entryDx=0;entryDy=0;entryPerimeter=0;" edge="1" parent="1">
                    <mxGeometry width="50" height="50" relative="1" as="geometry">
                        <mxPoint x="192.85500000000002" y="1327" as="sourcePoint"/>
                        <mxPoint x="195.15570000000002" y="1627.08" as="targetPoint"/>
                    </mxGeometry>
                </mxCell>
                <mxCell id="333" value="" style="endArrow=none;dashed=1;html=1;exitX=0.056;exitY=0.192;exitDx=0;exitDy=0;exitPerimeter=0;fillColor=#bac8d3;strokeColor=#23445d;" edge="1" parent="1">
                    <mxGeometry width="50" height="50" relative="1" as="geometry">
                        <mxPoint x="50.21983999999998" y="1463.31" as="sourcePoint"/>
                        <mxPoint x="151" y="1463" as="targetPoint"/>
                    </mxGeometry>
                </mxCell>
                <mxCell id="334" value="" style="endArrow=none;dashed=1;html=1;exitX=0.75;exitY=0;exitDx=0;exitDy=0;fillColor=#bac8d3;strokeColor=#23445d;" edge="1" parent="1">
                    <mxGeometry width="50" height="50" relative="1" as="geometry">
                        <mxPoint x="148.85500000000002" y="1327" as="sourcePoint"/>
                        <mxPoint x="151" y="1467" as="targetPoint"/>
                    </mxGeometry>
                </mxCell>
                <mxCell id="335" value="" style="endArrow=none;dashed=1;html=1;exitX=0.75;exitY=0;exitDx=0;exitDy=0;fillColor=#bac8d3;strokeColor=#23445d;" edge="1" parent="1">
                    <mxGeometry width="50" height="50" relative="1" as="geometry">
                        <mxPoint x="151.35500000000002" y="1464" as="sourcePoint"/>
                        <mxPoint x="153.5" y="1568" as="targetPoint"/>
                    </mxGeometry>
                </mxCell>
                <mxCell id="336" value="" style="endArrow=none;html=1;fontSize=10;fontColor=#000000;labelBackgroundColor=#000000;strokeColor=#000000;" edge="1" parent="1">
                    <mxGeometry width="50" height="50" relative="1" as="geometry">
                        <mxPoint x="412" y="1537" as="sourcePoint"/>
                        <mxPoint x="412" y="1327" as="targetPoint"/>
                    </mxGeometry>
                </mxCell>
                <mxCell id="337" value="&lt;font&gt;Depth&lt;/font&gt;" style="text;html=1;align=center;verticalAlign=middle;resizable=0;points=[];autosize=1;strokeColor=none;fillColor=none;fontSize=10;fontColor=#000000;" vertex="1" parent="1">
                    <mxGeometry x="406" y="1297" width="40" height="20" as="geometry"/>
                </mxCell>
                <mxCell id="338" value="0" style="text;html=1;align=center;verticalAlign=middle;resizable=0;points=[];autosize=1;strokeColor=none;fillColor=none;fontSize=10;fontColor=#000000;" vertex="1" parent="1">
                    <mxGeometry x="412" y="1317" width="20" height="20" as="geometry"/>
                </mxCell>
                <mxCell id="339" value="1" style="text;html=1;align=center;verticalAlign=middle;resizable=0;points=[];autosize=1;strokeColor=none;fillColor=none;fontSize=10;fontColor=#000000;" vertex="1" parent="1">
                    <mxGeometry x="412" y="1369.5" width="20" height="20" as="geometry"/>
                </mxCell>
                <mxCell id="340" value="2" style="text;html=1;align=center;verticalAlign=middle;resizable=0;points=[];autosize=1;strokeColor=none;fillColor=none;fontSize=10;fontColor=#000000;" vertex="1" parent="1">
                    <mxGeometry x="412" y="1410" width="20" height="20" as="geometry"/>
                </mxCell>
                <mxCell id="341" value="3" style="text;html=1;align=center;verticalAlign=middle;resizable=0;points=[];autosize=1;strokeColor=none;fillColor=none;fontSize=10;fontColor=#000000;" vertex="1" parent="1">
                    <mxGeometry x="412" y="1462.5" width="20" height="20" as="geometry"/>
                </mxCell>
                <mxCell id="342" value="4" style="text;html=1;align=center;verticalAlign=middle;resizable=0;points=[];autosize=1;strokeColor=none;fillColor=none;fontSize=10;fontColor=#000000;" vertex="1" parent="1">
                    <mxGeometry x="412" y="1506.5" width="20" height="20" as="geometry"/>
                </mxCell>
                <mxCell id="343" value="&lt;font color=&quot;#000000&quot;&gt;X=5&lt;/font&gt;" style="rounded=1;whiteSpace=wrap;html=1;fontSize=10;strokeColor=#36393d;fillColor=#cdeb8b;" vertex="1" parent="1">
                    <mxGeometry x="552" y="1312" width="50" height="25" as="geometry"/>
                </mxCell>
                <mxCell id="344" value="" style="endArrow=none;html=1;fontSize=10;fontColor=#000000;entryX=0.5;entryY=1;entryDx=0;entryDy=0;strokeColor=#000000;" edge="1" parent="1" target="343">
                    <mxGeometry width="50" height="50" relative="1" as="geometry">
                        <mxPoint x="612.0000000000002" y="1367" as="sourcePoint"/>
                        <mxPoint x="652" y="1367" as="targetPoint"/>
                    </mxGeometry>
                </mxCell>
                <mxCell id="345" value="10" style="ellipse;whiteSpace=wrap;html=1;aspect=fixed;fillColor=#008a00;fontColor=#ffffff;strokeColor=#005700;" vertex="1" parent="1">
                    <mxGeometry x="604.5" y="1367" width="15" height="15" as="geometry"/>
                </mxCell>
                <mxCell id="346" value="(6, 3)" style="text;html=1;align=center;verticalAlign=middle;resizable=0;points=[];autosize=1;fontSize=10;fontColor=#000000;" vertex="1" parent="1">
                    <mxGeometry x="592" y="1378" width="40" height="20" as="geometry"/>
                </mxCell>
                <mxCell id="347" value="" style="endArrow=none;html=1;fontSize=10;fontColor=#000000;entryX=0.5;entryY=1;entryDx=0;entryDy=0;strokeColor=#000000;exitX=0.5;exitY=0;exitDx=0;exitDy=0;" edge="1" parent="1" source="348" target="343">
                    <mxGeometry width="50" height="50" relative="1" as="geometry">
                        <mxPoint x="546" y="1364" as="sourcePoint"/>
                        <mxPoint x="542" y="1370" as="targetPoint"/>
                    </mxGeometry>
                </mxCell>
                <mxCell id="348" value="&lt;font color=&quot;#000000&quot;&gt;Y=2&lt;/font&gt;" style="rounded=1;whiteSpace=wrap;html=1;fontSize=10;strokeColor=#36393d;fillColor=#cdeb8b;" vertex="1" parent="1">
                    <mxGeometry x="518" y="1367" width="50" height="25" as="geometry"/>
                </mxCell>
                <mxCell id="349" value="1" style="ellipse;whiteSpace=wrap;html=1;aspect=fixed;fillColor=#e51400;fontColor=#ffffff;strokeColor=#000000;gradientColor=none;" vertex="1" parent="1">
                    <mxGeometry x="495.5" y="1412.5" width="15" height="15" as="geometry"/>
                </mxCell>
                <mxCell id="350" value="(3, 1)" style="text;html=1;align=center;verticalAlign=middle;resizable=0;points=[];autosize=1;fontColor=#000000;fontSize=10;" vertex="1" parent="1">
                    <mxGeometry x="483" y="1425" width="40" height="20" as="geometry"/>
                </mxCell>
                <mxCell id="351" value="" style="endArrow=none;html=1;fontSize=10;fontColor=#000000;entryX=0.5;entryY=1;entryDx=0;entryDy=0;strokeColor=#000000;exitX=0.5;exitY=0;exitDx=0;exitDy=0;" edge="1" parent="1" source="349" target="348">
                    <mxGeometry width="50" height="50" relative="1" as="geometry">
                        <mxPoint x="553" y="1377" as="sourcePoint"/>
                        <mxPoint x="587" y="1347" as="targetPoint"/>
                    </mxGeometry>
                </mxCell>
                <mxCell id="352" value="" style="endArrow=none;html=1;fontSize=10;fontColor=#000000;strokeColor=#000000;exitX=0.5;exitY=1;exitDx=0;exitDy=0;entryX=0.5;entryY=0;entryDx=0;entryDy=0;" edge="1" parent="1" source="348" target="353">
                    <mxGeometry width="50" height="50" relative="1" as="geometry">
                        <mxPoint x="513" y="1422.5" as="sourcePoint"/>
                        <mxPoint x="566" y="1412" as="targetPoint"/>
                    </mxGeometry>
                </mxCell>
                <mxCell id="353" value="&lt;font color=&quot;#000000&quot;&gt;X=3.5&lt;/font&gt;" style="rounded=1;whiteSpace=wrap;html=1;fontSize=10;strokeColor=#36393d;fillColor=#cdeb8b;" vertex="1" parent="1">
                    <mxGeometry x="549" y="1412.5" width="50" height="25" as="geometry"/>
                </mxCell>
                <mxCell id="354" value="" style="endArrow=none;html=1;fontSize=10;fontColor=#000000;strokeColor=#000000;exitX=0.5;exitY=1;exitDx=0;exitDy=0;" edge="1" parent="1" source="353">
                    <mxGeometry width="50" height="50" relative="1" as="geometry">
                        <mxPoint x="527.5" y="1471.75" as="sourcePoint"/>
                        <mxPoint x="547.0000000000002" y="1461" as="targetPoint"/>
                    </mxGeometry>
                </mxCell>
                <mxCell id="355" value="&lt;font color=&quot;#000000&quot;&gt;Y=5.5&lt;/font&gt;" style="rounded=1;whiteSpace=wrap;html=1;fontSize=10;strokeColor=#36393d;fillColor=#cdeb8b;" vertex="1" parent="1">
                    <mxGeometry x="525" y="1460" width="50" height="25" as="geometry"/>
                </mxCell>
                <mxCell id="356" value="&lt;font color=&quot;#000000&quot;&gt;Y=5.6&lt;/font&gt;" style="rounded=1;whiteSpace=wrap;html=1;fontSize=10;strokeColor=#36393d;fillColor=#cdeb8b;" vertex="1" parent="1">
                    <mxGeometry x="587" y="1460" width="50" height="25" as="geometry"/>
                </mxCell>
                <mxCell id="357" value="" style="endArrow=none;html=1;fontSize=10;fontColor=#000000;strokeColor=#000000;exitX=0.5;exitY=1;exitDx=0;exitDy=0;entryX=0.5;entryY=0;entryDx=0;entryDy=0;" edge="1" parent="1" source="353" target="356">
                    <mxGeometry width="50" height="50" relative="1" as="geometry">
                        <mxPoint x="584" y="1447.5" as="sourcePoint"/>
                        <mxPoint x="557" y="1471" as="targetPoint"/>
                    </mxGeometry>
                </mxCell>
                <mxCell id="358" value="" style="endArrow=none;dashed=1;html=1;fillColor=#bac8d3;strokeColor=#23445d;" edge="1" parent="1">
                    <mxGeometry width="50" height="50" relative="1" as="geometry">
                        <mxPoint x="151" y="1460" as="sourcePoint"/>
                        <mxPoint x="194" y="1460" as="targetPoint"/>
                    </mxGeometry>
                </mxCell>
                <mxCell id="359" value="1" style="ellipse;whiteSpace=wrap;html=1;aspect=fixed;fillColor=#008a00;fontColor=#ffffff;strokeColor=#005700;" vertex="1" parent="1">
                    <mxGeometry x="515.5" y="1506.5" width="15" height="15" as="geometry"/>
                </mxCell>
                <mxCell id="360" value="(3, 6)" style="text;html=1;align=center;verticalAlign=middle;resizable=0;points=[];autosize=1;fontColor=#000000;fontSize=10;" vertex="1" parent="1">
                    <mxGeometry x="503" y="1518.5" width="40" height="20" as="geometry"/>
                </mxCell>
                <mxCell id="361" value="" style="endArrow=none;html=1;fontSize=10;fontColor=#000000;strokeColor=#000000;exitX=0.5;exitY=1;exitDx=0;exitDy=0;entryX=0.5;entryY=0;entryDx=0;entryDy=0;" edge="1" parent="1" source="355" target="359">
                    <mxGeometry width="50" height="50" relative="1" as="geometry">
                        <mxPoint x="584" y="1447.5" as="sourcePoint"/>
                        <mxPoint x="513" y="1499" as="targetPoint"/>
                    </mxGeometry>
                </mxCell>
                <mxCell id="362" value="1" style="ellipse;whiteSpace=wrap;html=1;aspect=fixed;fillColor=#008a00;fontColor=#ffffff;strokeColor=#005700;" vertex="1" parent="1">
                    <mxGeometry x="550.5" y="1506.5" width="15" height="15" as="geometry"/>
                </mxCell>
                <mxCell id="363" value="(3, 5)" style="text;html=1;align=center;verticalAlign=middle;resizable=0;points=[];autosize=1;fontColor=#000000;fontSize=10;" vertex="1" parent="1">
                    <mxGeometry x="542" y="1520.5" width="33" height="16" as="geometry"/>
                </mxCell>
                <mxCell id="364" value="" style="endArrow=none;html=1;fontSize=10;fontColor=#000000;strokeColor=#000000;exitX=0.5;exitY=1;exitDx=0;exitDy=0;entryX=0.5;entryY=0;entryDx=0;entryDy=0;" edge="1" parent="1" source="355" target="362">
                    <mxGeometry width="50" height="50" relative="1" as="geometry">
                        <mxPoint x="560" y="1495" as="sourcePoint"/>
                        <mxPoint x="525.5" y="1519" as="targetPoint"/>
                    </mxGeometry>
                </mxCell>
                <mxCell id="365" value="1" style="ellipse;whiteSpace=wrap;html=1;aspect=fixed;fillColor=#008a00;fontColor=#ffffff;strokeColor=#005700;" vertex="1" parent="1">
                    <mxGeometry x="585.5" y="1506.5" width="15" height="15" as="geometry"/>
                </mxCell>
                <mxCell id="366" value="(4,6)" style="text;html=1;align=center;verticalAlign=middle;resizable=0;points=[];autosize=1;fontColor=#000000;fontSize=10;" vertex="1" parent="1">
                    <mxGeometry x="578" y="1520.5" width="30" height="16" as="geometry"/>
                </mxCell>
                <mxCell id="367" value="" style="endArrow=none;html=1;fontSize=10;fontColor=#000000;strokeColor=#000000;exitX=0.5;exitY=1;exitDx=0;exitDy=0;" edge="1" parent="1" source="356">
                    <mxGeometry width="50" height="50" relative="1" as="geometry">
                        <mxPoint x="620" y="1485" as="sourcePoint"/>
                        <mxPoint x="593" y="1507" as="targetPoint"/>
                    </mxGeometry>
                </mxCell>
                <mxCell id="368" value="1" style="ellipse;whiteSpace=wrap;html=1;aspect=fixed;fillColor=#008a00;fontColor=#ffffff;strokeColor=#005700;" vertex="1" parent="1">
                    <mxGeometry x="620.5" y="1506.5" width="15" height="15" as="geometry"/>
                </mxCell>
                <mxCell id="369" value="(4, 5)" style="text;html=1;align=center;verticalAlign=middle;resizable=0;points=[];autosize=1;fontColor=#000000;fontSize=10;" vertex="1" parent="1">
                    <mxGeometry x="612" y="1520.5" width="33" height="16" as="geometry"/>
                </mxCell>
                <mxCell id="370" value="" style="endArrow=none;html=1;fontSize=10;fontColor=#000000;strokeColor=#000000;exitX=0.5;exitY=1;exitDx=0;exitDy=0;" edge="1" parent="1">
                    <mxGeometry width="50" height="50" relative="1" as="geometry">
                        <mxPoint x="620" y="1485" as="sourcePoint"/>
                        <mxPoint x="628" y="1509" as="targetPoint"/>
                    </mxGeometry>
                </mxCell>
                <mxCell id="371" value="" style="rounded=0;whiteSpace=wrap;html=1;fontSize=10;fontColor=#000000;strokeColor=#000000;fillColor=#008A00;gradientColor=none;" vertex="1" parent="1">
                    <mxGeometry x="714" y="429.5" width="16" height="60" as="geometry"/>
                </mxCell>
                <mxCell id="372" value="" style="rounded=0;whiteSpace=wrap;html=1;fontSize=10;fontColor=#000000;strokeColor=#000000;fillColor=#E51400;gradientColor=none;" vertex="1" parent="1">
                    <mxGeometry x="714" y="369.5" width="16" height="60" as="geometry"/>
                </mxCell>
                <mxCell id="373" value="0.5" style="text;html=1;align=center;verticalAlign=middle;resizable=0;points=[];autosize=1;strokeColor=none;fillColor=none;fontSize=10;fontColor=#000000;" vertex="1" parent="1">
                    <mxGeometry x="688" y="422" width="23" height="16" as="geometry"/>
                </mxCell>
                <mxCell id="374" value="&lt;b&gt;Anomaly Score&lt;/b&gt;" style="text;html=1;align=center;verticalAlign=middle;resizable=0;points=[];autosize=1;strokeColor=none;fillColor=none;fontSize=10;fontColor=#000000;" vertex="1" parent="1">
                    <mxGeometry x="681.5" y="349.5" width="82" height="16" as="geometry"/>
                </mxCell>
                <mxCell id="375" value="Anomaly" style="text;html=1;align=center;verticalAlign=middle;resizable=0;points=[];autosize=1;strokeColor=none;fillColor=none;fontSize=10;fontColor=#000000;" vertex="1" parent="1">
                    <mxGeometry x="656" y="393" width="48" height="16" as="geometry"/>
                </mxCell>
                <mxCell id="376" value="Normal Data&lt;br&gt;Point" style="text;html=1;align=center;verticalAlign=middle;resizable=0;points=[];autosize=1;strokeColor=none;fillColor=none;fontSize=10;fontColor=#000000;" vertex="1" parent="1">
                    <mxGeometry x="648" y="442" width="65" height="28" as="geometry"/>
                </mxCell>
                <mxCell id="377" value="" style="rounded=0;whiteSpace=wrap;html=1;fontSize=10;fontColor=#000000;strokeColor=#000000;fillColor=#008A00;gradientColor=none;" vertex="1" parent="1">
                    <mxGeometry x="711" y="752" width="16" height="60" as="geometry"/>
                </mxCell>
                <mxCell id="378" value="" style="rounded=0;whiteSpace=wrap;html=1;fontSize=10;fontColor=#000000;strokeColor=#000000;fillColor=#E51400;gradientColor=none;" vertex="1" parent="1">
                    <mxGeometry x="711" y="692" width="16" height="60" as="geometry"/>
                </mxCell>
                <mxCell id="379" value="0.5" style="text;html=1;align=center;verticalAlign=middle;resizable=0;points=[];autosize=1;strokeColor=none;fillColor=none;fontSize=10;fontColor=#000000;" vertex="1" parent="1">
                    <mxGeometry x="685" y="744.5" width="23" height="16" as="geometry"/>
                </mxCell>
                <mxCell id="380" value="&lt;b&gt;Anomaly Score&lt;/b&gt;" style="text;html=1;align=center;verticalAlign=middle;resizable=0;points=[];autosize=1;strokeColor=none;fillColor=none;fontSize=10;fontColor=#000000;" vertex="1" parent="1">
                    <mxGeometry x="678.5" y="672" width="82" height="16" as="geometry"/>
                </mxCell>
                <mxCell id="381" value="Anomaly" style="text;html=1;align=center;verticalAlign=middle;resizable=0;points=[];autosize=1;strokeColor=none;fillColor=none;fontSize=10;fontColor=#000000;" vertex="1" parent="1">
                    <mxGeometry x="653" y="715.5" width="48" height="16" as="geometry"/>
                </mxCell>
                <mxCell id="382" value="" style="rounded=0;whiteSpace=wrap;html=1;fontSize=10;fontColor=#000000;strokeColor=#000000;fillColor=#008A00;gradientColor=none;" vertex="1" parent="1">
                    <mxGeometry x="736.5" y="1097" width="16" height="60" as="geometry"/>
                </mxCell>
                <mxCell id="383" value="" style="rounded=0;whiteSpace=wrap;html=1;fontSize=10;fontColor=#000000;strokeColor=#000000;fillColor=#E51400;gradientColor=none;" vertex="1" parent="1">
                    <mxGeometry x="736.5" y="1037" width="16" height="60" as="geometry"/>
                </mxCell>
                <mxCell id="384" value="0.5" style="text;html=1;align=center;verticalAlign=middle;resizable=0;points=[];autosize=1;strokeColor=none;fillColor=none;fontSize=10;fontColor=#000000;" vertex="1" parent="1">
                    <mxGeometry x="710.5" y="1089.5" width="23" height="16" as="geometry"/>
                </mxCell>
                <mxCell id="385" value="&lt;b&gt;Anomaly Score&lt;/b&gt;" style="text;html=1;align=center;verticalAlign=middle;resizable=0;points=[];autosize=1;strokeColor=none;fillColor=none;fontSize=10;fontColor=#000000;" vertex="1" parent="1">
                    <mxGeometry x="704" y="1017" width="82" height="16" as="geometry"/>
                </mxCell>
                <mxCell id="386" value="Anomaly" style="text;html=1;align=center;verticalAlign=middle;resizable=0;points=[];autosize=1;strokeColor=none;fillColor=none;fontSize=10;fontColor=#000000;" vertex="1" parent="1">
                    <mxGeometry x="678.5" y="1060.5" width="48" height="16" as="geometry"/>
                </mxCell>
                <mxCell id="387" value="" style="rounded=0;whiteSpace=wrap;html=1;fontSize=10;fontColor=#000000;strokeColor=#000000;fillColor=#008A00;gradientColor=none;" vertex="1" parent="1">
                    <mxGeometry x="746" y="1430" width="16" height="60" as="geometry"/>
                </mxCell>
                <mxCell id="388" value="" style="rounded=0;whiteSpace=wrap;html=1;fontSize=10;fontColor=#000000;strokeColor=#000000;fillColor=#E51400;gradientColor=none;" vertex="1" parent="1">
                    <mxGeometry x="746" y="1370" width="16" height="60" as="geometry"/>
                </mxCell>
                <mxCell id="389" value="0.5" style="text;html=1;align=center;verticalAlign=middle;resizable=0;points=[];autosize=1;strokeColor=none;fillColor=none;fontSize=10;fontColor=#000000;" vertex="1" parent="1">
                    <mxGeometry x="720" y="1422.5" width="23" height="16" as="geometry"/>
                </mxCell>
                <mxCell id="390" value="&lt;b&gt;Anomaly Score&lt;/b&gt;" style="text;html=1;align=center;verticalAlign=middle;resizable=0;points=[];autosize=1;strokeColor=none;fillColor=none;fontSize=10;fontColor=#000000;" vertex="1" parent="1">
                    <mxGeometry x="713.5" y="1350" width="82" height="16" as="geometry"/>
                </mxCell>
                <mxCell id="391" value="Anomaly" style="text;html=1;align=center;verticalAlign=middle;resizable=0;points=[];autosize=1;strokeColor=none;fillColor=none;fontSize=10;fontColor=#000000;" vertex="1" parent="1">
                    <mxGeometry x="688" y="1393.5" width="48" height="16" as="geometry"/>
                </mxCell>
                <mxCell id="392" value="" style="shape=image;verticalLabelPosition=bottom;labelBackgroundColor=#ffffff;verticalAlign=top;aspect=fixed;imageAspect=0;image=data:image/png,iVBORw0KGgoAAAANSUhEUgAAAMUAAADXCAYAAACqJpVgAAAABHNCSVQICAgIfAhkiAAAIABJREFUeJzsnXe8FcXZ+L8zu6fdcwu303vvHVSaBY0iWLECKlFjTFGT942o8advTF41JmpULDG+MZaIGnsFe0eKiKKGoqIgvV1uPWVnfn/M7p49514umIiCuc/nA/fs7uzszDNPm5lnnkdorTW7gBdeeJFXXn1tV4+/ETh4wngmTjxsr36jBfZfUEohpQRgxowZzJkzh8svv5yLLrqIeDyOEOIb/6Zs7uHEiYdx8ITx3/hHPWhhiBbYF8HeXYGJEw+jVatWPP7EkzSjVL4WCCE49pgpjBgx/BuprwVa4JsEnyky5J75JTCqacSI4XTq1Im58+bxySf//Lc+2KdPbw4//HAqKsrRgAA02v+Wd293EOTP7PLugybVqveS963mmVzsQUuaq0M0c+W15l9R/rlfzK1D7+L+rkrtWfndtEnvAuVZ32rc9qbAx7s2AlRr3dhM0pm/wTqFgIaGepYu/YCamhoAOnToQJcuXQiFPHJvvqc2gNYaLbwP5TTbfb+8ooxp005j+YoVLFiwkH9+srxR+0SjO5m7ffr0ZtSokfTo0d18T2eIt9FvEWQR0Lmd0GRpLY1nB/qdaDRChnh1VvN2yxSiMfNlasm+2h0It7g/lsKtQzcxRLsYf9HEr2BrvCsduGr8y61Bu7336M8lQK90U73KFRI+uQiaJFwzlm7lbsE9YgqPETQIaX5nei4y9WjT0mCdiUSCxYsXcfYPz6GmphaEYOzYsVx//R+pqCgDARKLLCTn4Nv2Gi785znTDJ39s0fPnvTq2YPqnTtZvnwFq1d/yfqNG9mxo4pEQwMaiEajFBcV0bp1azp36kTP3j0pLCz0a5GBEdRK+cgWGoQIDrwwWkR7QxpovQz2RBu8i4zsbURo2kWk0L5mks1PqVBohCCLsDICygxa83VoHPdl4UodgUt8PqE0bq3Oucrti3DvaQ9Hbl1CC4NLkSFG/wsiu06NMvUq96HLpNplXHOruXbhjo55IGUjjJt3XM7TQiA1yGaltEYJbfDufsFvr/txKQRSCHckFCCQIjMGG9av5+qrr+Wrdeu54soriURCXHrpZUydeiKHHXYY+fl5jXqkvQ67YGceKoTWWaKxScUhzM2CvBjDhwxixLAhaCkNmWmBAtAKoZ0gjYKTymmMN5hmELUQaGGhhUGbdJkB5YBWaCECKGoGrRoQEiGtbErQDkI7gNcuSROskwUSDUKipTTCQitDLEqBdjyM7KYOx5SRtktslpGCvohOg1ZZmGmiV2SkrDDdctuk0SghXAZ1EFqBaqx+cqeDQgg0Em1ZrohQLsNqcNJGYO0G5/49rdFSIGQop0TaCLSsjzePL6G1GTspXVrSSKERTpowyoyJSoNKgXJ8DexBddV2Frz1FkXxPC78+Y+xLJurfnMVU6eexKJFixgwoL/BE8ql78Z2n+0pXJ1Oo+qrEOn6ZhsNoIRAawslJFY0HxmOgjT8JXUalahDJ+tApVzVl/moQbyHTPPDQaKtEHZeEcIOu9JPIVQSnaxHJ+sRymmWGZTwCE0gLRsdLwNp+c91qh6VqEE4KZeUQIucGnMoR1lRrHAcEYmhhCEkoVM4DTWIVIMZHBS7Ay1stB3BjuUbBhMSrTXKUej6HZDK4FzQWG9ooQDLiC4hkZFCrEjU15aWTqGTDTiJeoRKGsbAELWH41zDRQmLNBbh/FZghVFCAhqp0jgNtZBqQO4xzkFIC1FY4Qob93kygUrUIVQSqR3cSUIOcrK/4BDGjhdCKIoStqvwHESihjzSlIUF+U4domYz2qlxzf5MnVbtFkotTTgeIlGzk7zCIqLRKBqFlCClRNduRQVxntNJG1cVKc/A1LvhZKFBC5f7NUobJS61QuMiFoVGufab9gcpgwi/NoNErUm7WkF4nCsNwpR2ABUwq3yUZ11JbUwArUBIjcIBLTO9zuqWaX/jxbQccnQcYyYpBdJCCdfk0toMlBGnzePLbalytG+WGHtZoJQCrQy5i4wZ22iVzzUNBRKpwNFphFLG3sY1JZSD0GmDa89k8+o1PUYrd74mPNPDAi0RCNd0Vb5mFqgcamk8f5LCRbiLT0UOUyuFdsfUl4ON+hbEn0AL0E4aGcoY9GhhxsJjdhRap9E4rrkYwLYQpG1JKJEwWtpRpt2KzLhplaWdEV7/DNgCgdYCadsQK4BwjF2DQGB5w4AlBFgCpDQMoQVahhCRfIQdMSaGlrisEahG+3/M/SRhK2Qku1SZAbBsrFg+KpyXhUyBQHqml9spJTQgDVPJkNnw8aWWBjuGiIXQOo034/U0xq7AkjbSskHapsnamFMyVoAORw2zNAd+8ySWFQLLQmtvCUFh2zbkFYGKZ9Fbrt1tMCJQQiKkICwECDtTl7CQERvsGFqlDYYaLTR402djOFgowkiELdGkkVgIZXBu5+WjVBM4V6JRjf5MWxgBF5yHWNE8RCiMVsr/smgsibLwFRY22LbHsua2lBAvok6EqEprElYMES9F5sW9lvlt0tFN1Kc0dVoQLaxAC0gmU2ZCrpXR9rEiRCSeMd9zGN7Wvk1lgS3ACu+60eBNz0xj3cmYcuWVkXICLW1jF3rzPQIEnDVJ9G7ZKFfECP+pQGkJwkLajad82eQsjKbw+yhAZBOsFhLsMIhwYLCbYwnTQaWFLzCNQBFoEQLb3v374JolrgDQRpwYe95tgWWhZWBa2WiukxnyjGHioEgjhfR1sxYCLBttm5WVXCveHWGye+4KJ4+BhDR3hOUqa+HTjG6Ec0PkXi1GJMmsa7DBssAyjJ0jGrNaEsSXcDUP7oqW1sYETWHT4EBKhNChOITjbg2BOiIxZF4hiWSCnbX1rF79GYlEknPPmUlZeYXphQwhmqFz2wyQducbspm1ZrcL3sC6poP21VeQ1N1/HkHkDHLu/wjXtNQClbGc/Lcat0kgtMy9ZepBN2FqeaYEZDinsTRt9I72CMEjK01GiBjpuBt0YSmXR922oXGXwE2nhTYT5praWlLpFPF4nEgoklWHtxrjkbrWFgKo2llNKpWisLCQsB3GkLHOLPd64C6BK6Wpq6+jrq6OyvJKkB5rZISWz05B3HjCqpGpmFkIDw6Yzrxm3nVNuqaxlT2OGfNR+E0ILhcrr73aMwElgszcsXv3Htxzz91MnjyZYcOGkUqmqa3eycyZ51BRUZ5pU1PzGxdsU0bslhn8LvgIz5C139ksIsmyLpsFQYYZ/eHZ3au7eJ5pQQ4jiowG2rMP0ATR756RGoEkq0WKtDuWRiO8/Mqr3HPP3/n445VGK0mHvr26cdZZMxh38ASkt1IlBI4GIQXPPPkEt952F5u31eA4ipClGD9hLGedMYPefXpmeB9Dx+vWfcVjjz3J448/w/addSilyYuEmTz5UM7/8bnEC4uw/L4207/mHgXw4pO5T4FBwt89/rIWDV1tIfxlpqCQMosWQQiHI4waPZrn587lvvv+jgBOPvVkBgwciGWFMgzWzDju1s3jX4OvSTjfyJvffe1NgWeqZYjGrNkL7XDTTbcw56GnWd1QRKLL0YiSNlibP2fDsgVs/sNN7Kyt5ehJk3wzJZlM8be77+X2P9/HWqstus9RyGgh+ssP+eq5xWzbvpMfn3cWQ4cOcTW55quvvuLvDzzIXfc/QVVBT1L9xiDCMfTyt1l39+MsfX8p1//pBtpUVDRLKP8e/Ov1aq19h8DsKpsWukJAJBJh1KhRtG3bFiEk7dq1RVqW+3z3gm0vMUULeJDBvzFSHHfp86P3lvDssy/zmdWF1JgTSbQdiIjFCdVvQ1R0Z9mHjzLn7w9x0EFjKGlVhNZpqnZs54/X30pD7ykk+xyBquiGtCKIjsNxlnfkuUVP0PuV1+jSpTPFxa1AaD5c9jH3/uMFNpUegDhgKg1l3ZAihGgziMT6xTz/1LVMfvlVjpkyifx4/neFpm8UhBDYtk3nzp0BfA8KnVNmV9D8lm4LfAPgrvt4E0d3CfvlV15nQ7WN6n0YyW4HkCyoJGHFqStoR0PP8dR1GcsX66vYsH4dWghqqmu44cYbWfXFFlKDJ5PoMJhEtJSEXUBDq67Q/wdUF/fnxdff4/0lSxBoNm7cxMKFS1hdbWGPOpG6NoNIRIppiOSRqOhOuvdEEgW9uPGmW9myect3jahvFFTOKldQQ+xOU7QwxV4GrT23ErPLb2mzUvbZ6rU4xe3RFd1I2jF/icJBkowVky7vho6UsmP7DoSGRCLF/LfmI0vaU1PQHkeE0EKiBCgsEnmt0YUdWfrRKv758T9BC1atXMH8d94lHSsnWdkDxwr7ZpXCos7Kw+47lveX/ZP6+t1v2u5PkFmkMcwgpfT/7Q5azKe9DNpfqXInidpd2LAs0jppNie1t3lnykjtYCvHXZIM7BADaMfsCfnrfMJfhfY2TJHuPpK0sH3PUFdTAdpd4tMChJNqfu9gP4RcTfB1F0daNMVeBo+AzTKURAmzZNqjRzesHWth40pCqVrA8Zcv7dqtiI2rEMntlJQUooFYLMqRRx8FVeuJV31ByEl4PIYQDuGajchtnzFiUA/6D+yPFoLuPXpwwAEjsOo3EVq/DFul3CV1C6E1caeW9IrXGTN6OPF4/DvF074ELUyxlyGzZeJJakPJE8aPpXOJjVj2HKGPXyBWtYa8dC35VWuwlr2AvfotunerpHWb1mgB8bw8Zkw/nZ5dW6PfeYDYqteINGwl5tQQ3bQcFj9JecPnHHHwAQwYMBANlJWVMXrkUPq1jZKa/yCR1fOJJbcTS20n76sP0Qsehq0fcO45Z1BaWvrdIWkfgxbzaS+DxwTBOwLo168Pp55yDOqBx/nwvfuoXfs+orgtYtta4hs/ZGSPEk455UQKC0sAkNKisqycCy84l/vnPMvKt+4gve5DCOUj1i2ntHYVxx4yhAkHj6OosNDbq6Zfv77MPGkSf/7bI3z+6m2ILsPREuw1n1CZXsuoKYczYfwY8vKac+/5z4IWptjL4G0WKvfK7LiDpSXTpk+jY8cOPPX0PJYv/4x01Uqi+WG6DhjAMVMmcdBBY1zDy3gH2OEw5577Qzp36shD/3icDRsWka7VxMsiDD9yPCeccBzdu3X3PROE0FS2bs0Jxx9DfjzGc8+9RFX1Aurr6qnoXMqECVM5aeoJFBbtnQAA+yuI5qJ5tMC/D0GXMwOOe23OC3jm1ebNm0k0NFBaWkIsFkULzwXEeBtoIdEoJArHAS0tNq5fRzJRT0VlJbFYzPid4R3E8dwgXLZSmlQ6zY4d29myeSu9e/fxl2iU1lhWtjPfvgLfRTSPFk2xlyHolOBdZ/yEBFU7q9iwYQM7qqpwUmk2b95CZWUF5eVlhMKeg17AgU9rtm/bwbr1G6ipqUOrNNt2VFNRXk55WQmRcAijkTJOgcpxqNlZw7oNG9i2bRsoxcKFC2ndti3t27XdvXvHfxi0MMW3AIYxXGdAITFnIzQ7d2xn3ryX+NsDjzB/8YfUVNfTqX1bjj96IlOPn0y/gX2xI2HX3c2cqNu+fQdz5jzA3//xJB9+sppEKk23zu2YfMQEjp1yNAMG9COen+8qCYtkOsW6r9bxxmtvcf8/nuTVdxYglKRVQYiTj53EhRf8lA4dOmBZVrN9+E+CFqbYy+A5U2utQCiEligkiUQdD/x9Drfd9SBrnTLCw8+gVawVW7Z8yU0Pvsrb8xfy+99dyrCRw0BaSBwaUvCXv97H7665kUifw8kbdzSxUJQt1RuY/dCLvDl/EZdcfBE/OHwitjSHob5YvZqbZv+Zvz04F7vbgbQ69OcgYth1m7jt3gfYuGETf7jh97Rr0zrrrPN/MrQwxbcMGmO7v/PWfO6+9zE2th6NfeAZVBd2RglJSCWIrT2cxS//mYsvuYx/PHQfZWWtcbDYtHE9l866nMKx59Mw6QKSkRK0FoR0ivzuo1j63B94+635jBo+lPKycrRSLF38Ho8/+xp5B80gNf5H7CSGIk1YpSjp1I/H7v4vDv/BXE468UQKCgq+a/TsE9AiGr5l8I7lPP/8XDY2hEl0GkdNURcSMkKKEHVWlGT7QcSGHk29jrH6y7UgNVu27eDcH/0IJ1SCOOLHNETakLAiOJagwYpR1+0A6DaeBR+uZskHH6CA9Zs3suyTlewIt0UMO46dMk5KWjihEEmrgFS3cYS7jOHc837OmjVrv1vE7EPQwhTfMiih0SpNXW2Cwm6DCVV2JCVsvDAzAoljhUjHSwnlt6W2pgHveE1NbS2yoju1oXwTi0IrlLDRUuLIMCJczDvzl7B08XsInWLJokU8/cxcEpESqvIrzVlwKUApHCmoDRUTGzERK1rUsiQbgBam2OvgRbGQKEJYypwdi0RjkKxDp+oRpDAhc8x5eZRCpJM4qTrC0QhKC+NyrkHs2E7UMUG+pJZ4UYmEUkiRIJ4XIhqNIYSkVUkJrVu3JqSTRLQiLSw3QIUFShNOJ6j/fAU63cCeHK39T4EWptjL4GCCOnhLpAILKaBVcZzqlQtxvviAUKrOOA5KjbDS2PVbkV99gKzbSGFhAUII8mMxzph2Gqp+PXnbPiXs1CGFICTTCBzCqZ3orSs5/qjxHHHE4SgtGDJkCEdPPhK7dj1F697DdhqQWqO1RAiHVqmNOF8sZNLhh1JYULjbvvynQAtT7GXwj+pr4z5ujqILzj33LA4c0gX7gyeIL5tLSe16CpI7Kdq0ivA7D5H/6WuMP2gE3bt0ART50ShHHfUDWldE2Tbnakq+eJX8xCbykvXkb1yG8/zNyNXz6durC506dgYE0WiMPr26M7BdjO3P3kLByjeIp3cST++goupTtt17Jcl1iznvR2dQWlby3SFpH4OW1ae9DBKFUPgM4QgTa6mivDWzfnUR8obZPP/qzdS8djfKCiETNbQpkJx09HjOP2cGkVjYbP4JQUWbtjz66EP89PxfsvzxK0mHSlDChkQNPSuinPbTM5l89CTCkZDnUM6wIYP59X/9jNv/cj/PP/prVF4ZUlhsT1djbVvB/XfdwgEHHEQkEv2OMbXvQAtT7GXIRNfA9XlyQ4Qi6dO/P5dcfBET3nqXDz78mG3bt9OxQwcOPHA0ffv1oV3H9u6GnwUCbDvEyJHDufnm6/jnihW88/a71NXV079/P4YOG0z/fv0oLy91o5kYHVVYVMi4cWNo264dxy5ZyksvvkIoZNGl2xiGD7+EsWOMM2DLRDsDLUyx18FEaRW+IaXwYjtZVpg+ffrRrk07JkwYR0NDA4WFhVRWVmJHwp5PiK8pvPpGjh5Fv/79OGDUKJKpJOXl5RSXlhCybN+5wxw6MvoiFs+nf//+dOvalRHDhiAtKGpVQmXrNiZYcW4Ex/9waGGKvQ7utM0N64kwq0yG0M3KUVFREUVFRW4R5R4XdcNRCokQXlwuzD2tiMfjtGvfDkcpYrEYtm353/GiaHs+TcINyZkXj9G3X1+QXoA3L45Ui+dTEFom2nsbvEjl5hwoJlCyR4Iq4LYHwRN6XrBotxLXJDLX2o0weNNNN3HZpZfy4QdLSadSaGGCX5sTfJkgCYYB3Zi+wgt4rd3QOaqFI3KgRVPsZRCexHb9x3OzYgj/oXuhM9cZM9+V/i4DLV26lFdefplbZ89mw8ZNFBTkU1ZWRvuOHU1xt6wXhdDUIEys3syJfvyotS3ziSxoYYq9DgGC88OIeiCzipgABMIPMOCB1oJUKsWaNWt48cUXef211/hyzRomT5lCVVUVCxcupqTkYY4//ng6deqE8PKFEEiN5YV38T+X/asFMtDCFPsgZAwlEyKnvr6et996k6eefoYF775L9+7dOeusmRxzzBS2b9/Ogw8+xGuvvsq2bVuZOvUk+vXvR8gOfWOJO//ToIUp9jXwwtC4zLB8+XIWLFzIE489QjKVZtr06Zxw4gmUl5VjWRYlJSVccMEFlJQUc//997Np82bOOftshgwZSigUallq/ReghSm+YwhmhvWgtraWNWvWsGTJEp555hmWLfuIoUMG8uPzz2f48JGN5gDxeB4/Ou88bNtm9uzZ1NXWcsEFFzJ0qGEM/1uN4tp+fyErt4bYRYbVXUALU3zHEBw8pRRbtmxh/vz5PPHEk7z//hLatWvHpZdewkknneSXayoLqQB++MMfIqVk9uzZ3HzzzfzsZz9nwID+5OXlmaxJAfg+M4bWXoatwD0wSUdbAizv+2DyPmiqa2pYs2YNzz33HI888gjxeD7nnXceJ554IkWtWjUr6TLnvgUzZ86krLyM2bfM5tprr+Gcc85h1MiRFJeU+BLz60jN/RU8E9SyLBzHQUqJo93QdC1MsW9DQ0MD27dv59VXX+Wvd9/NmjVrmDr1RM7/8flUVlYCmLRU0kIp1eRZaunuW3iRtScfPZkO7Ttw8y23cMUV/4/p005n+vQzaFVc/L1nBo2JTqKVoqqqCqUUxcXFKOVgycb5LJqCFqb4jiCdTlNbW8sbb7zBnXfeyeJFixk5cgS3zp7NwQcf7Et/o+4tX+03JeWVaxZ4IIRkyJChzLr4YmbPvpVbb/sz1dW1XHDhhftpeMzgelzzIDDRS7788gtuv/1OqquruPbaa/087moPTCjbj9svaDTh8z4SBM8yld4v3ybO+OaYkCxePgCzHh7cn/VqUV56KD+vtHI3sJR5W0iTK66JBB2NlhsFmWSNEMgrJ3wPCy/vn7en23yi8yaGQoEWXrph3CixotE7QXBw05UpL3esJu04fPLxx/zv//4vL730MgMHDuDW22/liMOPIBwOBzb8sq1iE/5Ig3ZMGjQ/E5eb+c5sdLg54qBnz15ccMHPkVJw51/+gqMUs2b9inA4lHHt8PxHBLgnkEBkPLWy+5Z9T7jptYJ3zO678HHh/fOe7k5O5y5Hu/EX3JuNY1PlCgmlFMtXrOCA0QdQW1MDwJVX/g+FhYVmV9/dz9Q62Lrs/trCLWU+vPt1beklVQ8mD9QuwkTwFBgZ554mac/LsRokVun+tvxVGelHEc7NN5CDzCAz+EW9tGXm6KYJh4/LribJZHMgcNzmW+4hIdd1Qpg0wkIEM7A2DbZOo5VGSDOgSsHtt9/On268kZKSEm688QaOOupIilp5R0KbGwOP2CyT+00I45bu9tEwrPbHWgtNly6duOiiCyksKOAvd/6F2toarrrqt9i27W7yuQlNhATphlXQhkx2K5y1197gDnzAhUWbv5l0X7lJLpvooUqD9LLICjevh+O+5eDnu9PKHZFs+Pijjzj04INpqK8jGou6KQaCbOn93jU9ZcwnrVGpBrRKZQp6IjHrbcfFhxu9zg4jpG0ITLsMptI46aTr6+OOUKAajcgK/65xTYRQ2E1SbzKCCu2g00m0kyI3b3ZjqeX7kxonunDMJzKhHZSTNvW4eaLNG7thCgnSDoEl0H5ZhU65bQq4ZPjtkpl+Gfy5Obi14JEnn+Kaq6/l008/54wzZvCjH51L984dCFnCHE31hFPuuolL+V7/ZCiCtEIBHGhwkignhfZC+5OZULYpK+Kn582kZ9fOXHnFb1i9ciWzb7uV/KIiwqGIycft0bZWqFQSrZIG5wHa0bkh7v3/zS8rku+pH1NepVDpJHiJ5bVsTE85oIXGCkUQdgTHxaGUAp1KEJWaQtsirNPoZB1OE6doO7cpZ94zj2BFIhz+gymkEokAOg0OVcoEkcskLc2mJ9vrVjrtQKIeK12X9ZGgHPR4xJW5gEREFHY45k72JIIUKlkLyfqMVtEuTwfcGQDfyU0jcISFLeNIEUZjAwqcFDpRD+kGRA5TiF0hV0iTxSYUyYpjpJw0TjKBVGmk1kgvgXozkMJCx+JIGTLE7ponKp2CVANSp5EBt+ugqeDX4cC8117nplvu5MNPPmHC+AnMnj2bPn16EY1EsJx6RCLp602DVZ1Vp+fEZ0JtCnBSWNG42z9jdjqpWnSyweA8K7uoRAhBcTzK0UccQkVpKT/96c844rDDePTxR2nXoRO2kCZEpzROgypZi04nyMp7HfDSNdc6i9gQEh2OEzSf0qkUKtmAcPFkeVHXdwEaSAkbiURYIWMxCIlWaVQqQcxJkx+xiIg0MrETaaUbucTkSU3Prh3YXl1HyA65LJsxkwBEsh6RCmqQbDFk8mhrsCyJDkfcnM6BtfNgo0XmiZ/b2bIzNp3QCGxEKM81hRy8hLeZTNuZmpWfldtCCgusiDlJJkwaXSQQUiYJiTsI/lbXLnCrAWlZ7gC6rRcSyw67isuoYAflJqjfVT0CKSykHSGYWVUAwg6hhUbpUEaBa0/iuIyuNZu3bOWaq//Ik88+x5Bhw7jtttsZPGQIbdu2IRyyzdwgCTgh4yju4tcJtitAeJ5Nru2o0ageU2iFsKOYmLFpv7xhKOG/HQ9FOHDMaP569184/fQzOfKoyTz7/LN+hECPFghFTNQPrdCNxGIQAuPpxa8NaBM7FCINJhADjhuBZHfmoYUI2e7UVLnMqBF2mGQoTIOjSQsbHYqjQrHAZDEDIcBKQDKVxtGeojKj7jYsoPUat8fO5AGT6FDMIHyXTdZZUgwwqld4Cc1NHmzsEMKSeFmPRXBKq4MMpL2fRsJLK1NamzbJUBjssBkcEZjYNoVbEdRCOfartLEjFto9r+DebKav5ltCmkqNOWdmsNIOo+2wvwTqlTXt0mzdto0H5zzAvffcy46aGi759eWMHT+Ojh06EsvLMwd73EmqDMfcRCp7BsKgyv2uMXsUEmFHkVbYDH4Tc0PPqrOjMOLAMdz/8MNMmzaNE6eeyp13/pm+ffth2xZSSkQojLDDfs8ytniwXtF4YpczvxJWCEtY7iGmzPJGcxBy56LandeYOaJE2BHqHcHOpEMDIXS0ABGLN8FkRp/KUJK0o43ZKzNaWAiBDscba6zApe31T7sqcLeDk1uXrz1ExpZFIIQdmAgFJUrjCr1w9dKbU6MDql+6O7Yiu4Jc3Po2caA/QXBXo4RHUU2qbxoLAAAgAElEQVS2JRcyhG4Ekju5xnLbrNyJtym3edNm5s6bx2OPPcbnn3/GiOEjOHXa6QzsP9DfI/AWerwE23u0b9CIxrV/8CiIiow3bMbO998I5PO2rRAjRx/APfffzw033sKFF/6Sc889myOPOpJWrYrcBYRgHdnWQyP87OLaaCqZTVe7668/D/bMM0+ISpSGtHIFkXDnjjKnZRqj8aSN0t55FdMXlbV5l0NAgUvba0eGnHcDuVIouJzqfd61vTMdEl5rM9eBCaVRZe77wugK7/QY2mNY3FUR971GmlwbievPU5oYRqFzbu5ugNKuhhJmXuS7fpvavVW3urp63n3nHe69915WrvqUzp0786uLZzFk6BB6du/hVebq0uBg5OrdXUBuM7U7UkIYzefdDhwG93Ph+YIquzpbwkEHHkhhQQF3//Vubr/tNr788gtmTJ9O27ZtCXCvW3lj2tiTtgtvDH2Tvjmc68wYuYGotWuKGlMq2FfvjVzhZ94PhUIcc8wx1NXXEYlE/A3QJtvo9s8Df6K9p9AINaLRj8ClF1PCuwxInpz3MrrANUYCfJMxiXbTshykNy4u/Dr2iBjxNszwhWX2/ohg5YoVPP7E47z26qtEwmFOP/00Ro0aTb9+fYlEIn67M8dJc7+w+7Y0ei24UReQ5hmzKXA3cI4iA6YxAhg0cAA/+cn53HbbbTz++GOkkklmzDiDTp07uQIpOFTZteyObvxWCHeutVutGDiQ5V4rbwMz2PZmv27GOB6Pc9FFF+IoRX5+3JjiX9ch8OswRm4j9qxE8+X2ZOPw68Du0b8nlXiSJePOba7giy++4JVXXuHFF19k06aNDBw4iMmTJzN06FAKCgoyxOj//Tfbsgdvf62ZSaBB3bt357zzzkMDz8+dC0Iwbdo0unTpTNZBpX+nlXv8fk45bfZ4ctssRJOl/YehUIgBAwb8Cy1tcfPYIwgS+Pr163nrrbd45eVXWLlqFW3atGbatGmMGTOWrl27um94gQb+PUL6NqF79+6cc8455OXl8eabb5JKJTnllFPp1avXHuWe/j5BC1PsBjwpqbVm4cKFPP300yxetJh4PI8jjjiciRMn0q9fvyxHvYyFlWV87PPQq2dPzj77h7SurGTevLls3ryZaadPY+TIkYTC4e+6ed8atDDFHsCKFSuYP38+Tz31JFVVVYwaNYpJk46m/4D+xPMyDnYe83i/93Tmsi+Ap9U6dujIzB/+kOKSEv5y553ccOON/PjHP2bcuHGNTvLl+p/tT5qxOWhhigAopfwJqFKKtWvX8tFHH/Hcs8+xaPFC2rZty9k/PJuDDzmE0tLSJr0ts+/tX0TitT0vFuPUU08lFApx4w03cMONNyKEYMyYMYQDGkNpbTwZvmcn+lqYwgXv8I3jOKx1j4IuWLCAt99+i0g4ytSpJ3HKKafQunXrzHLS9xm05sQTTqC2upprrrmGq6++mrNmzqSivJxu3bpSUVFJXl4e8P1hBg9amMIFT0omGhp49tlnuOCCCykrK2PmzLOYPuMMunfrRijkRsj4vjMEsH37dlZ/8QXJVJIOHTvwxhtv8vLLL9OxQweOPe5YRowYSY8ePejRowetdnMycH+D/YIp/JVpf7fau87Z9cx6w9v/CDh9eQcrdrHW7TFGfn4+I0aOZPzYccy65FIKC/J9TRIsm6lJ+8vOOnA3d8dEB0pknmp/H+SbXZT+epBpt+CLz1fz7HPP8dhjj7Fu/XqKS4oZdeBokvX1CCGZ/+4C3nj9TcKRMGeffTaHHnYYHdq3/94wxj7JFEqrLB8pwN9IQuMmXje74OaphdQYvyuhAQeU5W8AemcMpMsUWmQHLdYupwk08bwY02bM4LRp07GE68ullEmo4rnH4zfJuBJohUS4CeA1jusWYrtzbfdUCMr1QhU6EwRNee71Wrq7+d7OvjS+GU1zyzcOWmkUmvXrvmLWrFm8++67TJhwMFde+T+MGDUCS1po9/CX1pq1X6zhltm3cNVVv+Htt9/md7/9HWXlZf7y7Z4ECNhXYZ9kCuMz5e2AmoM9qXSaRCKBUg4CgSXDhPNiAFjCxGj1hLBAglCkkkmSDQ5KKxwBkVCEcNhGWi4zaG9nV4DQKAVpR1FXU4MQAkdKotEIlm37zOAPtHY1FZpkMkGiIYlxdYZwyCYSCYOWvjemKSkRSqMk1DfUk06m0ZgTc9FwlFDYOD76q1gB79y9DVIIamtq+PnPf878d+fzP1f9htNPOZW8aJREIkV9otagV0LYCtGpaxeuuOIKunXrym+v+h1aaW648Qby4nGs/XxfY59kCghKcUN0y5Z9whvvLGD9xi0I7dCxXQXHnngipaVlbnRWzwYRCCzqa+tY+P4S3n5nPjurdiK0ZsSwYYwaNZKS8hJCdsjd9hd+SJSaulo++edyHn30ceMtqhWHH3Iwg4YMprCoFVZgpQUg7aRpSCZYuHABr7z0KmltURiPMXRwf8aNH0s4VuD2RXnOKzhKk6ir57EnnmDlylWk0w7RvDBjx45h9IhRhCORgImn+Tr71P8OOMrhtltvZdmHH3L11dcwdeqJREJh6hvqeWf+fN587Q1IpwmHbLr26s2kyZOJx+OcdeZMQPKLX/6Cc849m+HDR+zXWgIAvQ+CoxztOMr95+jrb7hJt+vYS0dKeumi3kfo4h6Hahkq1wMHD9PLPlqm005aayepHaW0o7VW2tG/+O9f6fKKzlrEOuvSQVN0vP1ILSNt9CFHTNZzX5ynHSellVJaKaW11nrTpi362t//UYtQvrbyuui2436ko2W9tIyU6KMmTdGrVq7U2i3rvbNkyRJ96inTdChcquOth+iKAUfrWEV/XVrZSV9wwUW6pq5eO0pp5SS0dhJaOSn93pKF+uCDJ+pYfntd1n2CLu5/pA6V9dZFxW30f8+apTds3qCVTmqt01op0/9vA9Ja6TFjDtJ/+MMf9IYNG7TjOHrp0qX67BnTdPv8mB4SzdeT4hV6SDhPt2tVpE87aaresmWLdrTWVTXVun///joUCuvPV6/WjuP4OPp3Idj/6dOn61AopH/zm9/o6urqb+wbubDPagolNFIoZt98O7fc+SC1nSZSNOY0Gko6AA4l65bz6Yt3ceppM5kz5x569eqGpdNoJfnTLbN5YM4TyEN+RknfiaTyigmrFIWr32fp6//H3+99kE7t29OrZw8QsHHTZu695wGuuv5Oiqb8P8LDjyERjhM/+r8p+fhVXn3uDn53zfXMmvVLunfrDBp2Vtdyz/0P8sz8VZQc/2sYchR1VgGR+p2IT15iztMPgLqEG268DnOOXQCSS2ddwSdbbOJn3U66XX+0HaY4WUX6zTncefdDSK347e9+iyWVGzr/2zFF/vqXO1izZg29e/WmrLQUgeCRBx/k82dfYVaoN2PsCgodSUPU4VW5jVuff4np06fx9FPPkB/N46133qZj+w58tXYtbdu0yYpMuL/Bvmv8adi+bQfvL/2QHSV9kWNnUNV6ALV5lVTH2lDfcTR5B5/JllQxd9z9N0DjCIED3HbrXdi9fkCizyRqinpRF2lDdV5HdvacQHrQFJ588xP+evffUVg4yuLzz9dy/z+eJ9JrIs7oGWzL70ZVpA1V8Y5sHzSFwkPO5NEX3mD16tUox5zeeuSRR3nhzQ9QA6bQMPxUtuZ3oy5WQU1xF+r6TyE1ciqPP/M8H3+8HISFowXX/P73vPfhGhIHnUFt5wOpyW9LTbSc7fFu6HEzYfDRrPpiE6s+/RytBI4WGXfwvQwvv/w6ZWUVlJaWYlkWf7rhep554AHG1MY5vqGSPjUh2tdZdK8Nc1x9Ob+werBh1So+//JzhNQU5OdRWlpCfV0dSqlGq3X7E+yTTOGtss578UXe/+AT6ks7U1/Ri5SMo7WNEjbJcB4NrbpSH2vLC08/Z1ZutGDbti1U19STGnAEDa3akAppHGnOlSftfFSfsSTaD6CquoaGRAMITdXOGlat3US4zwEkoq1MzAhhCDJltcIZdDj1Ip8P3l/Ktq3bEAg+XbWaGllAXo/h1EdbuStaGqUt0vFSVMeBpEQB6zduNO7PUvDJJyuIdB9CqqIvqXAU7+yhkoKGeBlOeR++3NTAogWLjO+/lO7x4L0LGqitreP000+nU5fOKDQ7d+ygRzrCaFlKScrGUpqQUthK0Sot6ZWM0C4Fq5Yvx5uXtWpVwpKlS6mprd1vGQL2UaYAM72sqa6hoSGFlhG0tDBRLczyqnbAEWZRqL622izBIqmrq8PRglS0ECXDoOzAuSiJHS3EjuabQAbppCFLnSaZTuJEWrkxogRKmvPJQgpkuMAcJqqvw3FM2Jv6+gZS2IhIHIVEaYHS5my5khY6lIe2TQxXKUyQhHRaEYm3gnAMLUJoLdHaQgmTO1XYEeoSDlu3bfOXiMW3QFxm1dmhvKyUaNRlVuVQHIpSGIoitEKjSJt1bKSGsCOQacWaNV8hlEBoiZSCrVs246TT+/Vke59kCuWewBo8eCCdOrQhVLcZu267IRI0QoOlFVa6jlC6io4d2yPcKB7lFZVYQhP+8n3shp2ZdX8NQimcdStx1q0kYlnEIjFAY9s2hfEYsnoz0jGMJxwBWiGUgg0rEcla2rfvSLygACE1lZWlxKklvWUNtkq7G4MCLE0IRV6qGuo2Ew5b5pk2S687li+Eui1IpbxGAYKwdrBqNtGhNMqggQN8zfNt+RSGbJs3336LTZs3mRtS8mn9dj5L7CBpeWtnkBaahAWbo4pqWzJgQH/SwiSsb2hIMHDAQPLy8vZbhoB9lClMxk7o07MXA/r1omjrJ4Q+e5NIageW00BINRCu30jkiwXkNWxg5lln4GhAaGLRKIMH96Zh0ZNE1iwmktiBrZOEdB3xrSvQ7z9Dv1LJmPFjkJaN1lBZUc6YoX2pXfQkRTtWEHFqsXUDtk4Qr19HwzsPMKBrG3r36UEsFkMpxaDBA+nYyiax/DUiGz8m6tQQdhqIp2qJb/6I+lf/TnFhiP79+qO1OTb6swt+QoFVi7XgcaLbPyOsTV+iTjV65Vs0fPwS5a0idO/V090YzI2AsvegsLCIl156mQ3rNwBw0smn0H70UF5iM++Hd1IXgqSEmhB8HK7l4cRnbLMF3bp3w4v+s3XrFipbt8aybRPPdT81ofbN1Sf33Hc8ns+xx07hy43bmPfuPcg1H5HfujcqlcRZ9xH25qWMG9mLIyYdDbjxVJXisst+xS9+eTn/fPV2wt3GEC3uAE4DzqfzqaxewbEnH8n48ePdPQ1Jp44dmX7qCXxw6W/Z8sT/EusxBt2qAru+hvrlb9FRreP8H59Kzx7d3FAwimHDhjLtpGOon/M0H7zwJ6JdRyLyS5E7t1C34k2Kd67kV//vF7QqKcULmjBk6CBmnH4Sdz3wDDteqCLWaRBWJJ/k1s9JrHiT8T1KmDbtZEpLS/2d8G8Lzjn3XBa9t4ivvvqK+voGevbty6EnHM+cNV8x++NVjAyV0joSYyMJ3kxt5qvKGLOuvILCwlak0inuuOMOdlRV0bp1axP6k/3XUdC68sorr/yuG5ELfgwQLSgtL6Njx3bkU09q7cckv3if/K3/5IAOYY49bDinnHQi3Xv0cF0tTNSI9h070K5NBaGGrejNn9GwcgGtk2sZ3i7MiZPGccwxk+nQvr3vQhIOh6isKKdNZQmRuk2ILZ+x46M3aOesZUCrFOf+8BQm/eBQikuKEVgIIC8vRru2bcmPSkTVesSmVSQ+W0Cb1FrG9izlnLNO5thjj3XPaWt3A8+iU6eOtC6OUZDeTs2qxag1S+hqbeGokT04a9pUxo0ZQyRsG7cU121lTyJl/7vQrl07Xn7pRRa/9x49u/egXbv2lFVUUNi6gur8EB87O1nQsIl1bfMpO3gkU8+eyfEnnIgVCrFl21Z+8pPzmTTpKI499lji8fg3NqfQAX+qxx57jGXLljF+/HgOOOAAP+7uNw37pKYwvkJGJ0djUUaPGk77dm0Yc8Ay1q1bT8i26NmzBz16dKe8vMJ3PzCBDgwBHXnUkXTp2plVKz9n/fp1FBYW0alzB3r06EZpaTkZp0GD9JLSEk46+WQGDR7Mp59+zldrv6SsooJ2bdswdPgI4tGwmYC7vkgCKC8v5+hJR9Kvby++/OJLNm/eQklJCT179qJ//35YtmV8ogCtJVJIunTpwPQzTueAMav5eNknVNfU0LpNJf369qZjh45EwhFMaNJg4OtvAecSfnj22Vx55f/w4EMPUlJSQo+ePZk0+RgGDR7CiuX/ZOOGDRQXl9CrTx969+mNHQpRVVXFH//wR/Ly8vjZT39GUVHRt9DavQtC74OGn7fG7bsZiUysc/eOK+SF2Rgj6H3qlfAjywKZOOe+b2ogZItxHNQonanLRFU3gYxxD9OYtrjs5NrRnp9WJiyaH6nMjRLjfl8ppJQoUpi4tNL3ncq4/3pOkG7wYDdYk/wWzCiNRinNfffdy8MPP0zbNm057rjjGT16NK1aFbkOmW7YawF1tbUsXLiQl156keeem8sFF17AKSefnHUI6ZsAD28AM2bMYM6cOVx++eVcdNFFvkb6pmHf1BT+GR7PIc69D76Xpg6IUOM96znsuWH8XULy4wO5mx9+jUL7cYQysQo1TjrNqhUreemlFxkyZCgjRow0oesxZozHCOZjblh+926mfo+hm3IGl5keCdzVMcMAnmNixt39W3Qdd5n8pKknIYTkoQfn8Oc/38H8d+fTr28/OnboYMoB1dU7WbhwEQsWvEvVzirOO+88Tpo69RtniO8K9kmmgIyW8KUvQfbwiwW0iQ7cDq7aeKsgOTGFfOvJI2ZBOp1m7Zdfctdf7uJPN93MEUcczmWXXcqwYcMIh0PGvs94svsQzL4hfMnf9ERZuDkWtN8bkanDfy+TTsDs0e/9YdKuu3s4EmHatNPp2KEDTz39FG++8QYLFyygvKyc2rpa8vPjRCMxPly2jIEDBzJz5kwmT568306qm4J9kik0wZWLxglEMjEBGgXTNOcSAjeCGYBccvO/YUwoQ6QNDQ189PHHPPHYo7z11pv07dOXNWvWcsvNt3DqaacwYuQIyssqTNQO/wyT25AAc2a3Ktjm7JZmdJbIuIsHUuIIsuvc25C7WjR+/HiGDRvKRx99zOJFi1mxYjmOk6a4pJjBg4Zw/AnHM2HCBJPn4nvEELCPMkWuhBWNrrJnn0GJuyuLI0iUmXmFOeSzfft23n77bR5//HGWvL+EE48/gS5uDKd77r2X6/7wRyYddRRjx46lX//+FBQU+EGgfRbTwe80xxTBzaHgrCen337xb2eI/MNBgXsFBYWMHj2a0aNHfytt2Fdgn2SKbwsaGhr46quvmDd3Lnfe9Rcqyyu4/NeXc9xxx5m9BaUYP2E81/3+Oh586EFeevllTj31VMaOHUu7tm2JxWJZWuH7JjH/U+E/lil2Vu1k0eJFzHngAd56+y2OmXIM5//kJ7Rr1w6EMAkDgdatW3P99dfz9ltvc/sdt3P1//6ON8eOZdq06QwePJiCgoKsQGgtjLH/w38cUySTSaqrq3n44Ye5+aabaVXciosvnsWMGTP8MtplCCmln03zwIMO5KAxB/Hoo48ye/atXHbZpRx33PFMmjSJzp07++FeWmD/h+8tU3jbL8Ed0WQiyXvvLWb2rbfy+htvMOXoycyaNYv2HbIjUWTZ/4GD+FprjjvuOAYPGsRtt9/ObbfdxmOPPc6PfnQuxx13LHl5eVhW9sSzRXN8N+Cd6ZDSLGLkXjcH+6RD4DcBSikT8c/9nUql+Os9f+Psc8/lo2XLuOqq3/Cnm/9Eu/btvtaBGCEEXbp25brrruPRRx6ha7eu/OSnP+W0005j2Ycf+sgH9luHuP0ZNOC446619ulASomUco/G+nvLFN5SrBCChQsXccaZZ3LF5b9mwvhxPPTww5x+2ulIsWdICoJXXmvNgEGD+L+77uKhhx5kZ3U1J518Ctdccw2bN29GBxKMtMC3C0opNqzfwLXXXsvVV19NVVUVjuPsUWJ5YN8MXPBNgeM4+r7779fDhw/Xo0eP1vfdd5/esmWLTqVS/qF3pZROp9N7FCDAC3TgOI75517X19fr9957T//XL/9Ld+3aVQ8YMED/+Y47v7WgA99n+LqBCzZt2qSvvPJ/dFlZuc7PL9D5+fm6sqJCr1y5co8DKkiXMcyifUAKah1MmBhgIpQ59qYcv6xSXh1esCwFOg0k0aSzvIMyW2cKcMw/7WDyPztoZbJoeqkDTT0O+HdM0C4v76p2S2utUMrx+/De+0s459xz+PWvL2PEqFFcf+OfOObYYygpLsKWGVcNIQSWZTWZg0FrnWmLzuxm4/k/YXLPRaNh+vfvyyWXXMw99/yN0aNGcsWVV3Dqaafx+eovUFrjoHG0wlEKpdx+6LSrUTx8qCY1jA48B4MrBShvd12bYGZox+BLp12cBs9KO2jcZyoFOo3WTpbmUxr3HISTGRsPv02ddgo0wnwjmH7LBIUzbVOg0rAH2lN5tKI0KALaPJDTW7BLiW9ZFm3bVjJ9+mksWLSAp55+hmTK4YwzzuKzzz8HTBywLDrP6ZtJGeze1o6XyN0r1MTJL4HbOYnGwgpHEMIKbGKZ9X3lJE0i98z2L9kbbDrAdBIsG2GF0VKYSH4uIWjHJIbPJIT3iCTjgud76CFJYvPc83O55ppryIvHuezSyzj4kINp37YNIYnJ8Z3VmV2DQCLCYbSwMbnvXC8pJwUqhVYZZw0LKMqLMnRAX9pf/N/84LBDueHGmzjxmClMmjKFn/7855SWlGQ297RZ4dLppGHmLJxnu6wgZMAVUmOFwwb/whCx6YeDk06BchofYQ26trjfUcLCsqTJES4k2vPrcsfOBGhQuS/nVOuehRQm5TR2JNBuZRJ7plMmjbF2Al4AzeBcSIQdRkvbDyQntAInTUQ4xC2B7SRRDdU4VmOCzo8Ijp10BJN/MJGKNm3p1rkTtm3RtWsXYtGo+X46YWhqF/3yV58cx4GGWqRjkm4Ln+JE4EUvgbw5v6yFhSNAhtyPCWEkUKIeUgmEm0e7sQerG7zMDV+pkTjSxooWIAjhhcPXThonWQeppAk36Un3gAuf1640ko3bqrjqd7/nzfnvMnzYMM486ywGDRpIYWEBUqdRiTpEOukGOWgCITnjpZQFIo4IRdEy5NKUwknVo5MNWF47dOb1KJoOpfmUjRtJ2+JLeOL5F3nmySd55aWXmHHGDKaefAqFRUVorUmn08hkDdJJ+F6ojffDBUoIvGiDCo1yYtgx4xNmyjqoZAMqVY/082h72jAwdhq8dKJK2jhCEo7FEZabJFeb/qlEArzk8gBCBeoLDmRglU0KKKjISCmhUMkEOplw2+SNX3PaQuBoCxHLR4StAEuahPd5EgpDFhGVQDa4yeVzxk0gKI6HUcKmYWcVp55+JlVVOzjrzDMpKS5GK41I1iJSCRc3OT465OS8UwiUyshjb7wzryg8v1LtmhW2RxhCBF2B0FohdRrhebS65QweTZgYocwTR3qZi32jyRCI8FSza7L5zCBQfmZRQSKZ4LU35/OnW26npj7BmWeeyeFHHEGvnj0Ih23TNwe/Xumq9UYyS2dfKAGWd8AniAj3mKhWnnmRecfUK4jFogwZOoiKdu055OAJPPT408y+9TaWfvghM2eeTd++vQnZLlEr85/vbJg1SMrFqTLBEYTAdj18hbdcrF1zQmtQKtBUN6Wx3/xMEmeJQsuQMTeVQljCPRfuGYyOq7G0i3dywu2Y+66TO5KQ2d13tbYwRoNrJjouHXh17UpbKFdjBZzxtVuREGhXMHr90dr/nN9nY3Ir6urr+P31t/DSSy9z1W+uYPCQwUQiUYTQKO3iwRNmObTgJ5eXloWIxCEUziogyKIG95yBeSKRiFAEhLf2q0FaWJEoOmSD9g70e2EtXcL3Vb5Au7FcpbTACmFyZ5tvCRnCiki0HfbtUeERnqtNNm7cxHXXXc/8hQspLavg1xdfwtChQykrLcWyvBzcGmnZiGgeqKgr3Zv2Ucp0XGMJC2nZmISQLmMLiRWJQSjsMqoil1SMdBWENHQqLKVT916079aL119/g78/MIdZs2Yxfvw4Tjl5Kl06toNQBPx9EuF/K/M3o0GkkCaJvNsmIzxsRAgsabkmq9s97bFA0CNXeAOPlp75JHx8aCmwonG0igTMsGyP3gBxYHktldJPqWzG1ULaEXNq0MN5U3VkiXmNJQRYJmOSdFlDCIkIx6jVku0pRcKOofNaQV5eJod4YASqdmznz3+9jwcefoTrrr+e4088nqKiIqPNEIhIHBGOBjR8zpzCb48QCDtEo6CBjfCQqcAczslkEPVKCCsEMpRBZsatFc9m1i5D4KM7o03MSrHRPMKyTF1a+caAAKp3VvHO/PnMefBBPlj6IccddxyHHHYYI0aMMBNnfyPOa6sNwTzK3mmhZvoqffNRZBGFsEIuA+ug+e8ryyCuHGUS0vfq3Ye27drTvkMHXnzxRZ6fO5f3lyzhuOOO49DDDqG8vMKtI8CsPto86e7WKrzc0hkXeSFtkN7BJS/ndwbnvqexxjVPvTsyt9sI20ITzprbBHGZC6LRL7ddUphI7Y3KZSB3CDI4D4gEIcCKkMKi3oG0sBGhKCIcI+P3bGDb1i3839/+zt33zaF3n36UlJbx7oJFSCEYO26cMaVDzZ/7yOYA0UTDAzeyZdaupKzOUmvkSD/vcJA3JNnT8Iy6zjEUswZ19RereejBh3jjjTdRWnHhRb/gyB8cQXFJCUK6ZkTOCLr6IlOlN2neRV93DRmt6U0ysz+kc8qa8P0ayC8o4Mgjj6RX71688858nnv2Oe699z5WrlrFUZOOom+fPuTlxTL9980pmaU7RIDYs5jVZyZJ9hgF8OmjMaiJdpGwOQuHu9/PyWWajODLurqbOUQAACAASURBVJP7lRzIXQX08ncIsg+OufSTQ7Nbtmzlnnvu47PPP6cgv4CbZ8/2V5h69e5FYWFBU4uqWZDFFE2WzaWbHNfopt4RrurOzNatRiUzk+bgp0SGmbLKm6Bg27fv4L0l7/Hkk0+xePFiDjpoDBMnTuTQQw81NKRUI37K7kt2Gxq1PUfq76KSwN9sbdPUpz3WzwhATdcuXenapSv9+vblySefYtHixSxfvpwDDjiAQw89hN59emfqES6uXJx49LHL9glPtATxGzBdmpy34Nff6KZfTjfxfDfQiPqaXNj1ITt5ZlCz+bEU3SeeaBD+fMKD4uJipk+bRn1DQ9aSrdaagoKCLHeeYLuCtTRhK+1GXAbOTjd+N/PXTJIbo6DJV3368jqrsxGqNV9++SVz5z7P3HnzqK9v4KSpUznp5JOprKx0zTh33bpRF5q0hnfbV6Nsmh1C9/9sjdZI5mpv5SJz8s/r55AhQ2jbti2vvfY6L774Ak8++RRLl37A0UcfzdixYygpKQmgUPsmU64ED0r87NZ5v3PaJHJLBKrIfd/Xus1x4q5BNHOVe70rnGdGKpummtJvlZWVXDzr4oxWE9Aot0iTX9gFUzSFq6Yr2JOrXKJrpuKAZvftSPfRjh07+OSTT3ju2WdZuGgRHTp24PjjjmfiYYeZZCrgOnoJdh2h20PKrpvQbMN2cW9P8CUabQqKrKO2lZWVTJ16IiNHjmDu3Lk8//zz3HHH7Xz22SrGj59Anz59iMViGZOh0SEmkfN3N00SzZRphKCvzwTZ1f0r7zchvkT2dDorZdsuvpF1f4+akSm0T3rJely+Yf0G5r0wj+eff46t27YxYfwETj31VLp06dKo7P4MQgg6derEOeecw4EHHsg999zD448/yfvvL+WwiRMZNXIkPXp0R7i7uy2et3sX9kmmaEgkWLVyJc8+8yzz5s2jdetKLrrwIsaNG9fo3EIwofv+DkJA//79+MUvfsG8efN46qmnuOlPNzF8+HCmT5/GkCFDiMVi33Uzv/ewzzHFtm3bmP/uu9x7zz2s+nQVB084mDPPOIM+ff8/e+cdn0WV9fHvnZnnedITEkISeu8gvUgRUJogdiwIWFBXV13ddW37Wnctq7iKDRcERVFUerEgSgcBQTrSeye9P88zM/f9Y8rzJJSgBASX42ckmcycObece8+993fOaXzSdy7kkdNR6vANjLTKlRkydCh9+vThyy8nMmHCBNauW8tfH3mEFi1aULNmTTTbdLyQy36+0nmhFFJKDh48SEZGBosXL2bMmDFUr1adZ55+hi5dupCQkPB7i3hW6UQdWwhBamoqf/7z/Vx5ZV/+8X9P88Tjj9O2XTvuvfde4uPjqVu3LtHR0SXcYS/SmdN5oxTPP/88EydOxOPxccMN1/OXvzxEvXr13L//r46IqqpSp04dxo75gOnTpzPirRH069cPQ9eZMXMmXbt2vWhSlTOdF05GQggWLliAoes8+dQTPP/8c9SrV+8Ps1Y4U5JSEhUVxS233MKPS3+kQ4cOREVHk5OTg67rZTO4SL+KzouZAuC9kSP5+eefuWngQCpWrOj6015UjBA5M+aUKVMZN+5DOnTscDFgwlmgs6AUNvbG+U1a+8rSRsSiCJAmqlTQhUQREoFCt+7d6Nqtq+VUYuqAajm8COt5B5wmhQChopZyIz2Rk9D5QaZ9KKVgmtKGrUsbm+TEkbXPZYRwYe1SKg441A68Zr0j0UmIjeHP9z+IqQmE41wlLNyTELqFdkZFsavHEALFRssiTXTFioroMQVS0TGEhgN5vEhnQSls1xnLMQQAgbAjfB8+eoTFCxfi9Xnp2bM3nkgLaariBWF1bAUFU7EaUgBbf9nM2nVrSUtLo02rNkRGRyJMI4T6sSM1nK8kpdXRJTookiAqCgqqDYnesGkTGzZtpGbNWrRsdgk+n8+Ki2sd01uBEARW3jxpElQ01q9ZxZpVy+nQsSO16tbH54tww/I4YEqBM7NAYV4BG9avY+PW7XRs15omjRsgUAhioKGhmZwnhvT5QeU/U4SBAAWW29+adRsY+d77zJ4zH79foiCJq/A8l/fszpuv/ZvjN08Eq5Yt57X/vMHyZT8TDEhUTaFOnapcd/3VDLz+RtLSUk8YkuZ8IyGszimxct5ppgRhsmD+fIa//jar128moEs0VaNJg9rcNuhGBlxzNRUS4m3MjzXIFBQHmD5pEsNfH8HRjDwCxUEiIyKoUiWJZ597hq6XdSHC57NSgtm+FYcOHWDSxMmM++hzDmdkEggGifBppFWMY8Q7b9O+XUtMqWF5p1zUCofKXSkUEUI1SlR++OEHq/H3FmK0/xOyRgvwF5O540cmzfoBs/hh3hrxJh6fFe5eSsn8+fN5dfg7rD0CxmWPEkxrgMzPYuu2hbzz/hfs2r6HF198nujoaOD8Vgppu+5avsaWKfnNrK95/Y3/sjE3kkCPxxCp9ZFZh1i3aR4vvDqKzZs3839PP0lMdBQSyM0vYOq0GTzz7EsEKrXBuOZa9JjK5GfuY9OKKdz3yJO88vwT9O9/JVGRUUgpKfIXM+ubebw9Zhr+lDYY3XpjRCUSyDnIgXXfMuzuPzNj2mfUrNkAqYXHTb9I5a4U0jGQpcmRY0eZv3AJPx8ohi7D8NfpjB6ZBDJIRMXqqIlVmDL1NXpcPpP+A64k0uvBBEaPHsvGnFiCHa6nqHob9MgEFCOAklKXvDUV+GndSn6Yt4Crr7rS+ibnb4Navt32GkuAIg1Gj/mUHVTD6HotgcotMHxxqClF+NIakbVyIsvXbmT5suX06HE5EklmZjb//eBjCpJaY/Z+jKLEmphaJGqlRkRUqsWRGcMZPXYCVStXomOnTkgUvv/+Bz7+fCrplVpBt7vwx1bD0KJQUwrxxdUka8Z/uPnmwcyZP5/Y6JjztwJ/Byr3OTM8asfWrdtZs24buXH1KK7XneKoSgQVjaAaTWGFWhgNumAkN+abb77FX+xHmILZ337HunVbKarRjmCttvijkwiqPgKeGIoT66JX68DubJg2dRohjP95vENVCtE6eeJENmzcQX6tLhRXa0sgsgJB1YPfF0dxUh2MKq3YsL+AKdNm4EQmycsvYMOWvWiX3kJRcn2CnmgMoeD3xVKc0hhvu+v4eU8Gu/bst9ZXQrJjx162ZQTxNetOUYW6+LUYdFQCnmiKUxoS1/NmVq/dxL5dOzGdfOIXCTgLShEeWL6wsIgiqaIlVcf0xoG0U19JiSm8BCIroFSoxpw589D9xUihsGnDJnIL/BTHpeL3xSOF6kIgAkKjOKoi+VoCRw4fLQEiPl/Jzf1tDxU/Ll9JXl4RxVEVCWrRmKhIoWCiYAgVMyaRAjWGQ4ePYgiJHgiSfvQoxbqGXrUJhtBsJLTlGR0QEfhqXYJfjSA7Ow+/PwjSJOD3ExQ+lLgUTMUDquJCkHVPBDKtPggPeTnZmNK4qBJhdBZWVw402ob5BouQxTkoGO6oKbHsa8UwMIsKqFevLpomMIUkJTUVn1fDowdQnB0s0ww5LRl+RLAYRbGdMUv7gJ5vJMMVA2rWqoMvwouQAYSwfbylFbRASBCBYigusG1CBaGqRMfEIKSJVpSLsCNrSAFCSlQZRMk6gvAX4vFqNiZKQagKmpBoUseKxiHDYOMmHj0AwkDzRthuuudzJZ5bOitbDs6oU6N6dWpXSUYc3Yrn2BY0/FbnMA18Rj5RhzYTPLiO664fgNcXiZDQuXMnUpPjETtW4EnfhccIokgDFZ0Ify7q0S1UUvPo2rUTbkOexwd8Ese33JpD+/TtRWpyDL4dy4jI3ItHBhCmiWrqeIO5KBk7qJ2g0Lv35QgEikcjIT6WhCgFsX4OEUY+ij1IqASI0fMIbJxPncRIqlSpjKapSAGxsTFE+DMp3Locnz8PzTRQTR1VmEQWHaNo8TR8GqSmpqEp6kWVCKOzkEfb8pqTCGJiYjGNALs2b+Do7h14FAUPEm/BMSJ3L0df/jk1fVk8/vhfSU5OQRGChIQE0tOP8stPSynMSscjQFUlvtxDqJvm49sxl+6NKnLfn4aRmJgYiuxxnu5ASdel0wrdklAhkYP7drN15TKC+XmoQqAKE2/2PpRfvid67yL6tqvNPcOGEBMTi0AiDZ3MzGOsmj8br8eLEiwiUjXRDm9D3fgdRaumckv/zvTp3YsKFeJQhMDr9ZJxcC8bf1qGDJj4VAWfCKLs3QCrpxNcMYm/PzSUPr17o9j5qM/HGgzHvV24ebRlaF3hi/DRqUtncnPz+XTiV2xYNIpAXBWEBE/uPlpV0Rh084PUqVUbTVUwpRVxaOBNN5Kbl8/shavY8+M29JgUzEARSf5jdLqkBkMGXU/tOrXL8Pg9P6iUlycANw+6hay8AuYvX8bBwxswY1IRxbkkBo/Qo01dbrrhapIrpeJ4rcdXSOTee26nuLCQhWumcmhDNCKhKjLrEGkRhbTp1YIbrh9A1appOKFqmjdryn333onm+YR5P83i0M4lKAkV8WTto16sTqchffnb3/+O1+exgq1dJJfKPY+26ewGOQ7yCDKzsli+dCkLFy2loCiAAGJifPTq2YNu3XoAJkJYYUmt5aPCnr17WbBoIRs3bqUgvwghTKpWTaPHFT1o06qVe6jlhng5TxtWSsMOEqCgYGJYibnZsnUzC+cvZvv2Xfj9BhJJ9eqpXHFFd1pc0sI59QPARMGUBkf2H+SLL79k977DVhgsqdP8kkb07N2TapWrWgMLgFCskJXAzt27+Pqrb9myZTsSQXSUSpvWrenVpy8JcXHW7p2w4kmdj/R75NEuf6WwQ+SGoq4p7hatwIq6h7SCqkmpIYUVOcppHEsoe68mrLxKifFWAqpbIecztFxK083hrdgYMGspZwWFDC+nk2xeCtVe7NnrETvJvBUtz0AqKkJaHBQnHKWteCWieEh7rgnbixDYbSRUVOm0i2n7QZ9/dfiHSC4vbHhHKLyN1QnCG0UKYUcOBITVkIcOHSYvL4/q1aoRERFhPWy3dei81Q5xUqoBz1eFsMgJUGaH17TiNNsdPTzjt1NYxUEHAlg7VNIexW1w4N79+yksLCQ1JZXYmBgU1YnOZ4UEBTtgmq1INicLdiMUJJob1tKNF3uRXDoLh3dO0DEHmBb6TZHWpdqhLIW0Ax1LySfjP+G1V19l44aN+P3+0KGXO0EIrNnh/BzRTkZC2CHf3U1ZOyyzEJjCmf/sI08nubwIG0Kk4obUd8JgTpo4kdeHD+eXjZsI+nWcwceadZx6s1XNDRIlQlvhtvIIJ2TORZBHCToL0PHwBOluQCdCp8+UGBmlgGOHDvHG6/8hv6CACF8kjzz6CDVr1LDsXNsOKDkZXDgNKKUJYR0zhEkxLfSwWxTF/VPomEexVk0iZBRl5+QwZcpUNm7YSM0ataheoyZpEZWswzn37XDgi3QnIdM226y8GpZvuBO69MKp0bNP5TxTSJx44FZfthpKCnvEUhRQ7JjSNh4oNzePke++S2xsHN0v68a8eXNZ8dNPFBQUugGgrAjnVrINs5QfxflO4YeLIavIOrBT3LWXgpvrQToLbHt9gaVQQigEAjqffzmJ7dt20OWyrrzx5hvM+moGGZmZ1vkmdke3vyMQKNLh7UqEtM1bC2AgLxpQpaiclUIg0MBxWXFPUMMvy242paCosIgZU6Yw4t2RPPfcs3z+xed06tyZUSPfZ/myZeiGbu+fKyhoKEJFEWVntzy/SLH/E64jj0CxAj4LxTUTLcPKDjAcFn/XTjWFaejs27eHF557jhtuvJ5PPv6Y3r178+QTTzJp0mRysrIQTtjQMKMIm5+weSkIFLQwuRQuhj0oRWUmADsLZJqmDAQCcuWqVTI2LlbeeOONMisrSxqGIY8cOSz79e8vO3XuLL/99lsZ8PtPK0/ZH5l0XZc7duyQNWrUkM2bNpXp6elunr6bBt4kExIS5JgPPpB5eXmnndftQqFfm/OuPOicb05LaaVxTU9P5/777qd9uw6MGzeOOHvPvGLFZJ59+v8wDZ1nn3mGefPmXWAzQ/nTgQMHuPueu8lIT2f6zJnExce7KXA/m/AZffr25Z1332XevHnn9fb0hULnXCmEEOzbt49bb7uN7Tu2M2LEm3i9Vr4AJ35Ri5atePnlf+OLiuKDsWP56aefzrWY5w2lp6czYcIEtm7ewsJFi6hatSqaqmKapp37QjDqv+/TuFEj3h85koULF14QJ/3nM511pXBmBmkvkDMyMpgxYwY7t23n0/GfUr9+/RLZSRVFQVVV2rdvxz+eepLc3Bw+/3wCe/fscROFywtoof1byClfZmYmkydP5v3/juL222+nWbNmqKp1aKmqKqpira+io6N5+JFHUFSN4a8NZ+4Pc0vU+f8amabp5s12+h9w2vVxzmYKRyGmTJnC6NGj+fMDf6ZLly4njMIhbEBb506duWngTaxa9TPvjRzJkSNHzpW4vztJKdm2bRvjxo2jb98+PPzII65CHE+Cpk2bctedd1Jc7GfEiLdYsGCBy8f8H1KMUMcX6LrhnoibZmjnsizFOGdxn3RdZ83aNbz/3/dp2rQpd9xxh52153hywr1ERERw9dVXc+DAASZNmoSU8PDDfyE1NfVciX3OyWmwFStW8MSTT6B6NP72179SoUIF9++lFUNRFLxeLz0u70EgGGDMmDFMnDiR6jWqU6tmrf+pDdfMjAw++ugjvvjySwCEohAd6eOjcZ9QpWrV00JUn7OZYu26dYweNZrq1avzzDPPULFixZM+a51xWJ0jISGBoUOH0r9/f+bMmcPIkSPJzMo8N0L/TrR+w3pGjnyPvLx8nnn6GWrUqFEqEHNJcu7HxMTQq1cvBg8ezIEDB/joo4/Iy8v7HUrw+5FQFKKio2nWrBnDht1F0yZN+OmnVaxatRJ/cdFp8dDAGZ2cKeXUTp6yxF+saSr8cMg5xQ7nuW7tGt55awQHDxzgH0//g4YN61Min7LpIJ4tUFsov7bFr2qVNIbddScCyaKFC6latSp33HEHmqYSFmkqTCrFzogT0nknO1Iou2rZleNmRyLcj6lk7uyyh2GnFPYpjcA6oEPaEBCbuX3YfeDAQWZMn8G+vft47NG/0blTR8uT1M6IJKVhl1e1Q0NZ8BAnJVpcfCx9+vTm8OFDTJk6Fa/Xw18eepDY6GirneyD1HB4h1tG+8BQ2JCSsivJSUEs3MPC8EoxHV72b6d1bm57HFoHjIpdX6bbAC5WTJrgxhYL9dnYmEj69+vL5d27kZySwqWdujB16jQSEhJRVQ2E6VT3Sck1n0zTgGAR6H63XCdCxMiwRpZSILyRqJqHUApbLBfUoJWc/PCxDL796iv27tzJHbfdzKUtGiILM0rwNFExEai+aCvLp3OgJa2k6Rh+qifHMuTGq5GBImZOnUJibAzXDOhr4UKl4cJBkApSVcEXG6pUDEw9iAwGEGbQThRZtp1toqJ4IhAeK0WvVZnSkkkPIDBKNMjJ+ShIoaH6opCKAvZxma7roFsJ4aUJGTn5zJo2g7nffEOHdi3p060DPqMACguQgCkUa/TQvCjeSBtVZimaqfshWISQBokRcF3fHhzZt5svP5uAMAwe+NPdxERHAIbVlYWGRLVk0jy2opoIDAy/H6EHXNfXUOOfYJZy9UBAZLyLTZNSIvUAZrAYYeo2r3D4yYlJoiI8kUiPZg1uCLsfFBBJkHiPwGf6oSgHRMDFjjmkArFeyZyv5nLo8GG27NxDt26XUbduXTRNs+QqLgAjeFLEl6sUTiFEMHyKCZ9BnOcsmLGJikRBVTWkqlp5lO3hTho6BIvIyDjGjJmzWbBwEV26dKJ/n55EewB/viuOEGAKDRMNVYuwOp+dS1uYJlIPQLAIBZNa1VK5pn8fjh09xpjRo9DMAP379UQ4ieeFjT41NfDGhBQFiWkEkcFiFCMADoq3jAWXREMqKmgeZwy1OpRhyYTUKTHjHUc28E+qSMWL6vMhpYKi2KEypUTofmsgkgorlizhh9mzadSgLjfdcA3RPgUC+S4+SUoVB0lrJYEPmwkNHYLFYPoRQI3KyQy57WYKivxMnDiZuOhI7hxyM5EeBy2rYuJB8foQUgvNtNKqKxEstvzqS7R/qS4ksVwBsDZHRERcyUdM3Wo/w/JHPy6X4Qnry2OlZEZ115ZCShQjgBeDSAU0GYRgEWbAGT9lCfH0wnz2bN/CkaNHmTxxGg0bNyE3N4fU1BQ0RSB1P1IvPqkUmlM6RVGQ3ggrb3VYqU+s18KOKCcQHq+V102GhBOaF8OMZMlP65jx9XdUqVaDgbcOIjGlMgI9NKXaLpCKA0DQtLDRXYCioXgjQdWwxhBo2OwSrr8pyKhRo3nvgw+JjI2lZ8/LCSV5F1ZHVrBHJxsuoXrBJxCmF9wuXppK2kSKXT5nFnTveny27Gapd4/n6AAspFBBaPbawDKAFFUBbySoHhYvWsLYj8ejebzcPmwYTVo2R2CEpT9WQgB8zWNFOQk3GDUPkmiQEXbZFBo1u4Q/P/QAWmQEU2Z8Rd16dejTs4cNx1dAaKB4kEKx4ZvWd1SPDxQVUUIhnAFSlLinOCaFDd9xyy2svOwKUQjTa9dVaRP9RPWlWjnK7XCjjq+I8EQSQCPfgIDwQkQMIjIa15wNo5gKHq667joCwSD1W7Thmeee5+WXX+aVV16hStVUhC8SoXlwjMbSpLlNJ1SEJwo8JVcNx5M47u+l2QrVw6r1q5n2zfckJFXk9juG0rhp0xLPux0YG1LugAaxp3EprWTpnkjwRLhPx0TE0r5TZ4p1kzEffMD7Yz+hVsMm1KtX192K47h1gEBoXoTmDbNDT1TG0o0lcXJSW+sIC5gnPBFIzXc6FnLYqstZo4QEU4WK6Yli684tfPLlVDLyCrj/viG0bNveTnIpS3EJpxDsXIDVyKrmvuHgnBo3acq9997Lu2+/y5hxnxEdn0iXrpeFBW5WbHGczKsqiifS7gdlmzslSZRciqgehOJxjOqwmj05Xye6pKOi1msK0hNFMRr5uiSoeMEbi/BFl5wpgPz8fLbs2EvzNu1RVBV80Wiahwmff8Fjj/2dKlVSEZ4ohEdwIoUAWynC8fvOluDJJrnSux/S7mThzbbpl018OPZDjhw9xj33DOPSjh2tTmGPJKElk/vZ8H8IoTwJq2GJY4vHxcbRrVtXBJKRI9/nvff+yz/+8RSJSUn287JUFxKhRPdCdfmVtX0vRShjs6Ugdh2hhGzpspiIkj+6i2y7RIcOHubLLydx9MhRhgwZQr/+/dE83nAp3DoO3QnfNLQXy/aPpbuaAOrVrc+gQYN46eWXeePNt1E0H506dbI3HrCjoDvDlB3t/DjTWZRdX9IkPBe2CJ9F3GfKMFmFDYq0a8hEWiFHcWO0u2ZVCJIf4n30WAb/efNtWrZogaKoLFi4gOIiP4MH30ZSUqLNVymhoqWpxJZsaMfoZNeJSISQzkBGZgZffvEFO3Zsp2/fvnTp0tVaPDuLJhy0prTjHR1vk1vOqi4A/TgZBBAbHUPXLl247bZB/PDD94wdO5asrCw3+razHx1+4eyqOKE9T1nW4ztF6Uosu75CgdBKBEWzD5CKioqZNWsmC+bPo0PHDgy46io3Pm74d4VQSlwlOkQYovZkl8frpUnTptw+dCgZmZkMHz6czb/8EoK1h/EKl9yZb0ApUyEgvI/aXOQJrrLqW5T+3SS0bjuxEOEHcpqmERUZwdx5c5kyeTIeTeOWW27i5ZdeIjU1zZ0VT0Ul82iX0upfSzk5OcyaOYvlK1Zw+eVXcNPNN1mjN5SY5kqIdMKZ1CRsAqVk+N+QiRMbF0/Pnr3YunUrI956G6/Hy+Aht1EhMYGT5dQON5DKOsRxtxtPUichV9lT8TjRHetcYdmy5cz66mtq16lDnz59SKqYfBIu4hS/hZskJ3tbEB9fgZ69+xA0TN4aMYK333qbl195mdjYWIQiwp48seSn1zeOr/PjhpXTrnPnRvhscKJ3SzqgVa9elXfeeYftO3Zw6MBBmjRrRqXkZISi2DO1bdOcQo5yO9EWAhYvWsTHH4+jdu3a9L3ySpIrJltzQ9j2p5SWnW5ZM9Y+9/GNHDIvnN9CDe8YrdaCvGLFZB566GH27zvIP//5T2Ljohk4cCCxsfElCu5MuSdr9BOWyZXi1J2yLC7ulxxzRQg2btzEW2+/RXRUNHfdNYyWLVv9Co6lqayyWLUcFxfHVf37gyl57rnn+eLLL7nl5puJjo1xfblDdVaapzjhrVPeOM6cO406L6EEgFTcAe706l3g8fpo1KgxjRo1JjyelXPIWZZillKK3zZLCCHYsWM748d/SlJSRe64404uueQSR5QSfEsLdMLMoPba4UR/ce6GDx6JiRV4c8Qb+IPFvPjSK1SrVoOuXbuGAiCc8Dtll/VUT4gynwh7zvGGs/89dvQozz37LLt37uSpp56iefPmp91gv15Sixw7PTY2lgFXD2DP3j08+re/kRAfT58+fYiJiUYoqmuKnFCWXynaiduvjHdKPBI+NJ7+V5STPHy6dVsuMI9jR4/y3PMvsHPnDm6//Xbat29fHmx/FUVHRzNmzBjatGrNSy+9xLp16wgEAm4j/15oUVnKIMjPy2fcuI/Ys3cvjz3+OP369y+hvOeCYmJiePjhv3BFj+7ccfvtfPfdd+TnF5asp/9hn4wzVgq/389/3vgPK39awZ133UWHDh3cBI7nuiMqQuHdd98m4Pfzj3/8g3Xr1qHr+hmMwGdOpmmi2AtY0zSZMWMGH437mMGDh9CzVy+ioqJKyHeu6szni2Dy1Om079CBO++4iyVLFlNcbB1oObPa/yqdkVIUFxfzw9y5TJ02nQcefJAbbriBChUq/C6dUErrADK5Ugqvvf46+/bt46mnnmTt2rUEg8HfbaZQhAVbDvj97N27l9eGD6d5EWV9qAAAIABJREFU80vo1asnFZOSfj+5FCtO1Ny5c2nTpjXPPPMsa9euo7i4GHke5xA8F3RKpXAcNMKdNYLBILquEwwGeWvECIYMGULtWrXo3q07iYmJJd4/l4rhKKKUko4dOjBixAh2797D4088wbTp00lPTycYDB7nfFLaEeVMKdx/wbD5G4bBpImTuOEGKx3yM888Td26dV3b/fd0BBJC8O3s2fh8Pl577VUmTZpERkbG7zaznhd0Kgdu0zSlYRiuk3xOdrYc8eab8qoBA2RsXJz0en1SURSpaZq87bZb5bRp0+SxY8ekYRiuA/25cqLXdV3q9jffePMN2a59OxkZGSU1VZMREREyNS1N3nrrIPnVV1+5QRIc+Rx5z5RM03RlyM7Olh9/8ol84MEHZXR0tPRFREhFUaRH0+SAAVfJ4a8Plzt37bTktuv3XAcdCG+fOd99Jxs3bix9ERFyytSp50yGsuj3CFxwyi1ZZ7TIzc3l29mzefXfr7J//z76XdmXP91zD1u2bqVixSTi4hPYsmULD/3lIerVrcujjz5K9+498Hg852zE0fUgM2bM5NFHHyUnO5eBN91Ily6XsWH9WipXrkLF5GRWrVrJsGHDaNasGQ888AD9+vUrVxmEEJi6zuq1a/jLQw+yc9ceOnXuzH1/uo+s7Cz0oE5iYgWOHjvGu+++xycfj+fRvz/KVf37ExsbC4S2Dc8Fhc9Snbt2pWvXrrRt25Ya1av/TwdAOKVSSCArO5upU6fy0osv0qJFS8aOHUNaWhqaphEIBCxfYVXF7/ezatXPfPzJx/zrXy+yf98Bbhx4I3FxcWe9ENnZ2bz44r8YP/5T+vfrxwMPPkhaWhqqpuEvLkbVNDRVpaioiJUrV/Lhh2N56aUXycnJYdCgQe565EypsLCQuXPn8s9//pPExApMmPAKDRo0wOv1YhgGUkpUVUXXddLT03nppZd55plnSE9P5/ahQ4mLizunHTHcVdPn9fL8888DEB8f/z+rEMDx5pMzpZqmKdPT0+WoUaNk8+bN5O133i537tgpg4Gg1A1D6rohpS6lNKxnddOQeXn5cvu2bfLRR/8m+/btK7/88kvXLChvc8o0TWmYpszKzpajPxgtq9eoLsd/Ml7u2b1HBoJBqZu61KX9bdO+DEPm5+XLBfMXyMGDB8vOnTvJCZ99+pvlCq8r0zTlokWLZK/eveW999wjt27dIouLi6Vu6NI0TBk0DWkYpjQMU+qmKYNBXe7avUc+9NBfZPPml8jXhg+XWdnZ5VI/jkkYLpthGtI0DWmYUhqGlIapy6BpSNOQ0jANW07r0k1DGtKUuqlLQ7fkDkrTrkPrnmlKaZqGlIZf6mZQBswzNz9PRL+7+SRLbaNu2bKFmTNn0rRpM57+x/9Ro2YN/MEgs7/6ik8nfEZ6RjrSNGnaqAnXXH8dbdu0pXbtOgwbdjevvPIKM6ZPp26dOlzSokV5KzLStE4ADh86xLtvv8vQIUPof1V/YmJjEMC0qVOZMOFz0jMyQEKLli258YYbaNGiBa3btsGQBh+M/oBpM2bS9bJupKam/qbRUdpmxurVq3n77bcpLCzkgQcfpG7devj9fmbP/o7Pxo/n4NEjSMOkYmIS11x9Nb369KFa9Wo88tdHKCoqZM53c2jYoCH9+5efSWdlSrWQuUcOH2PS5KnMmjmTQNBA1Tz07tONW26+hdRKKQhVsZy1HOCklGxYt57Jk2fw008/U1RcTEpKRXr37Eb//gNIqlTRBhdYeLY/UoKwk6b3Ss9IZ9asWaxes5q/PvJXWrVqRXZWFi889zxjxo8jS5NkxXgp0GD33j0smb+Q5AqJVKtWjUoplcjOzmLRwkUoikqnTp1KdLjymJolcPjwYUb9dxRrVq/mrbfeIik5GQn83z+e5qPPxnMwUEh+UjQFqmTHjp0snr8IATRoWJ+qVatSWFDA0qVLiYmJpmXLlr9BLhezyaKFC5nz/RzuvvtuunfvTnFxMd/N/o7nX3iBw/nZ5FSMJtenUhD0s2zBYg4eOEDtmrWoVasW8fHxrF69moKCAlq3bk1k5IkDOpwuueWwIQ5r1qzlqX88x8y5q9hhpHDQV4MjeR42/rSaRd/PpN2lHUmIj7dDdlrvL12ymHdHjuWrRRvZaSRxQEllb5bB2tXr2bp+FbVrVyO5Ugq4IE9xVg78ZNja5ndL7+XgkY4cPsLu3bupV7ce7dq1o6CggCVLl/L5pIlU6XkpKR1bIaIiQEoCGdlsn/UDI0a+S1JSIt27d6dnz578tOIn1q1fx549e6hRo4bLv7zoWHo6S5Yu4dZbb6FylSpIYPSo0Yyf/CVp3TtQo2VjtIRYhGliHMtm59fzmTZzBjWqV6dnzyto1qwZKZUqMXfuXIYOvf03yGZ1uj179rBs+XLi4+Pp3ac3qqpy+PAh/j38NbJiPTS9/kpIjMcQoPmDHF6wgumzv6XFJS1ITUulVatWNGrYkMysLDIzs9zIHWdKAjhw8CAzZn7L9z/vwdfpVoJV24EvCllcTPaxHcz/+nX+9pdHGTlyBFWqVEZRBAcPHODzL6axYGcBeS0GEkxrgumJoKi4gAN71/L9+u+QI97ljf8MJzo2BgveLl14zoVOxymFg6zdv38/Bw8epEePHsTExHDw4EG+mT0bLa0iNftfjqxYwYXpRVavQsMIHyvf+Yi58+bRoEEDqlSpSlrlyuxaupQDB/ZTs2bN8pPaHgGLi4s5evQYrdu2RQqBIU3eHzmShHo1qHrFpahpyRbcWkrUapWpGgywa9Z8lq9YQefOnahfvz4dL72UKVMmc+DAAapVq/YbRBHs3r2bNWvWkFAhgYpJFTl69CgffjSOddu30PlffyOyUV1MITCF5VBVPTqKo7v28uOKZbRu1ZIGDRpQuUoVVq1axeJFC6lTp/YZVU84lH/btu3MWfwzSoPuBC4ZQLG3ohX9XUpIq0OCLOb7iU+wY8cuUlKS8Xkj+Prrb/lh6SbSa/WBZn0J+BJwAIGRFapSKItZuWYaR44do05stIVQEsYfRilOgPW1UKjp6ekcOXKESpUqIaUkNy+X+YsXktakPiI5EUP1YAowhUBXNeIa1CG2RhWOZKSTlZWFEILExETiYuPw+wMl/RrOkBxYoGkYGKZBjRo1LCiFhB17dlO1fUvUpATLLRUFUygEVIWERnURibHs2rWTQ4cPk5CQQLVq1SkoLGLfvn2/WZ6CggJMwyAtNQ1FVcjJzmHpsmXEVU4loUEdTKFgCIGuCAxVQauUSHRaMgsWL2L79u1IKfF6vezZu5f169efcf04tSSAo0ePsf1gOhF1W5MfkYwhNAypYgqVQo8Pb9PLENFJZOXmYhhWrvPNW7YQiE5Cq96cgLcCUnowTRUTlWB0MsG0xhSY0axYvsJ1m/gj7VadxOlAoutBAv6Qc7dhGOTmZhMVE42VhcIajiQSYVq57ETYtqa0tx81j1biXrkXQAgiIywzTpHSgkh6NMvStX1WHOf6qOgofFGR+AN+/MXFrpOQaRgUnWZMoNLkbE4oqoLX63Hh5hKJVASKsEZYRSqoUkGY1ipE9WgcOXbUjcskAEPXCep6eVSLS4ahY5gSb2SUldrLwVgJiSkVAngAy8fe8XaWQuCJiETz+Nx7dmGtthcaUkJhQb6NdLSDKvxB6KSb8wkJCaSkpFBYaHWWyIgoGtVvwOGtO9CCOqppACZSmCjSwMzIxn8kg/joaKKiogDIyc0lOzs7zLmjfEkgCAQC7N+/3/H4oWJCBXI370QUWVEtTCGtZJOmJG/3AfIPHiUpMYlKKSkUFxeTk5NDZGQkldMq/2Y5VE3F7w9w7OgxpISo6GgaNmhIfkYm5BagSmn5oZuW+eTVTYqzcmjbuo0b6MyUksqVK1O7dq1yqx8JREREEKVKCvduxmsWoaBbi2kp8Bg64sh28OcQExWJpmggITk5GZl1EP3IdrzBIkA6mYhRgkV4cg8RJQpp3rypqzJ/JLTUcUrhTIOVKqWQVLESmzdvBiyfhWuvuZ6jG7eSufxnRFY2mm7i0Q3MY5kc+GEJ3qIATRo1plKlSmRlZXH0yBEiIyNdEwzKVzm8Ph+JFSqwes0ayzRTFK7s1YcjP28gc+V6yM1DMXU8hol+6Bi7vl9MoqHQrm1bkpKSOHDgAGvWriE+IYE6der8NiEEVKtajXr165Gbl0debi5JSUlc1b8fUVKw9+t5qEczUEzdil+UkcWxH9dQtO8IV/bpQ8NGjZBYqIHqNWrQtm27M66XcA/VunXrcFmbJhSsnUP07p+I9mfjM4rwBfOJPrKJ4JJPqF89mSqV02wEAlzWtTO1kn2IbfOJ2v8zMYFsvGYxEYXpeHctw7drMfVrJFv4LUAovx8K+WzQSU+009LSSEpKYunSpezevZtatWpx/XXXsXTJYtZN/4GI3fuJqpSEKgR5ew6Ss3Yzl3fsTIeOHYmNjeX7779n186dNG7ShLr16gEn8Tw9A0pMrEC7du2YPXs2w4YNIy4ujrvvuZs9+/aybeYPFKRn4klKQBGQvWUXnkOZ3HzNdfTs1QvTMNn8yy+sWbOGjh0vxePx/CYZBIKGDRvS/bJufPTxx/y0aiWX9+hBqxYtuf7Kq/jq29mIvEK0WlVAU8nfcwD/5t10atycjm3bkZAQz47t21mzZi3R0VHUrn1mi2xXLtusadasGfffM4R9+15m6+KxGHU6geZDmAHkrp9JzVrNffffTrXqVewsq9CxYwduvukaMsZ8yZ4fx+Gp2RbDG42ad5SIA6tpkhjgtttuJSkp2Q0moJR76/5+dMJzCiEECQkJSClZsGA++fn5tGrViri4OJq3aE72waMcWruJ9J83krNxB0lSpddl3bn/z/dTv359Dh06xKeffsqRI0e4qn9/Gjdp4o4kJV0efzs5axZd15k0cRIpqSk0bdqUylWqUL9+fdIPHOLI+i1krdlE/sYdJJoqN197Hddddy1paans37+fqdOmkZmRyV//+jdSUir9ZrkURSEnO5tVq1axZ88eWrVqRWpqKl26dCE3K4uMnfs4tHQ1xet3EBcwuLzzZfz5vj/TqGFDcnPzGD1qFCtWLKd3n75063ZZ+Y66AuLi4qhaJZmMXevRt/2Ib/ci4g79TLMUwaDbBjJk6G1hEBPr281bNCfGp5C3ez3KnpVE7FpKSuFOOjauzOBbb+Sqqwe4iTrdnOl/1HOKcPOmadOm9OrVi6lTp1K/fn369+9P3Tr1eHX4a2xYv4F169cRCOr07t2b1JQUFEXhyJEjjB8/nhUrVnDF5ZfToWPHknzLSSEAYmNj6dy5E527dObFf/2LunXr0rx5c1q1asWoUaNYvmw5O3buBCSXXnopNWpZEbgPHzrI+E8+Zu7cudw0cCBNmzY5Y1kaN2lC3759GT9+PB9+9BFDBg+mWrVqvPTii+QXFDB12gx0I0injh2oUas2Hq+HvOxsvvn6axYvWUKPyy/nmmuuPuO6OV5AiI2LpW+fXnTpdClLf1zGgcOH8WoKN918I5onEiFN1z/QaX1FSm69ZSC9el7O+g2b2L1nD9WrVaXTpR3wRUQA1hYz0okfZf5RJoqS2KcQVDyEm1m7Zq0cMOBq2aRJEznh88/ljl27ZXZOjjQNU5qGLg09KE3TkBlZWXLb9h3yhedfkO3bt5fPPfes3L9//3G4p/LC9oTzOnL4sBxw9QDZpm0b+dlnn8ldu3bJ/MJCqeu6DJqm1E0pA0FdpmdmyS3btslnn31ONmzUSD7wwAPy0KFDZwTZDpfj4MGD8tVXX5NNmzaTjzz8sNy+fbtMTz8mdWnIoDRc/FB2dpbcsXO7HPPhGNm5Sxd59TXXyPnz558VqL1pmtKU0sJc6bo0TF3qhn1JU5qmbmGyTF1mZmbKgsJCCwdl6tI0g9KUut3WFg5JNwJSNwP2+xb8zZRSmoZernI79Ltjn0qfI0gpadqsKa+/Ppznn3uep558ihYtWnHNNQO49NKOLkYGIZjz3RxmzvyK7du3cfvQwdxxxx2k2Hii8p7iSvNLrlSJD8eOZfDQoTz88MNc2e9KbrhhILVr18br9YCU5BcUsHDRYqZMsgKP3XTjQO79072kpKSc0eI/XJa0tDSGDh2C1+vhrbfeZsPGjfTq1Ytrr70OsKNwA/PmzWPGrJls/WULrVq34qEHH6R9+/ZnBa7turkKAYpqbV0Le4h3AxSYBHXJ5ClTqFK5Mu3btSchMdGJumBvx0gr77dtXAgn9bOzPS/UP8jRHafnZGSapszNzZXTpk6TvXr2lpWSk2VcXJyMiYmR0dHRMj4+QVasWEkOvHGgnPPdd64Wn0unGed7H374oWzTto1MqZTqyhgTEy0rJCTI5ORkef31N8iF8xdao1+Yg1F5zWC6YciCggK5ZOkSOWToUJlcqZKMi4+XsTExMiY6WsbHxspKFSvK66+5Ws7+5luZk53tft9C9J6d+jKllIY0pSENW1bdnrsC0jT98tChg7J1q9YSIeTESV9KwzSlIaV7WfNNqJymaVooZOevf9SZojSFO9NHR0cz4OoBXHXVVeTl5fLFF1+QnpGBlJIG9evTvUcPKiQmug7vpmme0206aX938JDBDB06lEMHDzFr5kyOpaeDkLRu3YY2bduRUCHBks8SslxlFEKgCkFkZCQdO3SkQ/sO+AN+pk2dxq6du5CmScXUFPr3v5KUSqmodoCHcPnPeo25obMUwvNRfPftt+TkZKOpCrm5uRQXFxIRGeVKZEWUD4W+kdJ6z5l1Sgc5vpDp1E5GYTGAXFJM4hLiuf3OO8FGRwphOekI20BwAp2dS3KcZQRWg6WmpnLXsLswsRaAFrRZcZtOII87gS+vXTEIebX5NC83XH89iqravtsSIRRr5ybsnfJwcipDsJC5iwQpMIWwY8fDqNHjaN+hA9HRMcya+TWNGzelXfv2hOIuhZTBIUU64fIB5bRSslwQVOZMcVzwMvsV70n29e2D5d+Fju9YymnbueWlxOF8FEUBJSTFiWQ5l66nwhIKsGZyVVrtO+y+e1i/cQ3PPPsU2Vk5vDb8VZYvX07jxo2JiY62dwyl7ZsRJm+Jtv6jqMQ5TAR5kc4/klJy6NBB5v8wl9eHD6ddu3Z4vF6+mzObd94eQYWEeG4bPOQP1N1Pj855cvmLdH6Q4zF39933kJZaiS6dOxMbG0tERARPP/00zZpdws+rfmbv3j3u8/8rdFEp/kcpGAwyY+YMfvzxRx5+5G9UrVYNRVFQhKBatWp0796Dlat+Zvq06W7kwP8VOg2lkGVcp0PlwaMsnuXB449aNuz0EE6uPUspXnnlFbp160bHjh2JjIx015CKonDdddfSuEljFixayMqVK92Acc7mS/iC+8zKVv71FZ5E3pH51/A4DaUQZVynQ+XBoyye5cHjj1k2KSWmDHXo/Lw8XnzxJVavWcODDz1IUlLScZsUlStX5sq+ffAXFTF37lzy8wsAykEpznZ94crpD/h58sknefChhzh8+LAbZqgsHidQijPV2rNFZcl1OiPOH7lspyaB1VF0XWfX7t18+umnPP7YY7Rt0xav13vCdzp16kSTJk2YPec7pk6favFxPShPV66zVecn42ntsgUCViSVjz76kPGffEJuTs5JZDqeR6ndp1IjwGnkmj6hXpXmWUaFnBaPsuQqdev4hWHpCihLqgupbGXIJUI8MjMzeffdd6iQWIH77ruPqMiok3KpWDGJm266if0HDvD999/To1t3qlSpEvpKqVH33NR5OC8JGJxohiksKOCN//yH9IwMy/tShg5qj5stStW55v5qSjD8YNrukM4hT4mCSpzsotJJdO7xIWxf6BAvA2kEQRqEsqiJElViJWa0/mQKDRTFSnsb5iEjpEQaQaSpg2m4Z6vW90udn0j7L0JYWVW1yDDZpZXT2Qha5ZP2x8voXCaqlcZY0ZDCSg8lpGnJZOiI0/A3k1JadaVoCM1y/XSSJUopQQ+AobvlOr59rUWAdKZ3geUPYcsUKp9pyWR7RFoZZt2/AoL8giIWL1zAt7O+4qmnHie5QpxVBmm7qUobyWTYdSVNWjauz5VX9ODTLyYyedJE7r7rDnxeL0gDxe6YEgWhaAhvRMkCSANTDyJMAyENu31O3umtnqK6mV5Np42kCaZOhDCJ1QReGYRAIWjOQXFJLtlZ2Yx+fzTFBQVEREQQ8Pstvw9p51o37DqXdhYtUVJ1NbvlMAwDxV+EYoR8l0/cSnZHECpS2il/vZGhXi5NzGAxBAsQZtDSK5wUXRKExMkQ6nA3hZXEXURE24ncrfNnaQYxA4UQ9KM4CeSxO0h4HClw801LhJV3W/URngnVNIKY/kKEHkAhlF/7VGQKDSXCSS8r7IyoVvlkoBhFmmXCG6wTdQ1D8eCJjrVklNYQYRgGSqAQEfTDKfhIrKBmJnZyecNEi4hyBxAhDSthur8IzKCdqqskPylUjhzYzxeffUqzJo248Zp+mIFCq4+qXrudrMHDCBRayeWlNYy1b9GYlcurMvurWbS7pCltWjVHkbo9pkk3RzieiBJVagZ1zEARwgiiyKB99+RKIRDoQkP1RYbyuVu9GBksJlKRxGsqPsMPxfkI5fhBqaioiKXz5zN+zGgee/4F/vrYU/j9fmtwwkRIgbT7VCjsSckTZ0VK97bl2I6wtFlR7UspcUnFi6looKhWtAy7YaTN2DrRtiETioJUFDvZe4iXUEL8paISPuBZjUNohnE8WNzvW3wUEboQ9nfszKHhM0p4lUthvS8VD1LRjivb8WV18q3Zam2LgoM4LeN9FAVU+1t2cICSPdWeOxVRBh/NldcUSqiS7FnErTy3roRdztB1NDOL6TNnsWbdOu6+925i42OtmVvYoy3ODGOXViiYwmrQ2nVq0bd3T7yahxkzZ+EvLrbeUxSEolptfYJZ15lFpFAww8pw6voOZbINT1ssJQgpMEyJ6UwPTvuE8TiWnsGXn31B5eo1SU1NsaIkSti4YSNFhYWhodj5jtNnwrLPas5HFVUFbySm5jlB+ULpGq3/WyOtgkDRQtO4kBITxRoxVM2a9qSjbGENJ8N5WfcVFFC9rpliAkLRULyRSM1nVYTbvUtLF26tWgUsWQhr9lC8kSC9bsUcn4Ky5DdUIexGDzMNUVA8EUjVE2abHj/Kh+rLQEjVAs4JxYUgAWiqiumNwpQRriRu2V2+oTsCCyqiqBrS+gkLkK6AFmHNjNKJsxIqWzAYYN0v2/h4wkR6XNGTPn37IhTFMngVzaov1yxVUDyRGKoXN3+3EDRt04E2G7bw7dffMHfJcvr1u9IehKz2FEI7TjEUzWPJLz1IYdp1fuo1gwoIzeO2kbDLongjKDYhVzfxaxHIiDhkRCi9slNT+brC6o1bady6LZ9M+JKiomJAMHnyZNq1bW3BVrxRSM1nB3CTYSa73S6hz4LUPCh4Sva6E5i6imtLizDhwx5UVaszuZztWcTV/FAjOE2OtP8V4Q2qIlQVocrQGqSUXA6P8OWDddNRFdvEEBqKZn3X0knFVc6TkYOfk8I22kz7pqKBGgqjc8J33Z/MsN9KgeaEQGi+En+1aqc0U7PEkBQyR61bUloyKYpqNXKJ1yWHDhxm/qIfSU5J4/+efhpPRDTWoGbas4HVUa2llkRoXrfrOmNYWtUaXNGrF8tW/MTb/x3DpV26k5RcMbQ+CzOJ3QFBKKgeb6n7p65zcJpFhM2CVvkKpUKBKdEVDTyRCE+k20gO1woplel9w40Yuo5pGghFwZQmsTHRKIoFYBSqN2RZH9exQHMc3EuZVSE64c0QtM1h6Tzmdvfw9Zb7TPiToQcU+wEzjEfJ0fcEwp2sbt370lVBcJTGMYXK4BHOLkzZwvNNO/8vG/1QCgbotkHp2bI05xCZqOEv4iapx1II12nIWfgKq5MKJIWFhSxZsoRvvvmWu+66i8pVqoBw3lHdzm9ZJGEbIY4MdtVLKWnXti0PPPAAzz//AlOnTeP2229HVVXLSHLMOff/IWUrWbZTk0lo1eFkhHLPUMLbIpxnWCNUrlyZV//9b0BQXFzE4sVLyMrO4YknHqdq1Sph5zEnGag4K4BAGRqtThcvI0r8AyW6c6mHfiWFxq/zhMKKcXrL/TBVcHwvCG0vhlexsz4MV6CtW7cye/ZsatWqyW233Wp1fCmPM2PECae8kpJJoVC3Tl1atWzF22+/Q6dOnWjQoEHIv6LUaFM2x1PTb019Zr0i0TQPDz30F/x+P0lJVgjV03ER+A3YJ1nqOtHfse1UB60fWhCeqJAhYyy80kSp69dJUZrDmVJ5AuIkvy54mFMGxd1EONH8IsL8NCyTIi8/n6U//si27dsZPOQ2EhLi3dktPIypFYzNGplLXHbOPisfoGWi1K5dm6FDBuP1ehg1arQLowhFAik/ON1vSo2AM+sJVFVl0KBBDBs2jPj4eE63Nyi/XhPL7o4lF76nzzX0w69TiLK+VF6KUZrnuaLwNhL2TonV+RSkFJhm+DOWZKY0+ebrb3jvvZHUr1efq/oPsJ87SccVCgg17Cq1O+SaaFC9enWuvfZaZs2axaZNmyylMo8/RHO+FD48nm1y2toxvVRVxRowQuucsiRRfr02KiWu0CecKlCxUngoYXfDhTr+eyXEPB07/zgpTiZnOLPyU40znYHC5T8dHqdqI0tJQkpj7agI0o+ls2bNGurWrcsL/3wBj8eDqqqWh+RJ2uBUl+V5Z72fmpbGtddei6apXNmvn52rXHG/rwC2Bp5OdRwnx5mSoiioiuKuH8JnxnMlw0X6nclpbMM03Zlz6rSpfP/D93S7rBvVq1Uv9282atSIqVOn4C8uZubMGSV8zR3//AvVB+OiUvwByLH7rQ0gyaqVq5j7wzwaNmzEzTfffNY6Z1JSRYYOGcqf/nQfWZmZFgqV0AL5tyNpf1+6qBR/EHI6fkaGvyMiAAAO30lEQVRGBlOmTCYrM4P+/fpRqVKls/a9xMRE7v/z/Siayr9f/TeFhYXwB5gpLvpoX8AUPhJ/P2cOW7dsYe68eSxcuIgGDRuwc8cOFiyYT7du3YHQCP5bE16Gv2sYBseOHWPa1KkkxMUzdsxY5s2fz403DqR2rVr06NGDxMTEEjwuFCW5qBQXILmOPkhmTJ/G+E8+ZcOGDdSvX58DBw9SHAiQmZ3N1OnTGPfxx7Ro0YIhQ4bQp08fF0/wWzuolJKdO3cy4s03+XHZj+Rk59C5Sxc+HjeO5IrJTJ0xjez0TEa8+Qb33HMPffv1Iymp4jndrTtTuqgUFyBJG0j4+ONPMOe72dSsWYvHnnicS5pfgm4YFBUW4vF6kVLyyy+/MGvmTF599d/k5GRz48CbTv9QNYyEEGRnZ/P99z8wavQocrKyuemmm2ndujWVK1dm0KBBVKqUQn5BPoWFhUyfOpVRoz9g3fqN3HnnHTRq1Kj8K+Is0UWluEDpySeeYNasmdw26DZ69uxJw4YNiY2NPc6RpnmzZtSpXZvpM6bzwZgx6LrJbbcN+tXfM02TVatW8eFHY6lVsxY3/P0GLmne3E3I06BBA/u7AJKaNWrw2YQJfPP1NwSDAe6++26ahKVkOJ/polJcIBRu07/zzjt89tln3HfffQweMoTKlSsjTZNVK1eyfuNGDEMnLiaW+g0a0KxZcy69tBPxCQmMHTOWsR+OpUuXTtSoUbME/xN11vA1y9KlS3n33ffwenw89NBDNG7ckKAeYOvWLaz/ZSP7du4lrXJlIiN9dOvejdp1ajN0yBBURTB79myW/fgj9erWw+P1uN87XxXkolJcIGSapouYGT16NFf1788tt9xCWloamzdv5qtZX7Fo8RJyhU5sxQoEc/KJMARX9evHzbfcTJPGjbn22mtY/viPvPzSy4x8/31XyU6lEBLIz89n+bJlZGak8/fHHqNR44bkF+Qzd+58Joz/hGDBMSqnGuzbWYE1G7L4+edVDB16B9WqVmPQoEFs3LSJr7/+hgYNGtK5SydMU7qhQs9Hxbi4JXsBkNN5Dd1g8uTJ7Ny5k9vvuIMqVaoggAmffcbHkyey06ejtG2EbN2QYLPabMpP5+3332PCZ5/i9Xpp2bIlg4cMYeasWRw+fNjlfSoSwJrVq1m4aCG169SmR48eFBYWsHDRIv777hsU5yymd5etXN/vAFd02kyPjvv4bubHjP94HIcOH6J69epcc8015OTmsOKnn9B147xUhHC6qBQXCAkh0HWdTz/9lKpVq1K9enW8Xi/ffvstM76ahbd+NRreMoC07h2Ja96Q1B4daXzzVfgTY5g2fToZGRkkJiZy5ZVXEhMTw+HDh8Oicpz4ew79svkX8vML6N69BxGRkRw8eJDPJ3xMUe46/np/JIMH6bRvm0OPzlk8eLeHq6/0MXv2l2zZvJlgUKd79+7UrFmL9PR0ioqsbLtnPaD0GdD5K9lFKkHOmiIzM5Mbbrie6OhohBBMmzYNGRdFWue2eFOS0RWBrgr8qkJ0g1pU79KOwmCQLVu2uMjRhIQEtmzZHIZsPfV3CwuLqFatKpd17QpScvToMdau/pHrr65Ch9a5KOSjiiAqfiI8GQwaWAEjeJijR48QCAZITEwkISEB0zQJBoMu7/N1xrioFBcIuYhgKenWrbsbq8mUkjptWhCTWslFJxvC2nU1hIIR5cNQBfv3HwBAUQSaqrF69ZrThmEEAwECgaDlsgwEgzqSYtq3Twas6C+Kadr+gToJsQVERICUBk70F4+qoqnKr0ZP/x50USnOc3IBdtYvAGzbthVd163FqhAc27efYE6eFeYG17sCVQKBIAJJQkK8fb4hMKVJ1apVT6kU4btdmqahqqrtVwEeTUXgYc/efKT0oAiBgUQKK7pJkV9BDwK2b7tTBieIgMP/fKWLSnEBULgzUHRMNOM++ojCgoL/b+9cg6K8zjj+e/fOwu4iYIwrSFxDFBCk1BsiUECFNmkuWhJNTdR2praf0sxkYuI4ahsznTb5kMxETTpj4jTxFiGGmsRIsJpEhFSMGBIMeOEmglyVZYHl3d3TD7ssLF7iDQPN/mZ2dobz7nnOeec8L+85zzn/ByFcxMbG0FhWQfOJckSXDaVwi3kphAtHSytdp86iEwpiYmIAcDgc2Lq6mJcyz1P39QeoEIKAgAC6umxUnT4NCIxGA2ZzFNt313G2PgAnGoRCiQIJe18oR0pc9DkMGAwm1GoNPd09WG02XMIt1jCSl2PB7xQjnsEDSKlUkpqaysny72hrb0cIeOaZP5OWkkpLcRlNh0voO1eP43wzjqo6av59kIajXxM7bRoTwsOx2+2cPl1Fc0sLJqPJsyR6/WVRIQTj7hlHQ8N5du3chdPpJDwinCVLn+JMnYHX3tRxotxE3YUwTtca+aI0lFffuETc9AymTJ2KVqPl+PHj1NXVYTQYCdDrfeoeifjjFKOA/kGr0+lY88IaNm/eTEFBAWPHjiUkJISVK1bSvWkTxz4o4NKxckz33kNbfQPdjS3kPPwoa9euRbhcVFRUsGHDBiwWCxaL5boHvwbbTs9I59SpCoqKiqmsPE1s7BQeefhBerq6eXPzG5wol0hKG09np8yXh5tJTJzDs88+y2TLJGw2G7t276az8zIxsdFotdq7cs9uB79TjDYkWLx4Mes3rCc8fAKZ8xeQnDKP5LlJFBZ8RnFxMbIsY4qbwczZs0hNT8clBA315/lk/356unvZuXPHD5oZ/Aw3mUxMjY5m9/t7eHnjy2zZspngMeP4/apVLMjOZl/+Pmqqq4mZOpEZiTqWLH2C0JBgbN297Nv3MeXflPPYokfJys4avvtyJ5FlWYy2z+XLl+9aKuKRiMvlEvPnZwrzeLPI3bNHtLW1CVmWhcPpFA6nSzgcnm+XS/TJsjhz5oxYt26dmDo1Wrz00ks+aXivZ6M/nbL74xB5H+SKxMRE8ZcNfxWtrW3C3tcjnI4+4ZBl4ZSd7qT0TlnIsl309NjEjp3bRWLiz8WixxaJo0eLhEv8sN2h/Cgpgzdu3Phj++VNExkZSVRUFMnJySN6wjZcuITgwIECsrKyWPbUU+Tk5PDcc88xJTp60Flp94pVxbff8uorr1BUVMQfVq1i9erVN3TPxFDNJSD9Fxm0NLeyZs2L5O7Zxd/+/g+yshcgSS637I7LicPl5HJnD5s2bWHr1q0kJEzn+dXPM2vWzKsoLI1MRuXrU21tLTU1NSQlJXnUGn56SJJEfn4+27Zt4/XXX2fOnCTmJs0hccYMDEYjVZWVFB05wsWLzUy2WFi3bh2/Xbbshuu/WsQ5ONjEipUrmDV7Ni9v3EhOTg4Go5HlTy/HGBwMwsm7771LU2MTSoWSF198gaVLn8Rsvhc86aSlG85XO9DPwSf5JI9aoxjGSbq0fv36kbkEcAOsXbsWlWpU+vVtIzzaTPbeXrqsXXz0yUdUn6umta2V7u4ejAYDIaEhxMfFkZKSSlBgIDpPCi8hbj5vtxh05trhcGC1WmloqGfH9h2oNVoqKioIDw9Ho9MxLSaGuXPnYjab0em0KBQehUMJbjz/hJv+2IhLCPJy8ygrO8HChQtJTU1FoXDHQRR3+G3B7xSjEK8AmULhDejZbDbsdjuywx1hVioUKJVKtDodeo8zwMDmwpt97RTC9zgqCByOPqxWG06ne/uGUqlEpVKh0WjQ6/UeaRm3QI5X1fcW7QJ0d3djt9vR6/XodDrvNXf6FfqnN6L+T+hPFt+vnhEUFERgUNCAYOagrd8Mlp+8ZbEq38NLACqVhuBgLV49YvpzyvUrvzs9cxsF0kDLbgrRL9MuBHq9Hr0nztHfjuGYU6oyMjOJjLwPl8vF4UOHqK2twWyeQEZmJmq1mgsXLlBw4FOEECT8LJHUtDScTicA+R/u5Xx9/U0bXZiVjVqt5uOP9rH4NzkEBQUB7g5qdTre2rIZSZJInjeP6OgYPv/8MFWVlXe046MZhUJx1Sf+gIbfAD6DRuKWJ7v9T/kBwer+GIdPy4bYVQ5ymFu0q1B4RZSHziOGa5FFFTb2Hra98zYhoaE8+NCv+de2d1iYlUV+/od0tLfz2KLFTLJYOHf2LIGBej7d/8k1B+hgQdxrieOOHz+eiIkTaWpsBCAvd4+3bPLk+4mIdAt3zZg5i7Getg3eWenHzbUGxIDS4pDyOzSArj8Qh25Fv32bPhqPd2mlUaFUuuUFVSqVO0MNUFp6jI72dgA6OjrQatxRSL0+0K3tcxUMBgOPL1mCSqVizJgxPP7EkiuukSSJlNQ0iouKrlpHfEIC5d98A0BcfDyFnxX4HcLPXUfVfLGZVX/8Eyq1ml07tgPwbXk5ABqNhomREykpPgqAPlBPRuZ8dDodlZXf8/mhQ96KrFYr1eeqeejhRwg2mTh4sPAKY3Hx8dTW1GC1dl5RZjSZ0KjVtLW2olZr0Gm1pKWnExYaxqlTFXxVUjIc/ffj5woUYWFh/POtN3l/9y4y5y/wKVyYlU3psWP0ev6D/LekhL15uWx7eytms5mJkZE+1399vJRx48Zx6dIl6uvqfMp0AQHEToujtPTYVRsSHz+dco8zarUalColXxWXsP29d4mKemDYlO78+BmKoqamBofDQVNjI/pAvTcYNnv2HGw2GxXffee9uKOjA6vVSl9fH2fPnCU0NNRbJkkSv3rwIU6WnUCSJGbMnOVjaMqUKej1ATy5bBkLsrK5b9IkkuelAO7dn1EPPEBV5fcA9Pb20nm5k5aWZmRZpra2lpBBtvz4GU5UZrMZSZIwGo24XO40thaLhQkR4ezNy/O5+PElS9mbl4vVasVsNnOy7IS3LDAwkPb2dkqKi1Gr1aSmpfn89mRZGSfLygCIiIggfnoCRUe+BOD+qChqPc4J7uBQT28vYWFjaW9vwzzBTKXHYfz4GW5UHR0dLF/5O5xOJ4UFBwDImL8AhODp5SsAaGpq4sCn+zl0sJBHFy1CqVRRX1dHdXW1t6Kuri6OfPkFALIsc7DwyjnFtYifnsDh/xz0+VvhZwVkZf8SrVZLVeX3NF+8eJtd9ePnxvBHtP34GcL/APkGIWc3PsMbAAAAAElFTkSuQmCC;" vertex="1" parent="1">
                    <mxGeometry x="530.0017388705551" y="1649.9982758620688" width="197" height="215" as="geometry"/>
                </mxCell>
            </root>
        </mxGraphModel>
    </diagram>
</mxfile>